<?xml version="1.0" encoding="utf-8"?>
<!-- Generator: Adobe Illustrator 16.0.0, SVG Export Plug-In . SVG Version: 6.00 Build 0)  -->
<!DOCTYPE svg PUBLIC "-//W3C//DTD SVG 1.1//EN" "http://www.w3.org/Graphics/SVG/1.1/DTD/svg11.dtd">
<svg version="1.1" id="Layer_1" xmlns="http://www.w3.org/2000/svg" xmlns:xlink="http://www.w3.org/1999/xlink" x="0px" y="0px"
	 width="125.43px" height="78.395px" viewBox="38.334 0 125.43 78.395" enable-background="new 38.334 0 125.43 78.395"
	 xml:space="preserve">
<rect x="38.61" y="0" fill="none" width="125.429" height="78.395"/>
<g>
	<path fill="#FFFFFF" d="M62.796,27.396c3.57,0,4.413,0.198,6.546,0.992v3.744c-0.024,0-2.504-0.422-5.059-0.422
		c-2.083,0-2.95-0.099-2.95,4.959c0,4.065,0.471,4.909,2.976,4.909c2.604,0,5.033-0.223,5.033-0.223V45.1
		c-1.537,0.645-2.876,0.867-6.546,0.793c-4.587-0.074-6.273-3.174-6.273-9.273C56.523,30.818,57.862,27.396,62.796,27.396z"/>
	<path fill="#FFFFFF" d="M70.928,27.594h4.811v7.215h4.215v-7.215h4.811v18.15h-4.811v-6.62h-4.215v6.62h-4.811V27.594z"/>
	<path fill="#FFFFFF" d="M86.573,31.809c0-3.738,2.859-4.215,4.611-4.215c0,0,5.207,0,8.109,0.397v4.042h-6.621
		c-1.289,0-1.289,0.719-1.289,1.389v1.09l6.67,0.273v3.992l-6.67,0.224v1.089c0,1.314,0.818,1.291,1.537,1.291h6.373v4.016
		c-2.555,0.348-7.861,0.422-7.861,0.422c-1.604,0.051-4.859-0.271-4.859-4.066V31.809z"/>
	<path fill="#FFFFFF" d="M108.069,27.47c4.289,0,7.514,0.818,7.514,9.323c0,8.01-3.049,9.002-7.514,9.051
		c-4.463,0-7.512-0.793-7.512-9.051C100.557,28.289,103.903,27.47,108.069,27.47z M108.069,41.53c2.133,0,2.703-0.893,2.703-4.736
		c0-4.215-0.447-5.008-2.703-5.008c-2.182,0-2.703,0.57-2.703,5.008C105.365,40.588,105.639,41.53,108.069,41.53z M109.26,46.563
		c0.148,1.512,2.43,1.166,3.918,0.867v3.473c-3.074,0.445-6.424-0.596-6.447-4.34H109.26z"/>
	<path fill="#FFFFFF" d="M117.291,27.594h4.811V37.81c0,2.331,0.051,3.745,2.404,3.745c2.207,0,2.258-1.514,2.258-3.745V27.594
		h4.834V37.81c0,8.008-4.09,8.059-7.092,8.059c-3.371,0-7.215,0.197-7.215-8.059V27.594z"/>
	<path fill="#FFFFFF" d="M133.408,31.809c0-3.738,2.859-4.215,4.611-4.215c0,0,5.207,0,8.107,0.397v4.042h-6.619
		c-1.289,0-1.289,0.719-1.289,1.389v1.09l6.67,0.273v3.992l-6.67,0.224v1.089c0,1.314,0.816,1.291,1.537,1.291h6.371v4.016
		c-2.553,0.348-7.859,0.422-7.859,0.422c-1.604,0.051-4.859-0.271-4.859-4.066V31.809z"/>
</g>
</svg>
