<?xml version="1.0" encoding="utf-8"?>
<!-- Generator: Adobe Illustrator 16.0.0, SVG Export Plug-In . SVG Version: 6.00 Build 0)  -->
<!DOCTYPE svg PUBLIC "-//W3C//DTD SVG 1.1//EN" "http://www.w3.org/Graphics/SVG/1.1/DTD/svg11.dtd">
<svg version="1.1" id="Layer_1" xmlns="http://www.w3.org/2000/svg" xmlns:xlink="http://www.w3.org/1999/xlink" x="0px" y="0px"
	 width="67.62px" height="51.208px" viewBox="-2.627 10.844 67.62 51.208" enable-background="new -2.627 10.844 67.62 51.208"
	 xml:space="preserve">
<g>
	<g>
		<path fill="#FFC60B" d="M38.099,50.49c1.467,2.249,4.568,2.347,7.335,2.526c6.099,0.393,18.284-3.061,19.468-9.989
			c0.745-4.36-3.288-0.73-4.302,0.572C55.698,49.918,48.943,52.668,38.099,50.49z"/>
		<path fill="#EE2A7B" d="M46.738,48.039c6.454,1.373,13.158-4.88,15.303-9.346c0.996-2.069,2.361-7.935-0.281-8.067
			c-2.299-0.112-1.766,3.79-2.411,6.449C57.72,43.813,52.1,46.165,46.738,48.039z"/>
		<path fill="#00A79D" d="M51.175,58.161c0.604-3.248-4.486-1.695-6.245-1.354c-7.878,1.541-15.241-1.751-19.737-7.645
			c-0.425-0.557-3.238-4.897-1.848-0.497c2.357,7.468,18.696,17.188,27.044,9.946C50.432,58.575,51.178,58.125,51.175,58.161z"/>
		<path fill="#A9C358" d="M33.4,21.349c5.396-3.64,12.422-3.455,17.398,0.129c0.91,0.654,5.768,6.565,6.5,3.501
			C59.164,17.158,36.88,13.627,33.4,21.349z"/>
		<path fill="#3FBBCF" d="M24.614,23.244c0.361-0.331,0.679-0.614,1.033-0.947c4.973-4.673,9.227-9.157,18.364-7.767
			c1.672,0.258,6.57,3.045,7.125-0.098c0.295-1.693-3.092-2.945-4.859-3.24c-10.789-1.808-18.484,3.631-21.8,11.105
			C24.318,22.653,24.392,22.965,24.614,23.244z"/>
	</g>
	<g>
		<path fill="#8C74BA" d="M30.032,27.096c0,3.787,3.04,5.943,5.864,7.234c-1.645,4.762-2.889,11.109-1.732,17.633
			c1.988-3.119,2.352-7.738,4.66-10.559c4.512,1.852,13.342,2.705,14.805-2.688c-3.813,1.32-10.162,1.938-10.23-3.075
			c3.512-0.968,8.66-1.034,9.398-4.879C44.515,33.018,34.945,31.063,30.032,27.096z"/>
		<path fill="#8C74BA" d="M41.292,24.864c1.568-0.059,2.887,1.165,2.945,2.734c0.059,1.568-1.164,2.887-2.73,2.946
			c-1.57,0.06-2.889-1.165-2.947-2.733S39.724,24.923,41.292,24.864z"/>
	</g>
	<g>
		<g>
			<path fill="#EE2A7B" d="M17.087,26.584c4.086-0.188,7.35-0.277,12.945,0.512c-11.453-7.878-27.796-9.608-32.66-8.61
				c5.262,2.361,9.394,5.881,13.399,12.271c4.231,6.747,7.109,20.601,6.98,31.295c4.144-12.684,5.964-23.798-0.357-34.999
				C17.304,26.892,17.188,26.74,17.087,26.584z"/>
			<circle fill="#EE2A7B" cx="15.266" cy="15.159" r="4.125"/>
		</g>
	</g>
</g>
</svg>
