<?xml version="1.0" encoding="utf-8"?>
<!-- Generator: Adobe Illustrator 16.0.0, SVG Export Plug-In . SVG Version: 6.00 Build 0)  -->
<!DOCTYPE svg PUBLIC "-//W3C//DTD SVG 1.1//EN" "http://www.w3.org/Graphics/SVG/1.1/DTD/svg11.dtd">
<svg version="1.1" id="Layer_1" xmlns="http://www.w3.org/2000/svg" xmlns:xlink="http://www.w3.org/1999/xlink" x="0px" y="0px"
	 width="85.575px" height="55.179px" viewBox="-24.674 -4.874 85.575 55.179" enable-background="new -24.674 -4.874 85.575 55.179"
	 xml:space="preserve">
<g>
	<path fill="#52BDEC" d="M20.81,49.607c-1.49,0.931-3.902,0.931-5.392,0l-38.974-24.396c-1.49-0.934-1.49-2.442,0-3.375
		L15.418-2.555c1.489-0.932,3.901-0.932,5.392,0l38.975,24.394c1.488,0.932,1.488,2.441,0,3.375L20.81,49.607z"/>
	<polygon fill="#0F6CB6" points="11.497,22.869 25.004,29.881 49.843,15.839 49.843,5.526 45.82,3.5 	"/>
	<g>
		<polygon fill="#52BDEC" points="49.843,5.526 25.004,19.568 25.004,16.182 49.843,2.14 		"/>
		<polygon fill="#0F6CB6" points="11.497,12.556 25.004,19.568 25.004,16.182 11.497,9.17 		"/>
		<polygon fill="#FFFFFF" points="11.497,9.17 25.004,16.182 49.843,2.14 36.335,-4.874 		"/>
	</g>
</g>
</svg>
