<?xml version="1.0" encoding="utf-8"?>
<!-- Generator: Adobe Illustrator 16.0.0, SVG Export Plug-In . SVG Version: 6.00 Build 0)  -->
<!DOCTYPE svg PUBLIC "-//W3C//DTD SVG 1.1//EN" "http://www.w3.org/Graphics/SVG/1.1/DTD/svg11.dtd">
<svg version="1.1" id="Layer_1" xmlns="http://www.w3.org/2000/svg" xmlns:xlink="http://www.w3.org/1999/xlink" x="0px" y="0px"
	 width="22.125px" height="22.125px" viewBox="-0.555 -0.32 22.125 22.125" enable-background="new -0.555 -0.32 22.125 22.125"
	 xml:space="preserve">
<g>
	<path fill="#FF0000" d="M21.531,11.517L6.688,11.693c0.97,0.398,1.92,1.22,1.92,1.22s0.789,0.36,0.871,0.508
		c0.082,0.146,0.457,0.509,0.457,0.509s-0.141-0.455-0.359-0.763c-0.219-0.31-0.453-0.603-0.734-0.735
		c-0.281-0.134-0.484-0.334-0.484-0.334s0.453-0.481,1.203-0.135c0.75,0.348,1.078,1.098,1.078,1.098s0.563,0.508,0.734,0.735
		c0.172,0.228,0.688,0.574,1.155,0.642c0.469,0.068,1.781,0.188,2.267-0.642c0.483-0.83,0.978-1.737,1.72-1.899
		c1.172-0.254,1.327,0.201,1.327,0.201s-0.438,0.36-0.672,0.508c-0.233,0.146-0.405,0.375-0.453,0.455
		c-0.047,0.08-0.188,0.91-0.313,1.338s-0.313,1.324-0.202,1.791c0.11,0.469,0.28,0.75,0.297,1.058s0.219,0.614,0.469,0.829
		c0.152,0.131,0.527,0.63,0.8,1.002C19.91,17.208,21.323,14.531,21.531,11.517z"/>
	<path fill="#FF0000" d="M21.568,10.71C21.551,4.615,16.607-0.32,10.508-0.32c-6.11,0-11.063,4.953-11.063,11.063
		c0,0.058,0.008,0.114,0.009,0.172l0.009-0.016L21.568,10.71z"/>
	<path fill="#E7F2E9" d="M6.498,11.615c0.063,0.021,0.126,0.052,0.189,0.078l14.844-0.176c0.018-0.257,0.039-0.513,0.039-0.774
		c0-0.011-0.002-0.021-0.002-0.032l-22.105,0.188l-0.009,0.016c0.004,0.29,0.017,0.579,0.043,0.862l5.652-0.065
		C5.438,11.551,5.901,11.406,6.498,11.615z"/>
	<g>
		<path fill="#FF0000" d="M12.779,18.543c-1.082-0.643-2.208-1.463-2.75-2.068s-1.125-1.168-1.469-1.303
			c-0.344-0.134-1-0.695-1.375-1.203c-0.375-0.509-1.188-0.883-1.5-1.044c-0.313-0.159-0.864-0.304-0.864-0.304
			s-0.041-0.268,0.188-0.338c0.229-0.071,0.563-0.09,0.563-0.09s-0.043-0.084-0.356-0.111c-0.313-0.025-0.398-0.133-0.398-0.133
			s0.121-0.123,0.331-0.238l-5.652,0.066c0.522,5.623,5.25,10.027,11.01,10.027c1.239,0,2.428-0.214,3.539-0.59
			c-0.212-0.441-1.136-1.256-1.604-2.249C12.409,18.893,12.814,18.618,12.779,18.543z"/>
		<path fill="#FFFFFF" d="M16.498,17.245c-0.016-0.308-0.188-0.589-0.297-1.058c-0.109-0.467,0.078-1.363,0.203-1.791
			c0.125-0.429,0.266-1.258,0.313-1.338s0.219-0.309,0.453-0.455s0.672-0.509,0.672-0.509s-0.156-0.454-1.328-0.2
			c-0.742,0.162-1.234,1.069-1.719,1.899c-0.484,0.828-1.797,0.709-2.266,0.642c-0.469-0.066-0.984-0.414-1.156-0.642
			c-0.172-0.229-0.734-0.735-0.734-0.735s-0.328-0.75-1.078-1.098s-1.203,0.134-1.203,0.134s0.203,0.201,0.484,0.335
			c0.281,0.135,0.516,0.428,0.734,0.735c0.219,0.308,0.359,0.762,0.359,0.762s-0.375-0.36-0.457-0.508s-0.871-0.508-0.871-0.508
			s-0.95-0.82-1.92-1.22l-1.537,0.02c-0.21,0.115-0.331,0.238-0.331,0.238s0.086,0.105,0.398,0.133
			c0.313,0.027,0.354,0.111,0.354,0.111s-0.334,0.019-0.563,0.09c-0.229,0.07-0.188,0.338-0.188,0.338s0.552,0.145,0.864,0.304
			c0.313,0.161,1.125,0.535,1.5,1.044c0.375,0.508,1.031,1.069,1.375,1.203c0.344,0.135,0.927,0.696,1.469,1.303
			c0.542,0.605,1.667,1.428,2.75,2.068c0.035,0.075-0.369,0.35-0.334,0.424c0.467,0.993,1.391,1.807,1.603,2.249
			c1.384-0.468,2.644-1.2,3.72-2.14c-0.271-0.372-0.646-0.871-0.8-1.002C16.717,17.861,16.514,17.553,16.498,17.245z"/>
	</g>
	<path fill="#FFFFFF" d="M5.15,11.711l1.538-0.02c-0.063-0.025-0.126-0.056-0.189-0.077C5.901,11.406,5.438,11.551,5.15,11.711z"/>
	<g>
		<path fill="#FFFFFF" d="M9.267,10.168H2.281v-0.5c0.337-3.335,3.631-7.171,8.312-7.171c4.683,0,7.839,3.835,8.314,7.171v0.5
			h-2.304l-3.832-0.851l5.103-0.149c-0.354-2.682-3.47-5.671-7.281-5.671c-3.811,0-6.924,3.048-7.278,5.729L5.884,9.43L9.267,10.168
			z"/>
	</g>
	<g>
		<path fill="#FFFFFF" d="M10.407,0.509C9.861,0.611,9.5,1.14,9.603,1.689c0.05,0.263,0.201,0.479,0.402,0.625
			C9.991,2.286,9.976,2.26,9.969,2.228c-0.037-0.202,0.095-0.397,0.297-0.435c0.203-0.038,0.4,0.095,0.438,0.297
			c0.032,0.17-0.063,0.33-0.214,0.401c0.096,0.011,0.191,0.023,0.29,0.004c0.55-0.104,0.916-0.633,0.812-1.18
			C11.49,0.766,10.957,0.405,10.407,0.509z"/>
	</g>
	<path fill="#FF0000" d="M14.251,19.316c0,0.283-0.226,0.51-0.505,0.51c-0.275,0-0.505-0.227-0.505-0.51
		c0-0.272,0.229-0.5,0.505-0.5C14.025,18.816,14.251,19.043,14.251,19.316z"/>
</g>
</svg>
