<?xml version="1.0" encoding="utf-8"?>
<!-- Generator: Adobe Illustrator 16.0.0, SVG Export Plug-In . SVG Version: 6.00 Build 0)  -->
<!DOCTYPE svg PUBLIC "-//W3C//DTD SVG 1.1//EN" "http://www.w3.org/Graphics/SVG/1.1/DTD/svg11.dtd">
<svg version="1.1" id="Layer_1" xmlns="http://www.w3.org/2000/svg" xmlns:xlink="http://www.w3.org/1999/xlink" x="0px" y="0px"
	 width="21.485px" height="21.485px" viewBox="2.76 6.53 21.485 21.485" enable-background="new 2.76 6.53 21.485 21.485"
	 xml:space="preserve">
<g>
	<path fill="none" d="M2.76,24.369v-5.376l-0.002-0.002v5.38c0,1.204,0.591,2.262,1.492,2.926C3.351,26.632,2.76,25.574,2.76,24.369
		z"/>
	<rect x="2.759" y="13.957" fill="none" width="0.002" height="0.508"/>
	<path fill="none" d="M2.76,10.175c0-1.152,0.543-2.165,1.375-2.833C3.302,8.01,2.759,9.023,2.759,10.175v2.198l0.002,0V10.175z"/>
	<path fill="#FFD400" d="M6.407,6.53c-0.864,0-1.646,0.312-2.271,0.813c0.625-0.5,1.409-0.813,2.275-0.813H6.407z"/>
	<path fill="#FFD400" d="M2.76,10.175v2.198l21.485,2.526v-4.724c0-2.016-1.629-3.646-3.643-3.646H6.411
		c-0.866,0-1.649,0.312-2.275,0.813C3.303,8.01,2.76,9.023,2.76,10.175z"/>
	<path fill="#FFD400" d="M6.407,28.015h0.004c-0.813,0-1.555-0.272-2.161-0.719C4.855,27.743,5.596,28.015,6.407,28.015z"/>
	<polygon fill="#FFD400" points="2.76,14.466 24.246,23.569 24.246,21.806 2.76,13.958 	"/>
	<path fill="#FFD400" d="M2.76,18.993v5.376c0,1.205,0.59,2.264,1.49,2.928c0.606,0.446,1.348,0.719,2.161,0.719h6.127L2.76,18.993z
		"/>
	<path fill="#050300" d="M22.022,27.729c1.308-0.553,2.224-1.848,2.224-3.358v-0.002C24.246,25.88,23.33,27.175,22.022,27.729z"/>
	<rect x="2.758" y="14.466" fill="#050300" width="0.002" height="4.525"/>
	<path fill="#050300" d="M2.76,18.993l9.777,9.022h8.065c0.503,0,0.982-0.102,1.419-0.286c1.308-0.554,2.224-1.849,2.224-3.36v-0.8
		L2.76,14.466V18.993z"/>
	<rect x="2.759" y="12.373" fill="#050300" width="0.002" height="1.584"/>
	<polygon fill="#050300" points="2.76,13.958 24.246,21.806 24.246,14.899 2.76,12.374 	"/>
</g>
</svg>
