<?xml version="1.0" encoding="utf-8"?>
<!-- Generator: Adobe Illustrator 16.0.0, SVG Export Plug-In . SVG Version: 6.00 Build 0)  -->
<!DOCTYPE svg PUBLIC "-//W3C//DTD SVG 1.1//EN" "http://www.w3.org/Graphics/SVG/1.1/DTD/svg11.dtd">
<svg version="1.1" id="Layer_1" xmlns="http://www.w3.org/2000/svg" xmlns:xlink="http://www.w3.org/1999/xlink" x="0px" y="0px"
	 width="43.375px" height="43.376px" viewBox="4.246 1.682 43.375 43.376" enable-background="new 4.246 1.682 43.375 43.376"
	 xml:space="preserve">
<g>
	<path fill="#C1EF00" d="M4.246,23.37c0-11.979,9.711-21.688,21.688-21.688c11.979,0,21.688,9.71,21.688,21.688
		c0,11.975-9.711,21.688-21.688,21.688C13.957,45.059,4.246,35.344,4.246,23.37z"/>
	<g>
		<g>
			<circle cx="39.316" cy="26.164" r="3.261"/>
			<circle cx="12.349" cy="26.164" r="3.261"/>
			<path d="M15.434,28.527c0,0,0.428-0.678,0.615-1.43c0.146-0.591,0.146-1.25,0.146-1.25h19.159c0,0-2.389,1.327-9.508,2.101
				C20.054,28.573,15.434,28.527,15.434,28.527z"/>
		</g>
		<g>
			<path d="M41.596,19.306c-2.422-0.652-8.229-2.306-11.813-2.125c-4.365,0.22-11.433,2.599-11.433,2.599s6.086,0.756,11.265,0.938
				c3.76,0.132,7-0.688,7-0.688s-3.125,1.688-8.5,1.375c-5.375-0.313-12.181-1.108-15.94-0.75c-4.586,0.437-6.688,3.687-6.688,3.687
				l0,0c0.306,0.117,0.967,0.355,1.629,0.51c0.78,0.186,1.387,0.273,1.545,0.299c0.346-1.396,1.593-2.645,3.375-2.729
				c3.182-0.146,4.102,2.658,4.102,2.658h19.406c0,0,0.746-2.74,3.705-2.74c2.692,0,3.666,2.146,3.666,2.146
				s0.975-0.459,1.951-1.582c1.235-1.417,1.559-2.621,1.559-2.621S43.465,19.81,41.596,19.306z"/>
			<path d="M5.442,25.125c0.018,0.543,0.33,1.467,1.08,2.133c0.995,0.885,2.906,1.291,2.906,1.291s-0.473-0.568-0.77-1.439
				c-0.14-0.41-0.146-1.209-0.146-1.219c-0.172-0.021-0.746-0.119-1.564-0.311C6.37,25.443,5.807,25.256,5.442,25.125z"/>
		</g>
	</g>
</g>
</svg>
