<?xml version="1.0" encoding="utf-8"?>
<!-- Generator: Adobe Illustrator 16.0.0, SVG Export Plug-In . SVG Version: 6.00 Build 0)  -->
<!DOCTYPE svg PUBLIC "-//W3C//DTD SVG 1.1//EN" "http://www.w3.org/Graphics/SVG/1.1/DTD/svg11.dtd">
<svg version="1.1" id="Layer_1" xmlns="http://www.w3.org/2000/svg" xmlns:xlink="http://www.w3.org/1999/xlink" x="0px" y="0px"
	 width="125.432px" height="78.395px" viewBox="0 0 125.432 78.395" enable-background="new 0 0 125.432 78.395"
	 xml:space="preserve">
<rect x="0" y="0" fill="#FFFFFF" width="125.43" height="78.395"/>
<g>
	<path fill="#F58220" d="M34.479,78.395h86.771c2.309,0,4.182-1.873,4.182-4.182V44.859C117.103,50.139,85.705,68.34,34.479,78.395z
		"/>
	<g>
		
			<radialGradient id="SVGID_1_" cx="924.8225" cy="-565.3298" r="6.1811" gradientTransform="matrix(1 0 0 -1 -860.584 -526.1284)" gradientUnits="userSpaceOnUse">
			<stop  offset="0.0056" style="stop-color:#FFEEE1"/>
			<stop  offset="0.0966" style="stop-color:#FFEAD8"/>
			<stop  offset="0.2452" style="stop-color:#FEDDC2"/>
			<stop  offset="0.4329" style="stop-color:#FCCA9F"/>
			<stop  offset="0.6522" style="stop-color:#F9AF72"/>
			<stop  offset="0.8954" style="stop-color:#F68F39"/>
			<stop  offset="1" style="stop-color:#F48220"/>
		</radialGradient>
		<path fill="url(#SVGID_1_)" d="M64.247,33.092c-3.456,0-6.261,2.699-6.261,6.031c0,3.543,2.684,6.188,6.261,6.188
			c3.487,0,6.243-2.682,6.243-6.121C70.49,35.775,67.754,33.092,64.247,33.092z"/>
		<path fill="#081A23" d="M28.712,33.311h-3.363v11.738h3.348c1.775,0,3.062-0.422,4.188-1.354c1.336-1.108,2.13-2.78,2.13-4.51
			C35.012,35.721,32.423,33.311,28.712,33.311z M31.389,42.127c-0.725,0.649-1.655,0.934-3.136,0.934h-0.614v-7.762h0.614
			c1.479,0,2.375,0.264,3.136,0.949c0.792,0.705,1.264,1.795,1.264,2.92C32.652,40.297,32.181,41.426,31.389,42.127z"/>
		<rect x="36.068" y="33.311" fill="#081A23" width="2.288" height="11.738"/>
		<path fill="#081A23" d="M43.955,37.813c-1.375-0.508-1.778-0.844-1.778-1.477c0-0.738,0.719-1.301,1.706-1.301
			c0.688,0,1.25,0.278,1.851,0.944l1.195-1.563c-0.986-0.865-2.164-1.307-3.45-1.307c-2.075,0-3.66,1.442-3.66,3.36
			c0,1.621,0.739,2.447,2.888,3.221c0.896,0.316,1.354,0.527,1.584,0.673c0.459,0.301,0.688,0.721,0.688,1.213
			c0,0.952-0.759,1.651-1.779,1.651c-1.093,0-1.972-0.543-2.497-1.563l-1.479,1.428c1.054,1.547,2.32,2.234,4.063,2.234
			c2.377,0,4.048-1.586,4.048-3.855C47.333,39.611,46.561,38.766,43.955,37.813z"/>
		<path fill="#081A23" d="M48.054,39.186c0,3.453,2.712,6.127,6.195,6.127c0.984,0,1.83-0.19,2.871-0.686v-2.693
			c-0.918,0.916-1.729,1.283-2.768,1.283c-2.307,0-3.941-1.672-3.941-4.049c0-2.25,1.688-4.029,3.838-4.029
			c1.09,0,1.918,0.389,2.871,1.32v-2.693c-1.004-0.51-1.833-0.719-2.816-0.719C50.835,33.047,48.054,35.775,48.054,39.186z"/>
		<polygon fill="#081A23" points="75.67,41.195 72.536,33.311 70.037,33.311 75.02,45.35 76.251,45.35 81.32,33.311 78.84,33.311 		
			"/>
		<polygon fill="#081A23" points="82.361,45.049 88.855,45.049 88.855,43.061 84.648,43.061 84.648,39.891 88.695,39.891 
			88.695,37.904 84.648,37.904 84.648,35.299 88.855,35.299 88.855,33.311 82.361,33.311 		"/>
		<path fill="#081A23" d="M97.917,36.775c0-2.196-1.515-3.465-4.152-3.465h-3.396v11.738h2.29v-4.717h0.299l3.167,4.717h2.814
			l-3.696-4.945C96.967,39.752,97.917,38.572,97.917,36.775z M93.322,38.713h-0.664v-3.557h0.701c1.43,0,2.203,0.602,2.203,1.739
			C95.563,38.078,94.787,38.713,93.322,38.713z"/>
		<path fill="#231F20" d="M99.532,34.186c0-0.205-0.14-0.315-0.392-0.315h-0.334v1.032h0.245V34.5L99.34,34.9h0.309l-0.346-0.428
			C99.451,34.436,99.532,34.33,99.532,34.186z M99.1,34.326h-0.046v-0.271h0.049c0.121,0,0.185,0.043,0.185,0.131
			C99.285,34.279,99.221,34.326,99.1,34.326z"/>
		<path fill="#231F20" d="M99.19,33.479c-0.501,0-0.899,0.402-0.899,0.904c0,0.5,0.4,0.902,0.899,0.902
			c0.491,0,0.895-0.406,0.895-0.902S99.682,33.479,99.19,33.479z M99.189,35.123c-0.397,0-0.724-0.328-0.724-0.738
			c0-0.414,0.321-0.742,0.724-0.742c0.393,0,0.711,0.334,0.711,0.742C99.9,34.791,99.58,35.123,99.189,35.123z"/>
	</g>
</g>
</svg>
