<?xml version="1.0" encoding="utf-8"?>
<!-- Generator: Adobe Illustrator 16.0.0, SVG Export Plug-In . SVG Version: 6.00 Build 0)  -->
<!DOCTYPE svg PUBLIC "-//W3C//DTD SVG 1.1//EN" "http://www.w3.org/Graphics/SVG/1.1/DTD/svg11.dtd">
<svg version="1.1" id="Layer_1" xmlns="http://www.w3.org/2000/svg" xmlns:xlink="http://www.w3.org/1999/xlink" x="0px" y="0px"
     width="54.789px" height="50.559px" viewBox="3.318 2.72 54.789 50.559" enable-background="new 3.318 2.72 54.789 50.559"
     xml:space="preserve">
<g>
    <path fill="#0A0A0A" d="M4.646,14.311C3.969,1.645,17.326,2.744,17.326,2.744h8.158l5.138,6.774L13.938,9.484
        C13.939,9.484,7.101,8.824,4.646,14.311L4.646,14.311z M3.993,22.971c2.458-5.486,9.293-4.828,9.293-4.828l24.033,0.041
        l-5.104-6.603H16.706C16.707,11.583,3.315,10.305,3.993,22.971L3.993,22.971z M44.023,26.844l-5.153-6.866H16.008
        c0,0-11.147-0.847-12.546,8.683l0,0c-0.132,0.896-0.178,1.883-0.119,2.973c0.299-0.667,0.663-1.241,1.071-1.74l0,0
        c2.947-3.595,8.221-3.086,8.221-3.086L44.023,26.844z"/>
    <path fill="#C11010" d="M56.779,41.605C57.461,54.272,44.116,53.26,44.116,53.26h-8.158l-5.151-6.862l16.681,0.04
        C47.485,46.437,54.325,47.092,56.779,41.605L56.779,41.605z M57.434,32.946c-2.458,5.486-9.292,4.829-9.292,4.829l-24.039-0.041
        l5.106,6.6l15.559,0.27C44.767,44.601,58.109,45.613,57.434,32.946L57.434,32.946z M17.406,29.075l5.104,6.598l22.913,0.269
        c0,0,11.146,0.847,12.539-8.681h0.002c0.134-0.898,0.178-1.889,0.117-2.976c-0.297,0.667-0.662,1.245-1.068,1.742l0,0
        c-2.949,3.595-8.223,3.084-8.223,3.084L17.406,29.075z"/>
</g>
<path fill="#0A0A0A" d="M6.405,31.36c-0.062,0.058-0.336,0.313-0.632,0.811L5.77,32.171c-0.915,1.518-1.942,5.179,2.945,11.495
    l7.092,9.435h7.282h9.246L13.852,28.898C13.852,28.898,6.901,29.52,6.405,31.36z"/>
<path fill="#C11010" d="M47.452,26.357c0,0,4.479,0.131,6.477-1.491l0.939-0.943c0,0,0.325-0.271,0.664-0.83l0.002-0.002
    c0.914-1.521,1.941-5.183-2.947-11.499l-6.555-8.847H29.467L47.452,26.357z"/>
</svg>
