<?xml version="1.0" encoding="utf-8"?>
<!-- Generator: Adobe Illustrator 19.0.0, SVG Export Plug-In . SVG Version: 6.00 Build 0)  -->
<svg version="1.1" id="Capa_1" xmlns="http://www.w3.org/2000/svg" xmlns:xlink="http://www.w3.org/1999/xlink" x="0px" y="0px"
	 viewBox="240 -240 512 512" style="enable-background:new 240 -240 512 512;" xml:space="preserve">
<style type="text/css">
	.st0{fill:#092C4F;}
</style>
<g>
	<g id="Layer_2_17_">
		<g>
			<path class="st0" d="M536.8,208.5c-3.9,1.1-7.8,2-11.8,2.8c-10.3,2.1-16.9,12.2-14.8,22.5c0.1,0.6,0.3,1.2,0.4,1.7
				c2.8,9.3,12.3,15.1,22.1,13.2c4.7-1,9.5-2.1,14.1-3.3c10.2-2.7,16.2-13.2,13.5-23.3C557.5,211.8,547,205.8,536.8,208.5z"/>
			<path class="st0" d="M404,198c-3.7-1.6-7.4-3.4-10.9-5.2c-9.3-4.8-20.8-1.3-25.7,8c-2.4,4.6-2.7,9.7-1.4,14.3
				c1.5,4.7,4.6,8.9,9.4,11.4c4.3,2.2,8.6,4.4,13,6.3c9.6,4.3,20.9,0,25.2-9.6C417.9,213.6,413.6,202.2,404,198z"/>
			<path class="st0" d="M469.5,214.7c-4-0.3-8-0.8-12.1-1.4c-10.5-1.5-20,5.8-21.5,16.2c-0.4,2.8-0.2,5.6,0.6,8.1
				c2,6.9,7.9,12.3,15.6,13.4c4.7,0.7,9.6,1.2,14.3,1.5c10.5,0.9,19.7-7,20.5-17.4C487.8,224.7,480.1,215.6,469.5,214.7z"/>
			<path class="st0" d="M598.2,180.1c-3.3,2.3-6.8,4.5-10.2,6.6c-7.7,4.6-10.8,13.7-8.4,21.8c0.5,1.5,1.1,2.9,1.9,4.4
				c5.4,9,17.1,11.9,26.1,6.5c4.1-2.5,8.2-5.1,12.1-7.8c8.6-6,10.8-17.8,4.9-26.5C618.8,176.4,606.8,174.1,598.2,180.1z"/>
			<path class="st0" d="M673.1,128.6c-8.5-6.2-20.4-4.3-26.6,4.3c-2.3,3.3-4.8,6.5-7.4,9.6c-4.2,5.1-5.2,11.7-3.5,17.6
				c1.1,3.5,3.1,6.8,6.2,9.2c8.1,6.7,20.1,5.4,26.8-2.7c3-3.7,6-7.6,8.8-11.4C683.5,146.6,681.6,134.8,673.1,128.6z"/>
			<path class="st0" d="M699.8,59.2c-10.1-2.9-20.7,2.8-23.6,13c-1.2,3.9-2.4,7.7-3.8,11.5c-1.5,4-1.5,8.1-0.3,11.9
				c1.6,5.6,5.9,10.4,11.8,12.5c9.9,3.6,20.8-1.5,24.4-11.5c1.6-4.6,3.1-9.1,4.5-13.8C715.7,72.7,709.9,62.2,699.8,59.2z"/>
			<path class="st0" d="M735.6-65l-25.1,7.7c-19-58.2-59-106.1-113.1-135.1c-5.4-2.9-10.9-5.6-16.6-8.1c0,0-0.1,0-0.1-0.1
				c-0.2-0.1-0.5-0.2-0.7-0.3c-49.4-21.6-104-25.6-156.4-11.5c-0.4,0.1-0.8,0.2-1.3,0.3c-1.7,0.5-3.5,1-5.2,1.5
				c-2.9,0.9-5.7,1.8-8.5,2.8c-0.3,0.1-0.7,0.3-1,0.4c-46.9,16.2-86.7,46.1-115.2,86c-0.1,0.1-0.2,0.3-0.3,0.4
				c-2.8,3.9-5.4,7.9-8,12c-0.2,0.3-0.3,0.6-0.5,0.8c-2.5,4.1-4.9,8.3-7.3,12.6c-23.5,43.9-32.5,92.9-26.4,141.3c0,0.1,0,0.2,0,0.3
				c0,0.1,0,0.2,0,0.2c1.6,13,4.4,25.9,8.2,38.5c10.1,33.4,26.9,63.5,50.1,89.4c7,7.8,19.1,8.5,26.9,1.5c7.8-7,8.5-19.1,1.5-26.9
				c-11.5-12.9-21.2-27.1-29-42.3c-0.1-0.2-0.2-0.4-0.3-0.6c-1.8-3.6-3.6-7.3-5.1-11c0,0,0,0,0-0.1c-2.9-6.8-5.4-13.8-7.7-21
				c-25-82.8,6.9-169.5,72.9-217.9c1-0.7,1.9-1.5,2.9-2.1c16.9-12,36.1-21.5,57-27.8c21.1-6.4,42.4-9,63.2-8.4c0.3,0,0.7,0,1,0
				c1.3,0,2.5,0.1,3.8,0.2c0.5,0,1.1,0.1,1.5,0.1c65.1,4.1,125.1,40.2,158.8,97c0,0,0,0.1,0.1,0.1c0.5,0.9,1,1.6,1.5,2.5
				c0.1,0.1,0.1,0.2,0.2,0.3c6.5,11.3,11.9,23.4,16.1,36.2l-25.1,7.7c-7,2.1-7.7,7.2-1.5,11.1L701.4,8c6.1,4,13.4,1.6,16.2-5
				l25.3-59.7C745.9-63.3,742.5-67.1,735.6-65z"/>
			<path class="st0" d="M415.1,16.6C396.7,30.2,384.2,42,377.5,52c-6.7,10-10.7,20.6-12,32.1h114.9V52.9h-59.8
				c3.5-3.5,6.6-6.2,9.2-8.3c2.6-2.1,7.7-5.9,15.5-11.2c13-9.1,21.9-17.5,26.8-25.2c4.9-7.7,7.4-15.7,7.4-24.1
				c0-7.9-2.1-15-6.4-21.4s-10.2-11-17.7-14.1s-18-4.6-31.5-4.6c-12.9,0-23.1,1.6-30.3,4.8c-7.3,3.2-13,7.8-16.9,13.9
				c-4,6.1-6.8,14.4-8.2,25.3l38.4,3.1c1.1-7.7,3.2-13.2,6.3-16.3c3.1-3.1,7.1-4.6,12-4.6c4.7,0,8.6,1.5,11.7,4.5
				c3.1,3,4.6,6.6,4.6,10.8c0,3.9-1.5,8-4.7,12.3C433.5,1.9,426.3,8.2,415.1,16.6z"/>
			<path class="st0" d="M596,84V58.2h17.3V28.5H596v-84.6h-33.4l-69.7,82.9v31.5h69.7V84H596L596,84z M525.7,28.6l36.9-43.4v43.4
				H525.7z"/>
		</g>
	</g>
</g>
</svg>
