<?xml version="1.0" encoding="utf-8"?>
<!-- Generator: Adobe Illustrator 16.0.0, SVG Export Plug-In . SVG Version: 6.00 Build 0)  -->
<!DOCTYPE svg PUBLIC "-//W3C//DTD SVG 1.1//EN" "http://www.w3.org/Graphics/SVG/1.1/DTD/svg11.dtd">
<svg version="1.1" id="Layer_1" xmlns="http://www.w3.org/2000/svg" xmlns:xlink="http://www.w3.org/1999/xlink" x="0px" y="0px"
	 width="55.42px" height="54.871px" viewBox="-1.515 -1.031 55.42 54.871" enable-background="new -1.515 -1.031 55.42 54.871"
	 xml:space="preserve">
<g>
	<path fill="#FFCB0B" d="M53.801,28.715c0.063-0.762,0.104-1.532,0.104-2.313c0-0.781-0.039-1.551-0.104-2.315l-3-1.265
		c-0.19-1.329-0.485-2.624-0.881-3.875l2.158-2.442c-0.558-1.452-1.229-2.846-2.013-4.168l-3.25,0.162
		c-0.746-1.101-1.578-2.133-2.481-3.098l0.883-3.139c-1.12-1.061-2.327-2.032-3.612-2.894l-2.867,1.563
		c-1.137-0.665-2.332-1.243-3.574-1.724l-0.563-3.216c-1.457-0.462-2.969-0.805-4.518-1.022L28.18,1.622
		c-0.657-0.051-1.314-0.085-1.984-0.085c-0.668,0-1.327,0.034-1.982,0.085L22.308-1.03c-1.549,0.218-3.058,0.563-4.514,1.023
		L17.231,3.21c-1.243,0.48-2.438,1.059-3.575,1.725L10.787,3.37C9.501,4.232,8.295,5.203,7.173,6.263l0.886,3.139
		c-0.905,0.965-1.738,1.997-2.48,3.098l-3.256-0.163c-0.781,1.323-1.455,2.716-2.01,4.168l2.157,2.443
		c-0.393,1.251-0.686,2.545-0.878,3.873l-3.003,1.266c-0.063,0.764-0.104,1.534-0.104,2.315c0,0.78,0.04,1.55,0.104,2.313
		l3.004,1.271c0.191,1.326,0.484,2.619,0.877,3.871l-2.157,2.442c0.555,1.451,1.229,2.847,2.01,4.166l3.256-0.164
		c0.742,1.103,1.575,2.136,2.48,3.101l-0.886,3.143c1.122,1.061,2.328,2.029,3.614,2.893l2.869-1.563
		c1.137,0.666,2.332,1.244,3.575,1.726l0.563,3.219c1.456,0.463,2.964,0.809,4.514,1.022l1.905-2.653
		c0.655,0.054,1.314,0.086,1.982,0.086s1.327-0.032,1.983-0.086l1.904,2.653c1.549-0.217,3.058-0.563,4.513-1.022l0.563-3.217
		c1.243-0.479,2.438-1.06,3.573-1.724l2.867,1.563c1.286-0.861,2.492-1.834,3.613-2.896l-0.883-3.14
		c0.902-0.967,1.736-1.997,2.48-3.102l3.252,0.164c0.783-1.32,1.455-2.715,2.012-4.166l-2.156-2.443
		c0.395-1.25,0.688-2.543,0.879-3.873L53.801,28.715z"/>
	<g>
		<g>
			<circle fill="#1F4A7E" cx="40.409" cy="29.083" r="3.49"/>
			<circle fill="#1F4A7E" cx="11.556" cy="29.083" r="3.49"/>
			<path fill="#1F4A7E" d="M14.856,31.614c0,0,0.457-0.729,0.656-1.531c0.156-0.631,0.156-1.338,0.156-1.338h20.499
				c0,0-2.559,1.422-10.172,2.248C19.798,31.663,14.856,31.614,14.856,31.614z"/>
		</g>
		<g>
			<path fill="#1F4A7E" d="M42.847,21.745c-2.593-0.697-8.804-2.467-12.64-2.273c-4.669,0.236-12.23,2.781-12.23,2.781
				s6.512,0.809,12.051,1.004c4.022,0.142,7.49-0.736,7.49-0.736s-3.345,1.806-9.095,1.471c-5.751-0.335-13.032-1.184-17.054-0.802
				c-4.906,0.468-7.155,3.946-7.155,3.946l0,0c0.327,0.125,1.036,0.38,1.744,0.543c0.833,0.199,1.483,0.294,1.653,0.319
				c0.369-1.492,1.703-2.828,3.61-2.917c3.404-0.156,4.39,2.844,4.39,2.844h20.762c0,0,0.799-2.932,3.965-2.932
				c2.881,0,3.922,2.296,3.922,2.296s1.045-0.491,2.088-1.693c1.322-1.516,1.668-2.805,1.668-2.805S44.847,22.285,42.847,21.745z"/>
			<path fill="#1F4A7E" d="M4.165,27.972c0.019,0.581,0.353,1.569,1.155,2.282c1.064,0.943,3.107,1.381,3.107,1.381
				s-0.506-0.608-0.823-1.541c-0.15-0.438-0.156-1.293-0.156-1.305c-0.185-0.022-0.797-0.127-1.673-0.332
				C5.156,28.313,4.557,28.112,4.165,27.972z"/>
		</g>
	</g>
	<g>
		<rect x="27.594" y="11.086" fill="#1F4A7E" width="11.165" height="3.173"/>
		<polygon fill="#1F4A7E" points="39.149,13.67 39.149,11.447 40.144,11.452 40.144,13.675 		"/>
		<path fill="#1F4A7E" d="M16.521,13.717c0.002-0.068,0.372-0.811,0.773-0.807c0.402,0.002,8.929,0,8.929,0v0.804l0.996,0.006
			l0.011-2.224l-1.007-0.006v0.729c0,0-8.758,0-9.021,0c-0.26-0.001-0.668-0.808-0.669-0.89c0.001-0.2-2.85,0.384-2.85,0.384
			l-0.011,1.59C13.673,13.302,16.518,13.887,16.521,13.717z"/>
	</g>
	<path fill="#1F4A7E" d="M19.428,41.36l13.334,0.031c0.409,0.83,1.217,1.398,2.147,1.404c0.978,0.014,2.168-0.586,2.577-1.463
		l-2.219-0.02c-0.496-0.004-0.896-0.369-0.891-0.813l0.008-0.7c0.002-0.443,0.41-0.802,0.906-0.8l2.219,0.021
		c-0.396-0.883-1.574-1.502-2.549-1.51c-0.975-0.011-1.818,0.59-2.229,1.463l-13.292-0.029c-0.4-0.852-1.218-1.44-2.17-1.45
		c-0.976-0.013-2.168,0.586-2.576,1.463l2.218,0.021c0.495,0.002,0.896,0.367,0.89,0.813l-0.007,0.697
		c-0.003,0.445-0.411,0.804-0.905,0.802l-2.218-0.021c0.395,0.885,1.575,1.504,2.547,1.512C18.178,42.788,19.01,42.211,19.428,41.36
		z"/>
</g>
</svg>
