<?xml version="1.0" encoding="utf-8"?>
<!-- Generator: Adobe Illustrator 19.0.0, SVG Export Plug-In . SVG Version: 6.00 Build 0)  -->
<svg version="1.1" id="Capa_1" xmlns="http://www.w3.org/2000/svg" xmlns:xlink="http://www.w3.org/1999/xlink" x="0px" y="0px"
	 viewBox="106 -106 512 512" style="enable-background:new 106 -106 512 512;" xml:space="preserve">
<style type="text/css">
	.st0{fill:#714B41;}
</style>
<g>
	<g>
		<path class="st0" d="M362-106C220.8-106,106,8.8,106,150c0,141.2,114.8,256,256,256c141.2,0,256-114.8,256-256
			C618,8.8,503.2-106,362-106z M362,363.8c-117.9,0-213.8-95.9-213.8-213.8c0-117.9,95.9-213.8,213.8-213.8S575.8,32.1,575.8,150
			C575.8,267.9,479.9,363.8,362,363.8z"/>
		<path class="st0" d="M383.1,141.6v-145c0-11.6-9.4-21.1-21.1-21.1c-11.6,0-21.1,9.4-21.1,21.1V150c0,6.5,3,12.3,7.7,16.2
			c0.2,0.2,0.3,0.5,0.5,0.7l79.1,89.8c4.2,4.7,10,7.1,15.8,7.1c4.9,0,9.9-1.7,13.9-5.3c8.7-7.7,9.6-21,1.9-29.8L383.1,141.6z"/>
	</g>
</g>
</svg>
