<?xml version="1.0" encoding="utf-8"?>
<!-- Generator: Adobe Illustrator 19.0.0, SVG Export Plug-In . SVG Version: 6.00 Build 0)  -->
<svg version="1.1" id="Layer_1" xmlns="http://www.w3.org/2000/svg" xmlns:xlink="http://www.w3.org/1999/xlink" x="0px" y="0px"
	 viewBox="0 0 200 200" style="enable-background:new 0 0 200 200;" xml:space="preserve">
<style type="text/css">
	.st0{fill:url(#XMLID_2_);}
	.st1{fill:url(#XMLID_3_);}
	.st2{fill:url(#XMLID_4_);}
	.st3{fill:url(#XMLID_18_);}
	.st4{fill:url(#XMLID_19_);}
	.st5{fill:url(#XMLID_20_);}
	.st6{fill:url(#XMLID_21_);}
	.st7{fill:url(#XMLID_22_);}
	.st8{fill:url(#XMLID_23_);}
</style>
<g id="XMLID_5_">
	<g id="Layer_2_17_">
		<g id="XMLID_6_">
			<linearGradient id="XMLID_2_" gradientUnits="userSpaceOnUse" x1="108.712" y1="173.6916" x2="120.6755" y2="185.6552">
				<stop  offset="0" style="stop-color:#9EFBD3"/>
				<stop  offset="0.2663" style="stop-color:#7EF3E1"/>
				<stop  offset="0.5538" style="stop-color:#57E9F2"/>
				<stop  offset="1" style="stop-color:#45D4FB"/>
			</linearGradient>
			<path id="XMLID_17_" class="st0" d="M115.3,172.2c-1.5,0.4-2.9,0.7-4.4,1c-3.9,0.8-6.4,4.6-5.6,8.4c0,0.2,0.1,0.4,0.2,0.6
				c1.1,3.5,4.6,5.7,8.3,4.9c1.8-0.4,3.5-0.8,5.3-1.3c3.8-1,6.1-4.9,5-8.8C123,173.4,119.1,171.2,115.3,172.2z"/>
			<linearGradient id="XMLID_3_" gradientUnits="userSpaceOnUse" x1="53.5637" y1="166.9442" x2="67.0007" y2="180.3812">
				<stop  offset="0" style="stop-color:#9EFBD3"/>
				<stop  offset="0.2663" style="stop-color:#7EF3E1"/>
				<stop  offset="0.5538" style="stop-color:#57E9F2"/>
				<stop  offset="1" style="stop-color:#45D4FB"/>
			</linearGradient>
			<path id="XMLID_16_" class="st1" d="M65.4,168.2c-1.4-0.6-2.8-1.3-4.1-2c-3.5-1.8-7.8-0.5-9.6,3c-0.9,1.7-1,3.6-0.5,5.4
				c0.5,1.8,1.8,3.3,3.5,4.3c1.6,0.8,3.2,1.6,4.9,2.4c3.6,1.6,7.8,0,9.4-3.6C70.7,174.1,69,169.8,65.4,168.2z"/>
			<linearGradient id="XMLID_4_" gradientUnits="userSpaceOnUse" x1="80.5358" y1="174.92" x2="93.398" y2="187.7822">
				<stop  offset="0" style="stop-color:#9EFBD3"/>
				<stop  offset="0.2663" style="stop-color:#7EF3E1"/>
				<stop  offset="0.5538" style="stop-color:#57E9F2"/>
				<stop  offset="1" style="stop-color:#45D4FB"/>
			</linearGradient>
			<path id="XMLID_15_" class="st2" d="M90,174.5c-1.5-0.1-3-0.3-4.5-0.5c-3.9-0.6-7.5,2.2-8.1,6.1c-0.2,1.1-0.1,2.1,0.2,3.1
				c0.8,2.6,3,4.6,5.8,5c1.8,0.3,3.6,0.5,5.4,0.6c3.9,0.3,7.4-2.6,7.7-6.5C96.9,178.3,94,174.8,90,174.5z"/>
			<linearGradient id="XMLID_18_" gradientUnits="userSpaceOnUse" x1="134.8128" y1="163.3487" x2="145.6665" y2="174.2025">
				<stop  offset="0" style="stop-color:#9EFBD3"/>
				<stop  offset="0.2663" style="stop-color:#7EF3E1"/>
				<stop  offset="0.5538" style="stop-color:#57E9F2"/>
				<stop  offset="1" style="stop-color:#45D4FB"/>
			</linearGradient>
			<path id="XMLID_14_" class="st3" d="M138.3,161.5c-1.2,0.9-2.5,1.7-3.8,2.5c-2.9,1.7-4.1,5.1-3.2,8.2c0.2,0.6,0.4,1.1,0.7,1.6
				c2,3.4,6.4,4.5,9.8,2.4c1.5-0.9,3.1-1.9,4.5-2.9c3.3-2.2,4.1-6.7,1.8-9.9C146,160.1,141.5,159.3,138.3,161.5z"/>
			<linearGradient id="XMLID_19_" gradientUnits="userSpaceOnUse" x1="155.3964" y1="144.6987" x2="165.9607" y2="155.2631">
				<stop  offset="0" style="stop-color:#9EFBD3"/>
				<stop  offset="0.2663" style="stop-color:#7EF3E1"/>
				<stop  offset="0.5538" style="stop-color:#57E9F2"/>
				<stop  offset="1" style="stop-color:#45D4FB"/>
			</linearGradient>
			<path id="XMLID_13_" class="st4" d="M166.4,142.2c-3.2-2.3-7.7-1.6-10,1.6c-0.9,1.2-1.8,2.4-2.8,3.6c-1.6,1.9-2,4.4-1.3,6.6
				c0.4,1.3,1.2,2.5,2.3,3.5c3.1,2.5,7.6,2.1,10.1-1c1.1-1.4,2.3-2.8,3.3-4.3C170.3,149,169.6,144.5,166.4,142.2z"/>
			<linearGradient id="XMLID_20_" gradientUnits="userSpaceOnUse" x1="167.7575" y1="119.5512" x2="179.4685" y2="131.2622">
				<stop  offset="0" style="stop-color:#9EFBD3"/>
				<stop  offset="0.2663" style="stop-color:#7EF3E1"/>
				<stop  offset="0.5538" style="stop-color:#57E9F2"/>
				<stop  offset="1" style="stop-color:#45D4FB"/>
			</linearGradient>
			<path id="XMLID_12_" class="st5" d="M176.4,116.2c-3.8-1.1-7.8,1.1-8.9,4.9c-0.4,1.5-0.9,2.9-1.4,4.3c-0.5,1.5-0.5,3.1-0.1,4.5
				c0.6,2.1,2.2,3.9,4.4,4.7c3.7,1.3,7.8-0.6,9.1-4.3c0.6-1.7,1.2-3.4,1.7-5.2C182.3,121.2,180.2,117.3,176.4,116.2z"/>
			<linearGradient id="XMLID_21_" gradientUnits="userSpaceOnUse" x1="33.3857" y1="36.9304" x2="137.7339" y2="141.2786">
				<stop  offset="0" style="stop-color:#9EFBD3"/>
				<stop  offset="0.2663" style="stop-color:#7EF3E1"/>
				<stop  offset="0.5538" style="stop-color:#57E9F2"/>
				<stop  offset="1" style="stop-color:#45D4FB"/>
			</linearGradient>
			<path id="XMLID_11_" class="st6" d="M189.8,69.6l-9.4,2.9c-7.1-21.8-22.1-39.8-42.5-50.7c-2-1.1-4.1-2.1-6.2-3c0,0,0,0,0,0
				c-0.1,0-0.2-0.1-0.3-0.1c-18.5-8.1-39-9.6-58.7-4.3c-0.2,0-0.3,0.1-0.5,0.1c-0.7,0.2-1.3,0.4-2,0.6c-1.1,0.3-2.2,0.7-3.2,1
				c-0.1,0-0.2,0.1-0.4,0.1c-17.5,6.1-32.5,17.3-43.1,32.2c0,0.1-0.1,0.1-0.1,0.1c-1,1.5-2.1,3-3,4.5c-0.1,0.1-0.1,0.2-0.2,0.3
				c-1,1.5-1.9,3.1-2.7,4.7C8.8,74.6,5.4,93,7.7,111.1c0,0,0,0.1,0,0.1c0,0,0,0.1,0,0.1c0.6,4.9,1.7,9.7,3.1,14.5
				c3.8,12.5,10.1,23.8,18.8,33.5c2.6,2.9,7.1,3.2,10.1,0.6c2.9-2.6,3.2-7.1,0.6-10.1c-4.3-4.8-7.9-10.2-10.8-15.9
				c0-0.1-0.1-0.1-0.1-0.2c-0.7-1.4-1.3-2.7-1.9-4.1c0,0,0,0,0,0c-1.1-2.6-2-5.2-2.9-7.9c-9.4-31.1,2.6-63.6,27.4-81.7
				c0.4-0.3,0.7-0.5,1.1-0.8c6.4-4.5,13.5-8,21.4-10.4c7.9-2.4,15.9-3.4,23.7-3.2c0.1,0,0.2,0,0.4,0c0.5,0,1,0,1.4,0.1
				c0.2,0,0.4,0,0.6,0c24.4,1.5,46.9,15.1,59.6,36.4c0,0,0,0,0,0c0.2,0.3,0.4,0.6,0.6,1c0,0,0,0.1,0.1,0.1c2.4,4.2,4.5,8.8,6,13.6
				l-9.4,2.9c-2.6,0.8-2.9,2.7-0.6,4.2l20.4,13.2c2.3,1.5,5,0.6,6.1-1.9l9.3-22.5C193.7,70.2,192.4,68.8,189.8,69.6z"/>
			<linearGradient id="XMLID_22_" gradientUnits="userSpaceOnUse" x1="51.6782" y1="83.0349" x2="94.1117" y2="125.4684">
				<stop  offset="0" style="stop-color:#9EFBD3"/>
				<stop  offset="0.2663" style="stop-color:#7EF3E1"/>
				<stop  offset="0.5538" style="stop-color:#57E9F2"/>
				<stop  offset="1" style="stop-color:#45D4FB"/>
			</linearGradient>
			<path id="XMLID_10_" class="st7" d="M69.6,100.2c-6.9,5.1-11.6,9.5-14.1,13.3c-2.5,3.7-4,7.8-4.5,12h43.1v-11.7H71.7
				c1.3-1.3,2.5-2.3,3.4-3.1c1-0.8,2.9-2.2,5.8-4.2c4.9-3.4,8.2-6.6,10.1-9.5c1.8-2.9,2.8-5.9,2.8-9c0-3-0.8-5.6-2.4-8
				c-1.6-2.4-3.8-4.2-6.6-5.3c-2.8-1.2-6.7-1.7-11.8-1.7c-4.8,0-8.6,0.6-11.4,1.8c-2.7,1.2-4.9,2.9-6.4,5.2
				c-1.5,2.3-2.5,5.4-3.1,9.5l14.4,1.2c0.4-2.9,1.2-4.9,2.3-6.1c1.2-1.2,2.7-1.7,4.5-1.7c1.8,0,3.2,0.6,4.4,1.7
				c1.2,1.1,1.7,2.5,1.7,4c0,1.5-0.6,3-1.8,4.6C76.5,94.7,73.8,97.1,69.6,100.2z"/>
			<linearGradient id="XMLID_23_" gradientUnits="userSpaceOnUse" x1="110.7788" y1="87.0386" x2="143.3322" y2="119.592">
				<stop  offset="0" style="stop-color:#9EFBD3"/>
				<stop  offset="0.2663" style="stop-color:#7EF3E1"/>
				<stop  offset="0.5538" style="stop-color:#57E9F2"/>
				<stop  offset="1" style="stop-color:#45D4FB"/>
			</linearGradient>
			<path id="XMLID_7_" class="st8" d="M137.4,125.5v-9.7h6.5v-11.1h-6.5V72.9h-12.5L98.8,104v11.8h26.2v9.7H137.4L137.4,125.5z
				 M111.1,104.7l13.8-16.3v16.3H111.1z"/>
		</g>
	</g>
</g>
</svg>
