<?xml version="1.0" encoding="utf-8"?>
<!-- Generator: Adobe Illustrator 16.0.0, SVG Export Plug-In . SVG Version: 6.00 Build 0)  -->
<!DOCTYPE svg PUBLIC "-//W3C//DTD SVG 1.1//EN" "http://www.w3.org/Graphics/SVG/1.1/DTD/svg11.dtd">
<svg version="1.1" id="Layer_1" xmlns="http://www.w3.org/2000/svg" xmlns:xlink="http://www.w3.org/1999/xlink" x="0px" y="0px"
	 width="36.709px" height="43.442px" viewBox="74.89 83.454 36.709 43.442" enable-background="new 74.89 83.454 36.709 43.442"
	 xml:space="preserve">
<g>
	<g>
		<path fill="#66BF68" d="M88.455,93.089c0-5.32,4.79-9.635,4.79-9.635s4.79,4.314,4.79,9.635c0,5.322-4.79,9.637-4.79,9.637
			S88.455,98.411,88.455,93.089z"/>
		<path fill="#66BF68" d="M106.87,104.987c3.847-2.482,4.729-7.957,4.729-7.957s-5.352-1.449-9.198,1.033
			c-3.845,2.482-4.729,7.956-4.729,7.956S103.023,107.47,106.87,104.987z"/>
		<path fill="#66BF68" d="M104.642,118.928c2.49,0.519,4.963-1.368,4.963-1.368s-1.564-2.729-4.057-3.248
			c-2.49-0.52-4.963,1.367-4.963,1.367S102.151,118.408,104.642,118.928z"/>
	</g>
	<g>
		<path fill="#66BF68" d="M79.62,104.987c-3.847-2.482-4.73-7.957-4.73-7.957s5.352-1.449,9.199,1.033
			c3.845,2.482,4.729,7.956,4.729,7.956S83.467,107.47,79.62,104.987z"/>
		<path fill="#66BF68" d="M81.848,118.928c-2.491,0.519-4.962-1.368-4.962-1.368s1.564-2.729,4.056-3.248
			c2.489-0.52,4.962,1.367,4.962,1.367S84.339,118.408,81.848,118.928z"/>
	</g>
	<path fill="#66BF68" d="M93.245,123.796c3.397,0,7.022,3.101,7.022,3.101s-4.652-6.325-3.064-12.044
		c0.905-3.266,9.275-5.07,9.275-5.07s-8.178,1.363-10.679-0.773c-2.523-2.154-2.555-6.283-2.555-6.283s-0.031,4.129-2.554,6.283
		c-2.501,2.137-10.678,0.773-10.678,0.773s8.37,1.805,9.275,5.07c1.588,5.719-3.064,12.044-3.064,12.044
		S89.848,123.796,93.245,123.796z"/>
</g>
</svg>
