<?xml version="1.0" encoding="utf-8"?>
<!-- Generator: Adobe Illustrator 16.0.0, SVG Export Plug-In . SVG Version: 6.00 Build 0)  -->
<!DOCTYPE svg PUBLIC "-//W3C//DTD SVG 1.1//EN" "http://www.w3.org/Graphics/SVG/1.1/DTD/svg11.dtd">
<svg version="1.1" id="Layer_1" xmlns="http://www.w3.org/2000/svg" xmlns:xlink="http://www.w3.org/1999/xlink" x="0px" y="0px"
	 width="55.421px" height="54.876px" viewBox="1.088 -3.667 55.421 54.876" enable-background="new 1.088 -3.667 55.421 54.876"
	 xml:space="preserve">
<g>
	<path fill="#1C4A4F" d="M56.405,26.08c0.063-0.762,0.104-1.531,0.104-2.313c0-0.782-0.039-1.551-0.104-2.314l-3-1.266
		c-0.19-1.328-0.485-2.623-0.881-3.875l2.158-2.441c-0.558-1.453-1.229-2.846-2.013-4.168l-3.25,0.162
		c-0.746-1.102-1.578-2.133-2.481-3.099l0.883-3.139c-1.12-1.062-2.327-2.032-3.612-2.894l-2.867,1.563
		c-1.137-0.665-2.332-1.243-3.569-1.725l-0.563-3.215c-1.457-0.463-2.971-0.806-4.52-1.023l-1.902,2.654
		c-0.656-0.052-1.313-0.086-1.983-0.086c-0.667,0-1.324,0.034-1.979,0.086l-1.905-2.652c-1.55,0.218-3.059,0.563-4.515,1.023
		L19.84,0.575C18.596,1.054,17.4,1.634,16.264,2.3l-2.869-1.564c-1.286,0.861-2.492,1.832-3.614,2.893l0.886,3.139
		C9.758,7.732,8.924,8.765,8.183,9.865L4.927,9.703c-0.781,1.322-1.455,2.715-2.011,4.168l2.158,2.443
		c-0.394,1.25-0.687,2.545-0.879,3.872l-3.003,1.267c-0.063,0.764-0.104,1.533-0.104,2.314c0,0.78,0.041,1.551,0.104,2.313
		l3.004,1.271c0.191,1.325,0.484,2.618,0.878,3.872l-2.158,2.439c0.556,1.451,1.229,2.848,2.011,4.166l3.256-0.164
		c0.741,1.104,1.575,2.137,2.479,3.104l-0.885,3.143c1.122,1.063,2.328,2.026,3.614,2.893l2.869-1.563
		c1.137,0.666,2.332,1.241,3.574,1.727l0.563,3.221c1.456,0.463,2.964,0.811,4.515,1.021l1.904-2.65
		c0.655,0.055,1.314,0.086,1.982,0.086c0.668,0,1.326-0.031,1.979-0.086l1.904,2.65c1.549-0.217,3.061-0.563,4.513-1.021
		l0.563-3.219c1.244-0.479,2.438-1.061,3.574-1.725l2.867,1.563c1.282-0.857,2.488-1.834,3.609-2.896l-0.885-3.144
		c0.9-0.968,1.734-1.996,2.479-3.103l3.253,0.164c0.781-1.32,1.453-2.715,2.012-4.166l-2.153-2.443
		c0.396-1.25,0.688-2.543,0.879-3.872L56.405,26.08z"/>
	<g>
		<rect x="30.1" y="7.94" fill="#FAA51E" width="11.165" height="3.174"/>
		<polygon fill="#FAA51E" points="41.656,10.524 41.656,8.301 42.65,8.307 42.65,10.53 		"/>
		<path fill="#FAA51E" d="M19.028,10.571c0.002-0.067,0.371-0.811,0.772-0.807c0.401,0.002,8.929,0,8.929,0v0.805l0.996,0.006
			l0.012-2.225l-1.008-0.006v0.729c0,0-8.758,0-9.021,0c-0.261,0-0.668-0.807-0.669-0.889c0.001-0.201-2.85,0.383-2.85,0.383
			l-0.012,1.59C16.179,10.157,19.024,10.742,19.028,10.571z"/>
	</g>
	<path fill="#FAA51E" d="M22.031,39.082l13.336,0.028c0.407,0.83,1.217,1.397,2.146,1.404c0.979,0.014,2.168-0.586,2.574-1.464
		l-2.219-0.021c-0.496-0.004-0.896-0.368-0.893-0.813l0.008-0.7c0.002-0.443,0.41-0.802,0.906-0.8l2.219,0.021
		c-0.396-0.883-1.572-1.502-2.549-1.51c-0.977-0.011-1.816,0.59-2.229,1.463L22.04,36.663c-0.4-0.854-1.219-1.438-2.17-1.449
		c-0.977-0.016-2.168,0.586-2.576,1.465l2.218,0.021c0.495,0.002,0.896,0.365,0.89,0.813l-0.007,0.695
		c-0.003,0.443-0.411,0.807-0.905,0.805l-2.218-0.021c0.396,0.888,1.575,1.507,2.547,1.515
		C20.781,40.507,21.614,39.932,22.031,39.082z"/>
</g>
<g>
	<g>
		<path fill="#FAA51E" d="M49.201,28.018h-3.488c0.313,0.438,0.537,0.979,0.646,1.525h2.844c0.324-0.224,0.311-0.463,0.322-0.652
			C49.558,28.452,49.201,28.018,49.201,28.018z"/>
		<path fill="#FAA51E" d="M39.335,28.018H32.15v-0.586h1.659v-9.009c0,0-0.392-2.176-0.812-3.806
			c-0.349-0.862-1.479-0.862-1.479-0.862c-2.951,0.248-4.562,0.601-6.623,1.217c-3.694,1.104-5.693,2.887-5.694,2.887l-0.842,0.777
			c0.219,0.328,0.427,0.569,0.427,0.569c-1.516,1.267-3.131,3.063-3.131,3.063s-1.232,0.173-3.13,0.443
			c-2.685,0.382-4.216,1.022-4.216,1.022L7.847,28.1c0,0-0.085,0.953-0.704,1.535c-0.213,0.199-0.217,0.695,0.291,0.525
			c1.427-0.494,1.186-2.609,3.414-3.146c0.385-0.124,0.796-0.194,1.225-0.194c2.195,0,3.982,1.785,3.982,3.984
			c0,0.163-0.013,0.327-0.031,0.487l17.743-0.121c0.314-0.664,0.273-1.631,0.273-1.631h4.644
			C38.802,28.995,39.025,28.456,39.335,28.018z"/>
		<path fill="#FAA51E" d="M12.069,27.613c1.743,0,3.154,1.415,3.154,3.158c0,1.742-1.411,3.155-3.154,3.155
			c-1.748,0-3.159-1.413-3.159-3.155C8.911,29.027,10.322,27.613,12.069,27.613z"/>
		<path fill="#FAA51E" d="M44.762,28.04c-0.573-0.574-1.367-0.927-2.237-0.927c-0.876,0-1.667,0.354-2.238,0.927
			c-0.396,0.4-0.681,0.908-0.822,1.473c-0.062,0.248-0.104,0.498-0.104,0.766c0,1.746,1.42,3.162,3.167,3.162
			c1.744,0,3.159-1.416,3.159-3.162c0-0.266-0.041-0.518-0.104-0.766C45.443,28.95,45.158,28.438,44.762,28.04z"/>
	</g>
</g>
</svg>
