<?xml version="1.0" encoding="utf-8"?>
<!-- Generator: Adobe Illustrator 16.0.0, SVG Export Plug-In . SVG Version: 6.00 Build 0)  -->
<!DOCTYPE svg PUBLIC "-//W3C//DTD SVG 1.1//EN" "http://www.w3.org/Graphics/SVG/1.1/DTD/svg11.dtd">
<svg version="1.1" id="Layer_1" xmlns="http://www.w3.org/2000/svg" xmlns:xlink="http://www.w3.org/1999/xlink" x="0px" y="0px"
	 width="55.14px" height="54.578px" viewBox="7.238 -0.641 55.14 54.578" enable-background="new 7.238 -0.641 55.14 54.578"
	 xml:space="preserve">
<g>
	<path fill="#662709" d="M51.887,28.57c0,0-1.305-1.406-3.777-2.188c-1.129-1.25-2.783-2.426-4.677-2.426
		c-0.502,0-0.987,0.064-1.456,0.174C41.988,24.268,42,24.405,42,24.545c0,1.575-0.577,3.014-1.524,4.125
		c0.226-0.648,0.354-1.343,0.354-2.067c0-3.509-2.848-6.354-6.354-6.354c-1.937,0-3.662,0.866-4.827,2.229
		c-0.158,0.186-0.312,0.377-0.443,0.579c2.142,1.022,3.625,3.201,3.625,5.732c0,0.689-0.113,1.354-0.316,1.975
		c0.013-0.146,0.021-0.301,0.021-0.453c0-3.51-2.846-6.354-6.354-6.354c-1.895,0-3.416,0.931-4.012,1.525
		c-0.982,0.979-1.358,2.182-1.358,2.182s-1.313,0.026-2.737,1.206c-1.425,1.18-1.956,3.128-1.326,4.868
		c0.629,1.74,2.281,2.896,4.134,2.893H48.73c1.852,0.005,3.504-1.152,4.133-2.893C53.493,31.999,53.312,29.749,51.887,28.57z"/>
	<polygon fill="#662709" points="18.334,20.707 19.071,22.444 20.808,23.18 19.071,23.917 18.334,25.655 17.598,23.917 15.86,23.18 
		17.598,22.444 	"/>
	<polygon fill="#662709" points="50.583,20.707 51.32,22.444 53.057,23.18 51.32,23.917 50.583,25.655 49.847,23.917 48.11,23.18 
		49.847,22.444 	"/>
	<polygon fill="#662709" points="42,17.081 42.426,18.089 43.434,18.516 42.426,18.943 42,19.951 41.572,18.943 40.564,18.516 
		41.572,18.089 	"/>
	<polygon fill="#662709" points="26.174,17.081 26.601,18.089 27.609,18.516 26.601,18.943 26.174,19.951 25.747,18.943 
		24.74,18.516 25.747,18.089 	"/>
	<path fill="#CD8812" d="M56.785,14.425c-0.414,0.852,0.021,1.919,0.938,2.45c0.901,0.448,4.637,0.999,4.652,1.068
		c0.063-0.011-1.832-3.467-2.938-4.036C58.403,13.309,57.199,13.575,56.785,14.425z"/>
	<path fill="#CD8812" d="M55.454,15.003c-0.662,0.174-1.042,0.912-0.902,1.664c0.184,0.706,1.64,3.011,1.606,3.053
		c0.034,0.031,1.035-2.636,0.825-3.509C56.826,15.363,56.114,14.829,55.454,15.003z"/>
	<path fill="#CD8812" d="M54.317,10.29c0.116,0.971,0.933,1.815,1.896,1.97c0.952,0.122,3.928-1.023,3.938-1.007
		c0.032-0.056-3.227-2.565-4.27-2.596C54.865,8.554,54.201,9.322,54.317,10.29z"/>
	<path fill="#CD8812" d="M53.047,11.543c-0.932-0.217-1.724,0.416-1.837,1.32c-0.051,0.903,0.905,3.979,0.854,3.987
		c0.012,0.017,2.271-2.166,2.417-3.132C54.65,12.777,53.978,11.759,53.047,11.543z"/>
	<path fill="#CD8812" d="M59.073,31.573c-0.357-0.066-0.701,0.17-0.771,0.528C55.781,45.704,42.66,54.713,29.06,52.195
		C15.459,49.673,6.445,36.555,8.967,22.952C10.45,14.955,15.6,8.547,22.354,5.134c0.092-0.047,0.185-0.095,0.272-0.14
		c4.671-2.29,10.087-3.155,15.583-2.136c0.49,0.091,0.979,0.198,1.459,0.317c-0.078,0.023-0.155,0.044-0.229,0.078
		c-0.881,0.403-1.107,1.39-0.625,2.175c0.54,0.745,3.225,2.583,3.186,2.618c0.021,0.007,0.443-3.109-0.048-3.96
		c-0.061-0.108-0.132-0.209-0.211-0.302c1.075,0.367,2.123,0.805,3.138,1.312c-0.141,0.004-0.273,0.02-0.411,0.058
		c-0.926,0.259-1.313,1.196-0.969,2.044c0.397,0.818,2.729,3.05,2.686,3.079c0.02,0.009,0.942-2.995,0.604-3.91
		c-0.035-0.104-0.083-0.204-0.141-0.299c0.872,0.528,1.711,1.109,2.516,1.741c-0.026,0.002-0.057,0.002-0.082,0.005
		c-0.951,0.109-1.48,0.972-1.285,1.862c0.259,0.869,2.188,3.438,2.146,3.459c0.018,0.014,1.413-2.803,1.225-3.759
		c-0.001-0.002-0.002-0.004-0.002-0.007c1.834,1.759,3.432,3.823,4.698,6.175c0.174,0.32,0.573,0.44,0.896,0.267
		c0.32-0.173,0.438-0.573,0.27-0.893c-1.437-2.654-3.265-4.958-5.37-6.892c0.18,0.048,0.359,0.079,0.547,0.079
		c0.958-0.033,3.703-1.643,3.719-1.628c0.021-0.059-3.582-2.007-4.618-1.872c-1.021,0.062-1.554,0.925-1.283,1.862
		c0.022,0.084,0.06,0.165,0.094,0.245c-0.813-0.639-1.663-1.225-2.541-1.76c0.016-0.002,0.027-0.001,0.043-0.003
		c0.939-0.185,3.396-2.213,3.412-2.2c0.019-0.061-3.866-1.414-4.875-1.117c-0.994,0.221-1.382,1.144-0.979,2.021
		c-0.861-0.411-1.744-0.779-2.646-1.095c0.004-0.001,0.01-0.001,0.016-0.003c0.905-0.331,3.013-2.725,3.027-2.715
		c0.01-0.063-4.077-0.786-5.039-0.332c-0.965,0.379-1.191,1.367-0.626,2.174c0.034,0.049,0.077,0.092,0.115,0.137
		c-5.854-1.429-12.21-0.867-17.975,1.998c-0.079,0.039-0.157,0.08-0.236,0.12c-0.188,0.097-0.381,0.187-0.566,0.289l0.004,0.007
		C14.395,7.888,9.205,14.504,7.682,22.711c-2.653,14.316,6.833,28.125,21.148,30.78c14.311,2.653,28.118-6.833,30.771-21.151
		C59.667,31.982,59.431,31.639,59.073,31.573z"/>
</g>
</svg>
