<?xml version="1.0" encoding="utf-8"?>
<!-- Generator: Adobe Illustrator 16.0.0, SVG Export Plug-In . SVG Version: 6.00 Build 0)  -->
<!DOCTYPE svg PUBLIC "-//W3C//DTD SVG 1.1//EN" "http://www.w3.org/Graphics/SVG/1.1/DTD/svg11.dtd">
<svg version="1.1" id="Layer_1" xmlns="http://www.w3.org/2000/svg" xmlns:xlink="http://www.w3.org/1999/xlink" x="0px" y="0px"
	 width="229.348px" height="173.718px" viewBox="0 0 229.348 173.718" enable-background="new 0 0 229.348 173.718"
	 xml:space="preserve">
<g>
	<polygon fill="#E2DFDE" points="0.001,57.269 114.675,26.847 114.675,3.81 0.001,34.231 	"/>
	<polygon fill="#007AFF" points="114.675,3.81 114.675,26.847 0,57.269 114.675,87.689 229.346,57.269 229.346,34.231 	"/>
	<polygon fill="#E2DFDE" points="0.001,102.188 114.675,71.768 114.675,48.729 0.001,79.15 	"/>
	<polygon fill="#0C62AF" points="114.675,48.729 114.675,71.768 0,102.188 114.675,132.61 229.346,102.188 229.346,79.15 	"/>
	<polygon fill="#E2DFDE" points="0.001,147.108 114.675,116.687 114.675,93.649 0.001,124.071 	"/>
	<polygon fill="#162C43" points="114.675,93.649 114.675,116.687 0,147.108 114.675,177.528 229.346,147.108 229.346,124.071 	"/>
</g>
</svg>
