<?xml version="1.0" encoding="utf-8"?>
<!-- Generator: Adobe Illustrator 19.0.0, SVG Export Plug-In . SVG Version: 6.00 Build 0)  -->
<svg version="1.1" id="Capa_1" xmlns="http://www.w3.org/2000/svg" xmlns:xlink="http://www.w3.org/1999/xlink" x="0px" y="0px"
	 viewBox="-41 164.9 512 512" style="enable-background:new -41 164.9 512 512;" xml:space="preserve">
<style type="text/css">
	.st0{fill:url(#SVGID_1_);}
	.st1{fill:url(#SVGID_2_);}
</style>
<g>
	<g>
		<linearGradient id="SVGID_1_" gradientUnits="userSpaceOnUse" x1="36.1875" y1="599.7025" x2="393.8125" y2="242.0775">
			<stop  offset="0" style="stop-color:#007A9B"/>
			<stop  offset="0.5074" style="stop-color:#0C629B"/>
			<stop  offset="1" style="stop-color:#162C43"/>
		</linearGradient>
		<path class="st0" d="M215,167.9c-139.5,0-253,113.5-253,253s113.5,253,253,253s253-113.5,253-253S354.5,167.9,215,167.9z
			 M215,632.2C98.5,632.2,3.7,537.4,3.7,420.9S98.5,209.6,215,209.6s211.3,94.8,211.3,211.3S331.5,632.2,215,632.2z"/>
		<linearGradient id="SVGID_2_" gradientUnits="userSpaceOnUse" x1="200.1823" y1="446.1049" x2="310.7799" y2="335.5073">
			<stop  offset="0" style="stop-color:#007A9B"/>
			<stop  offset="0.5074" style="stop-color:#0C629B"/>
			<stop  offset="1" style="stop-color:#162C43"/>
		</linearGradient>
		<path class="st1" d="M235.9,412.6V269.3c0-11.5-9.3-20.9-20.9-20.9c-11.5,0-20.9,9.3-20.9,20.9v151.6c0,6.4,3,12.2,7.6,16
			c0.2,0.2,0.3,0.5,0.5,0.7l78.2,88.7c4.2,4.6,9.9,7,15.6,7c4.8,0,9.8-1.7,13.7-5.2c8.6-7.6,9.5-20.8,1.9-29.5L235.9,412.6z"/>
	</g>
</g>
</svg>
