<?xml version="1.0" encoding="utf-8"?>
<!-- Generator: Adobe Illustrator 19.0.0, SVG Export Plug-In . SVG Version: 6.00 Build 0)  -->
<svg version="1.1" id="Layer_1" xmlns="http://www.w3.org/2000/svg" xmlns:xlink="http://www.w3.org/1999/xlink" x="0px" y="0px"
	 viewBox="-379 181 200 200" style="enable-background:new -379 181 200 200;" xml:space="preserve">
<style type="text/css">
	.st0{fill:url(#XMLID_2_);}
	.st1{fill:url(#XMLID_3_);}
	.st2{fill:url(#XMLID_4_);}
	.st3{fill:url(#XMLID_8_);}
	.st4{fill:url(#XMLID_9_);}
	.st5{fill:url(#XMLID_18_);}
	.st6{fill:url(#XMLID_19_);}
	.st7{fill:url(#XMLID_20_);}
	.st8{fill:url(#XMLID_21_);}
</style>
<g id="XMLID_5_">
	<g id="Layer_2_17_">
		<g id="XMLID_6_">
			<linearGradient id="XMLID_2_" gradientUnits="userSpaceOnUse" x1="-270.2044" y1="354.6147" x2="-258.2744" y2="366.5448">
				<stop  offset="0" style="stop-color:#2ABDD8"/>
				<stop  offset="0.5172" style="stop-color:#79D6CA"/>
				<stop  offset="1" style="stop-color:#D0F1DB"/>
			</linearGradient>
			<path id="XMLID_17_" class="st0" d="M-263.7,353.2c-1.5,0.4-2.9,0.7-4.4,1c-3.9,0.8-6.4,4.6-5.6,8.4c0,0.2,0.1,0.4,0.2,0.6
				c1.1,3.5,4.6,5.7,8.3,4.9c1.8-0.4,3.5-0.8,5.3-1.3c3.8-1,6.1-4.9,5-8.8C-256,354.4-259.9,352.2-263.7,353.2z"/>
			<linearGradient id="XMLID_3_" gradientUnits="userSpaceOnUse" x1="-325.4693" y1="347.8928" x2="-311.9939" y2="361.3682">
				<stop  offset="0" style="stop-color:#2ABDD8"/>
				<stop  offset="0.5172" style="stop-color:#79D6CA"/>
				<stop  offset="1" style="stop-color:#D0F1DB"/>
			</linearGradient>
			<path id="XMLID_16_" class="st1" d="M-313.6,349.2c-1.4-0.6-2.8-1.3-4.1-2c-3.5-1.8-7.8-0.5-9.6,3c-0.9,1.7-1,3.6-0.5,5.4
				c0.5,1.8,1.8,3.3,3.5,4.3c1.6,0.8,3.2,1.6,4.9,2.4c3.6,1.6,7.8,0,9.4-3.6C-308.3,355.1-310,350.8-313.6,349.2z"/>
			<linearGradient id="XMLID_4_" gradientUnits="userSpaceOnUse" x1="-298.4765" y1="355.9576" x2="-285.6351" y2="368.799">
				<stop  offset="0" style="stop-color:#2ABDD8"/>
				<stop  offset="0.5172" style="stop-color:#79D6CA"/>
				<stop  offset="1" style="stop-color:#D0F1DB"/>
			</linearGradient>
			<path id="XMLID_15_" class="st2" d="M-289,355.5c-1.5-0.1-3-0.3-4.5-0.5c-3.9-0.6-7.5,2.2-8.1,6.1c-0.2,1.1-0.1,2.1,0.2,3.1
				c0.8,2.6,3,4.6,5.8,5c1.8,0.3,3.6,0.5,5.4,0.6c3.9,0.3,7.4-2.6,7.7-6.5C-282.1,359.3-285,355.8-289,355.5z"/>
			<linearGradient id="XMLID_8_" gradientUnits="userSpaceOnUse" x1="-244.2122" y1="344.3852" x2="-233.4018" y2="355.1956">
				<stop  offset="0" style="stop-color:#2ABDD8"/>
				<stop  offset="0.5172" style="stop-color:#79D6CA"/>
				<stop  offset="1" style="stop-color:#D0F1DB"/>
			</linearGradient>
			<path id="XMLID_14_" class="st3" d="M-240.7,342.5c-1.2,0.9-2.5,1.7-3.8,2.5c-2.9,1.7-4.1,5.1-3.2,8.2c0.2,0.6,0.4,1.1,0.7,1.6
				c2,3.4,6.4,4.5,9.8,2.4c1.5-0.9,3.1-1.9,4.5-2.9c3.3-2.2,4.1-6.7,1.8-9.9C-233,341.1-237.5,340.3-240.7,342.5z"/>
			<linearGradient id="XMLID_9_" gradientUnits="userSpaceOnUse" x1="-223.6118" y1="325.6797" x2="-213.0166" y2="336.2749">
				<stop  offset="0" style="stop-color:#2ABDD8"/>
				<stop  offset="0.5172" style="stop-color:#79D6CA"/>
				<stop  offset="1" style="stop-color:#D0F1DB"/>
			</linearGradient>
			<path id="XMLID_13_" class="st4" d="M-212.6,323.2c-3.2-2.3-7.7-1.6-10,1.6c-0.9,1.2-1.8,2.4-2.8,3.6c-1.6,1.9-2,4.4-1.3,6.6
				c0.4,1.3,1.2,2.5,2.3,3.5c3.1,2.5,7.6,2.1,10.1-1c1.1-1.4,2.3-2.8,3.3-4.3C-208.7,330-209.4,325.5-212.6,323.2z"/>
			<linearGradient id="XMLID_18_" gradientUnits="userSpaceOnUse" x1="-211.2511" y1="300.5954" x2="-199.5363" y2="312.3102">
				<stop  offset="0" style="stop-color:#2ABDD8"/>
				<stop  offset="0.5172" style="stop-color:#79D6CA"/>
				<stop  offset="1" style="stop-color:#D0F1DB"/>
			</linearGradient>
			<path id="XMLID_12_" class="st5" d="M-202.6,297.2c-3.8-1.1-7.8,1.1-8.9,4.9c-0.4,1.5-0.9,2.9-1.4,4.3c-0.5,1.5-0.5,3.1-0.1,4.5
				c0.6,2.1,2.2,3.9,4.4,4.7c3.7,1.3,7.8-0.6,9.1-4.3c0.6-1.7,1.2-3.4,1.7-5.2C-196.7,302.2-198.8,298.3-202.6,297.2z"/>
			<linearGradient id="XMLID_19_" gradientUnits="userSpaceOnUse" x1="-345.6673" y1="217.8459" x2="-241.2202" y2="322.293">
				<stop  offset="0" style="stop-color:#2ABDD8"/>
				<stop  offset="0.5172" style="stop-color:#79D6CA"/>
				<stop  offset="1" style="stop-color:#D0F1DB"/>
			</linearGradient>
			<path id="XMLID_11_" class="st6" d="M-189.2,250.6l-9.4,2.9c-7.1-21.8-22.1-39.8-42.5-50.7c-2-1.1-4.1-2.1-6.2-3l0,0
				c-0.1,0-0.2-0.1-0.3-0.1c-18.5-8.1-39-9.6-58.7-4.3c-0.2,0-0.3,0.1-0.5,0.1c-0.7,0.2-1.3,0.4-2,0.6c-1.1,0.3-2.2,0.7-3.2,1
				c-0.1,0-0.2,0.1-0.4,0.1c-17.5,6.1-32.5,17.3-43.1,32.2c0,0.1-0.1,0.1-0.1,0.1c-1,1.5-2.1,3-3,4.5c-0.1,0.1-0.1,0.2-0.2,0.3
				c-1,1.5-1.9,3.1-2.7,4.7c-8.7,16.6-12.1,35-9.8,53.1v0.1v0.1c0.6,4.9,1.7,9.7,3.1,14.5c3.8,12.5,10.1,23.8,18.8,33.5
				c2.6,2.9,7.1,3.2,10.1,0.6c2.9-2.6,3.2-7.1,0.6-10.1c-4.3-4.8-7.9-10.2-10.8-15.9c0-0.1-0.1-0.1-0.1-0.2
				c-0.7-1.4-1.3-2.7-1.9-4.1l0,0c-1.1-2.6-2-5.2-2.9-7.9c-9.4-31.1,2.6-63.6,27.4-81.7c0.4-0.3,0.7-0.5,1.1-0.8
				c6.4-4.5,13.5-8,21.4-10.4c7.9-2.4,15.9-3.4,23.7-3.2c0.1,0,0.2,0,0.4,0c0.5,0,1,0,1.4,0.1c0.2,0,0.4,0,0.6,0
				c24.4,1.5,46.9,15.1,59.6,36.4l0,0c0.2,0.3,0.4,0.6,0.6,1c0,0,0,0.1,0.1,0.1c2.4,4.2,4.5,8.8,6,13.6l-9.4,2.9
				c-2.6,0.8-2.9,2.7-0.6,4.2l20.4,13.2c2.3,1.5,5,0.6,6.1-1.9l9.3-22.5C-185.3,251.2-186.6,249.8-189.2,250.6z"/>
			<linearGradient id="XMLID_20_" gradientUnits="userSpaceOnUse" x1="-327.2651" y1="264.0867" x2="-284.8759" y2="306.4759">
				<stop  offset="0" style="stop-color:#2ABDD8"/>
				<stop  offset="0.5172" style="stop-color:#79D6CA"/>
				<stop  offset="1" style="stop-color:#D0F1DB"/>
			</linearGradient>
			<path id="XMLID_10_" class="st7" d="M-309.4,281.2c-6.9,5.1-11.6,9.5-14.1,13.3c-2.5,3.7-4,7.8-4.5,12h43.1v-11.7h-22.4
				c1.3-1.3,2.5-2.3,3.4-3.1c1-0.8,2.9-2.2,5.8-4.2c4.9-3.4,8.2-6.6,10.1-9.5c1.8-2.9,2.8-5.9,2.8-9c0-3-0.8-5.6-2.4-8
				c-1.6-2.4-3.8-4.2-6.6-5.3c-2.8-1.2-6.7-1.7-11.8-1.7c-4.8,0-8.6,0.6-11.4,1.8c-2.7,1.2-4.9,2.9-6.4,5.2
				c-1.5,2.3-2.5,5.4-3.1,9.5l14.4,1.2c0.4-2.9,1.2-4.9,2.3-6.1c1.2-1.2,2.7-1.7,4.5-1.7c1.8,0,3.2,0.6,4.4,1.7
				c1.2,1.1,1.7,2.5,1.7,4s-0.6,3-1.8,4.6C-302.5,275.7-305.2,278.1-309.4,281.2z"/>
			<linearGradient id="XMLID_21_" gradientUnits="userSpaceOnUse" x1="-268.225" y1="268.025" x2="-235.675" y2="300.575">
				<stop  offset="0" style="stop-color:#2ABDD8"/>
				<stop  offset="0.5172" style="stop-color:#79D6CA"/>
				<stop  offset="1" style="stop-color:#D0F1DB"/>
			</linearGradient>
			<path id="XMLID_7_" class="st8" d="M-241.6,306.5v-9.7h6.5v-11.1h-6.5v-31.8h-12.5l-26.1,31.1v11.8h26.2v9.7H-241.6L-241.6,306.5
				z M-267.9,285.7l13.8-16.3v16.3H-267.9z"/>
		</g>
	</g>
</g>
</svg>
