<?xml version="1.0" encoding="utf-8"?>
<!-- Generator: Adobe Illustrator 16.0.0, SVG Export Plug-In . SVG Version: 6.00 Build 0)  -->
<!DOCTYPE svg PUBLIC "-//W3C//DTD SVG 1.1//EN" "http://www.w3.org/Graphics/SVG/1.1/DTD/svg11.dtd">
<svg version="1.1" id="Layer_1" xmlns="http://www.w3.org/2000/svg" xmlns:xlink="http://www.w3.org/1999/xlink" x="0px" y="0px"
	 width="27.011px" height="23.004px" viewBox="-1.346 -0.001 27.011 23.004" enable-background="new -1.346 -0.001 27.011 23.004"
	 xml:space="preserve">
<g id="Layer_1_1_">
	<g>
		<path fill="#0E3F42" d="M6.349,12.546l-0.168-1.561l3.818-5.018L1.352-0.001l-2.663,17.004c-0.354,3.313,2.04,6,5.354,6h10.545
			c0.597,0,1.186-0.062,1.76-0.178L6.349,12.546z"/>
		<polygon fill="#2EC1DC" points="19.407,7.375 19.188,8.842 24.432,11.465 25.665,0 5.534,0 13.536,4.868 		"/>
		<polygon fill="#FFFFFF" points="6.181,10.986 6.349,12.546 19.188,8.842 19.407,7.375 13.536,4.868 5.534,0 1.352,0 9.999,5.969 
					"/>
	</g>
	<path fill="#00AB95" d="M24.431,11.465l-0.574,5.352c-0.524,3.291-4.313,5.57-7.509,6.012L6.349,12.546l12.839-3.704L24.431,11.465
		z"/>
</g>
<g id="Layer_2">
</g>
</svg>
