<?xml version="1.0" encoding="utf-8"?>
<!-- Generator: Adobe Illustrator 16.0.0, SVG Export Plug-In . SVG Version: 6.00 Build 0)  -->
<!DOCTYPE svg PUBLIC "-//W3C//DTD SVG 1.1//EN" "http://www.w3.org/Graphics/SVG/1.1/DTD/svg11.dtd">
<svg version="1.1" id="Layer_1" xmlns="http://www.w3.org/2000/svg" xmlns:xlink="http://www.w3.org/1999/xlink" x="0px" y="0px"
	 width="122.817px" height="103.605px" viewBox="3.029 0 122.817 103.605" enable-background="new 3.029 0 122.817 103.605"
	 xml:space="preserve">
<g>
	<g>
		<polygon fill="#2076B7" points="125.846,60.302 100.846,17.001 82.507,17.001 107.508,60.302 82.507,103.603 100.846,103.603 		
			"/>
	</g>
	<g>
		<polygon fill="#2076B7" points="75.598,103.603 100.597,60.302 91.428,44.422 66.429,87.722 16.428,87.722 25.597,103.605 		"/>
	</g>
	<g>
		<polygon fill="#2076B7" points="38.393,44.811 36.098,40.839 38.393,36.864 42.98,36.864 45.277,40.839 42.98,44.811 		"/>
		<rect x="38.392" y="8.067" fill="#2076B7" width="4.588" height="28.799"/>
		<polygon fill="#2076B7" points="41.89,11.036 38.392,8.067 45.266,0 48.767,2.969 		"/>
		<polygon fill="#2076B7" points="42.871,25.824 39.373,22.854 46.247,14.786 49.748,17.754 		"/>
		<polygon fill="#2076B7" points="39.481,11.036 42.98,8.067 36.104,0 32.606,2.969 		"/>
		<polygon fill="#2076B7" points="38.499,25.824 41.998,22.854 35.122,14.786 31.624,17.754 		"/>
		
			<rect x="54.31" y="17.243" transform="matrix(-0.4998 -0.8661 0.8661 -0.4998 57.4893 96.483)" fill="#2076B7" width="4.588" height="28.798"/>
		<polygon fill="#2076B7" points="67.097,26.979 67.919,22.466 78.343,24.385 77.523,28.901 		"/>
		<polygon fill="#2076B7" points="54.781,35.223 55.604,30.71 66.029,32.629 65.208,37.144 		"/>
		<polygon fill="#2076B7" points="65.892,24.893 70.213,26.439 73.761,16.451 69.442,14.905 		"/>
		<polygon fill="#2076B7" points="52.595,31.438 56.916,32.983 60.466,22.994 56.147,21.447 		"/>
		
			<rect x="54.293" y="35.615" transform="matrix(0.5001 -0.866 0.866 0.5001 -15.0217 74.0086)" fill="#2076B7" width="4.587" height="28.799"/>
		<polygon fill="#2076B7" points="65.897,56.782 70.217,55.237 73.766,65.225 69.446,66.772 		"/>
		<polygon fill="#2076B7" points="52.599,50.237 56.92,48.694 60.47,58.682 56.149,60.229 		"/>
		<polygon fill="#2076B7" points="67.101,54.696 67.922,59.212 78.346,57.29 77.525,52.776 		"/>
		<polygon fill="#2076B7" points="54.783,46.453 55.607,50.968 66.032,49.048 65.211,44.534 		"/>
		
			<rect x="22.494" y="17.246" transform="matrix(0.5 -0.866 0.866 0.5 -15.0102 37.2905)" fill="#2076B7" width="4.588" height="28.796"/>
		<polygon fill="#2076B7" points="14.278,26.979 13.455,22.466 3.031,24.385 3.852,28.901 		"/>
		<polygon fill="#2076B7" points="26.594,35.223 25.771,30.71 15.346,32.629 16.166,37.144 		"/>
		<polygon fill="#2076B7" points="15.483,24.893 11.161,26.439 7.615,16.451 11.933,14.905 		"/>
		<polygon fill="#2076B7" points="28.78,31.438 24.458,32.983 20.908,22.994 25.228,21.447 		"/>
		
			<rect x="22.491" y="35.637" transform="matrix(-0.5001 -0.866 0.866 -0.5001 -6.1532 96.5204)" fill="#2076B7" width="4.587" height="28.798"/>
		<polygon fill="#2076B7" points="15.478,56.782 11.157,55.237 7.609,65.225 11.929,66.772 		"/>
		<polygon fill="#2076B7" points="28.776,50.237 24.454,48.694 20.905,58.682 25.226,60.229 		"/>
		<polygon fill="#2076B7" points="14.274,54.696 13.452,59.212 3.029,57.29 3.85,52.776 		"/>
		<polygon fill="#2076B7" points="26.591,46.453 25.768,50.968 15.342,49.048 16.163,44.534 		"/>
		<rect x="38.392" y="44.812" fill="#2076B7" width="4.588" height="28.795"/>
		<polygon fill="#2076B7" points="39.482,70.639 42.98,73.606 36.105,81.677 32.607,78.709 		"/>
		<polygon fill="#2076B7" points="38.499,55.853 41.998,58.821 35.122,66.891 31.625,63.922 		"/>
		<polygon fill="#2076B7" points="41.891,70.639 38.392,73.606 45.266,81.677 48.767,78.708 		"/>
		<polygon fill="#2076B7" points="42.872,55.853 39.373,58.821 46.247,66.89 49.748,63.922 		"/>
	</g>
</g>
</svg>
