<?xml version="1.0" encoding="utf-8"?>
<!-- Generator: Adobe Illustrator 16.0.0, SVG Export Plug-In . SVG Version: 6.00 Build 0)  -->
<!DOCTYPE svg PUBLIC "-//W3C//DTD SVG 1.1//EN" "http://www.w3.org/Graphics/SVG/1.1/DTD/svg11.dtd">
<svg version="1.1" id="Layer_1" xmlns="http://www.w3.org/2000/svg" xmlns:xlink="http://www.w3.org/1999/xlink" x="0px" y="0px"
	 width="29.797px" height="25.381px" viewBox="0.258 -3.095 29.797 25.381" enable-background="new 0.258 -3.095 29.797 25.381"
	 xml:space="preserve">
<g id="flower">
	<g>
		
			<linearGradient id="SVGID_1_" gradientUnits="userSpaceOnUse" x1="-620.8933" y1="-8.2944" x2="-604.0557" y2="5.7777" gradientTransform="matrix(0.8891 -0.4576 -0.4576 -0.8891 557.8735 -271.775)">
			<stop  offset="0" style="stop-color:#A00682"/>
			<stop  offset="0.1758" style="stop-color:#A00682"/>
			<stop  offset="0.6154" style="stop-color:#FF5368"/>
			<stop  offset="0.7139" style="stop-color:#FC5169"/>
			<stop  offset="0.7888" style="stop-color:#F2496B"/>
			<stop  offset="0.8558" style="stop-color:#E23C70"/>
			<stop  offset="0.9182" style="stop-color:#CB2976"/>
			<stop  offset="0.977" style="stop-color:#AE117E"/>
			<stop  offset="1" style="stop-color:#A00682"/>
		</linearGradient>
		<path opacity="0.5" fill="url(#SVGID_1_)" enable-background="new    " d="M14.358,21.908c0,0-7.441-3.777-8-9.785
			C6.054,8.862,5.947,7.878,5.12,5.828C4.51,4.314,2.823,1.824,3.652-1.257C4.71,1.365,6.037,1.714,8.664,2.615
			c2.302,0.787,2.847,1.052,4.132,1.954c3.572,2.506,4.407,5.714,3.998,9.61c3.033-4.232,6.732-2.661,9.11-8.909
			C30.468,16.497,21.778,22.244,14.358,21.908z"/>
		
			<linearGradient id="SVGID_2_" gradientUnits="userSpaceOnUse" x1="-793.2317" y1="926.5469" x2="-757.2341" y2="926.0184" gradientTransform="matrix(0.0473 -0.9989 0.9989 0.0473 -873.9065 -812.8046)">
			<stop  offset="0" style="stop-color:#A00682"/>
			<stop  offset="0.1758" style="stop-color:#A00682"/>
			<stop  offset="0.6154" style="stop-color:#FF5368"/>
			<stop  offset="0.7139" style="stop-color:#FC5169"/>
			<stop  offset="0.7888" style="stop-color:#F2496B"/>
			<stop  offset="0.8558" style="stop-color:#E23C70"/>
			<stop  offset="0.9182" style="stop-color:#CB2976"/>
			<stop  offset="0.977" style="stop-color:#AE117E"/>
			<stop  offset="1" style="stop-color:#A00682"/>
		</linearGradient>
		<path opacity="0.5" fill="url(#SVGID_2_)" enable-background="new    " d="M14.363,21.908c0,0,5.717-5.029,4.253-10.577
			C17.15,5.785,16.528,0.457,19.471-0.677C13.317,0.407,9.64,6.142,9.97,11.017C9.756,14.281,11.402,20.28,14.363,21.908z"/>
		
			<linearGradient id="SVGID_3_" gradientUnits="userSpaceOnUse" x1="-394.3552" y1="-68.5464" x2="-374.3546" y2="-51.8308" gradientTransform="matrix(-0.9403 0.3405 -0.3405 -0.9403 -372.4981 87.4601)">
			<stop  offset="0" style="stop-color:#A00682"/>
			<stop  offset="0.1758" style="stop-color:#A00682"/>
			<stop  offset="0.6154" style="stop-color:#FF5368"/>
			<stop  offset="0.7139" style="stop-color:#FC5169"/>
			<stop  offset="0.7888" style="stop-color:#F2496B"/>
			<stop  offset="0.8558" style="stop-color:#E23C70"/>
			<stop  offset="0.9182" style="stop-color:#CB2976"/>
			<stop  offset="0.977" style="stop-color:#AE117E"/>
			<stop  offset="1" style="stop-color:#A00682"/>
		</linearGradient>
		<path opacity="0.5" fill="url(#SVGID_3_)" enable-background="new    " d="M14.358,21.908c0,0-12.03-0.975-13.218-16.183
			C2.4,7.139,2.886,7.934,7.386,8.403c3.407,0.355,6.253,2.343,6.15,6.659c-0.109,4.567,0.712,6.292,0.712,6.292
			s-0.256-3.881,2.419-6.033s6.166-1.561,6.225-4.497C23.753,14.852,21.634,21.143,14.358,21.908z"/>
	</g>
	
		<linearGradient id="SVGID_4_" gradientUnits="userSpaceOnUse" x1="-1008.4583" y1="-269.7383" x2="-961.0206" y2="-270.4347" gradientTransform="matrix(0.5639 -0.7093 -0.8629 -0.686 349.1535 -877.0646)">
		<stop  offset="0" style="stop-color:#A00682"/>
		<stop  offset="0.1758" style="stop-color:#A00682"/>
		<stop  offset="0.6154" style="stop-color:#FF5368"/>
		<stop  offset="0.7139" style="stop-color:#FC5169"/>
		<stop  offset="0.7888" style="stop-color:#F2496B"/>
		<stop  offset="0.8558" style="stop-color:#E23C70"/>
		<stop  offset="0.9182" style="stop-color:#CB2976"/>
		<stop  offset="0.977" style="stop-color:#AE117E"/>
		<stop  offset="1" style="stop-color:#A00682"/>
	</linearGradient>
	<path opacity="0.5" fill="url(#SVGID_4_)" enable-background="new    " d="M14.358,21.908c0,0-2.335-10.09,3.813-13.716
		c6.146-3.625,10.267-7.429,8.489-11.287c5.982,7.435,2.769,16.706,0.188,19.945C24.439,20.022,19.716,22.976,14.358,21.908z"/>
</g>
</svg>
