<?xml version="1.0" encoding="utf-8"?>
<!-- Generator: Adobe Illustrator 16.0.0, SVG Export Plug-In . SVG Version: 6.00 Build 0)  -->
<!DOCTYPE svg PUBLIC "-//W3C//DTD SVG 1.1//EN" "http://www.w3.org/Graphics/SVG/1.1/DTD/svg11.dtd">
<svg version="1.1" id="Layer_1" xmlns="http://www.w3.org/2000/svg" xmlns:xlink="http://www.w3.org/1999/xlink" x="0px" y="0px"
	 width="125.43px" height="78.395px" viewBox="0 0 125.43 78.395" enable-background="new 0 0 125.43 78.395" xml:space="preserve">
<rect x="0" y="0" fill="none" width="125.43" height="78.395"/>
<g>
	<g>
		<path fill="#FFFFFF" d="M89.385,34.357c-0.875-0.488-2.242-0.736-4.117-0.736c-0.926,0-1.855,0.072-2.791,0.221
			c-0.682,0.104-0.756,0.119-1.18,0.21c-0.877,0.191-1.012,1.069-1.012,1.069l-0.281,1.162c-0.164,0.739,0.256,0.708,0.445,0.65
			c0.387-0.114,0.588-0.23,1.371-0.408c0.748-0.169,1.535-0.295,2.162-0.29c0.924,0,1.629,0.102,2.096,0.296
			c0.467,0.207,0.697,0.55,0.697,1.046c0.002,0.115,0.004,0.229-0.039,0.327c-0.037,0.088-0.113,0.178-0.334,0.208
			c-1.314,0.075-2.26,0.198-3.398,0.363c-1.121,0.16-2.104,0.431-2.928,0.805c-0.875,0.389-1.529,0.907-1.979,1.564
			c-0.441,0.664-0.664,1.467-0.666,2.41c0,0.895,0.32,1.62,0.939,2.186c0.629,0.557,1.449,0.831,2.436,0.831
			c0.619-0.004,1.1-0.05,1.447-0.136c0.344-0.085,0.713-0.209,1.109-0.38c0.295-0.121,0.615-0.301,0.949-0.528
			c0.34-0.225,0.572-0.383,0.869-0.577l0.014,0.02l-0.084,0.372c-0.002,0.003-0.008,0.005-0.008,0.008l0.006,0.006
			c-0.1,0.449,0.17,0.819,0.615,0.863l0.006,0.008h0.037l0.004,0.005c0.293,0,1.303,0,1.773-0.005h0.328
			c0.02,0,0.021-0.008,0.027-0.013c0.453-0.055,0.891-0.422,0.992-0.864l1.68-7.266c0.037-0.168,0.068-0.366,0.086-0.597
			c0.023-0.23,0.047-0.417,0.041-0.554C90.701,35.605,90.26,34.845,89.385,34.357z M85.307,43.014
			c-0.287,0.182-0.59,0.336-0.906,0.467c-0.426,0.172-0.828,0.262-1.199,0.262c-0.578,0-1.016-0.08-1.311-0.255
			c-0.301-0.161-0.457-0.445-0.453-0.854c0-0.476,0.109-0.844,0.334-1.128c0.23-0.277,0.566-0.499,0.988-0.667
			c0.42-0.139,0.934-0.256,1.52-0.342c0.527-0.066,1.566-0.187,1.699-0.188c0.129,0,0.217-0.069,0.16,0.28
			c-0.029,0.159-0.328,1.387-0.465,1.948C85.631,42.704,85.408,42.949,85.307,43.014z"/>
		<path fill="#FFFFFF" d="M60.422,33.781c-0.491,0-1.141,0.4-1.447,0.885c0,0-3.304,5.664-3.628,6.228
			c-0.176,0.307-0.356,0.114-0.39-0.001c-0.022-0.135-1.021-6.189-1.021-6.189c-0.113-0.484-0.621-0.902-1.259-0.899l-2.061,0.003
			c-0.498,0-0.809,0.394-0.698,0.878c0,0,1.577,8.925,1.883,11.02c0.153,1.163-0.019,1.367-0.019,1.367l-2.041,3.563
			c-0.3,0.482-0.136,0.877,0.36,0.877l2.387-0.002c0.49,0,1.146-0.391,1.444-0.876l9.181-15.532c0,0,0.878-1.326,0.067-1.316
			C62.638,33.792,60.422,33.781,60.422,33.781"/>
		<path fill="#FFFFFF" d="M31.431,36.941c-0.695,0.507-1.656,0.763-2.908,0.763h-0.568c-0.495,0-0.81-0.396-0.701-0.884l0.693-2.99
			c0.104-0.48,0.602-0.882,1.102-0.877l0.756-0.005c0.882,0,1.549,0.153,2.002,0.452c0.446,0.291,0.672,0.751,0.663,1.372
			C32.483,35.705,32.129,36.429,31.431,36.941 M36.411,32.328c-0.288-0.558-0.713-1.011-1.265-1.356
			c-0.571-0.35-1.232-0.595-2.002-0.738c-0.776-0.139-1.68-0.205-2.722-0.214l-4.813,0.004c-0.501,0.007-0.989,0.394-1.105,0.878
			L21.26,45.006c-0.114,0.484,0.199,0.885,0.699,0.885h2.307c0.496,0,0.992-0.393,1.103-0.885l0.795-3.425
			c0.109-0.481,0.599-0.874,1.098-0.874h0.66c2.819-0.002,5.004-0.579,6.578-1.734c1.569-1.151,2.354-2.678,2.351-4.567
			C36.853,33.578,36.709,32.886,36.411,32.328"/>
		<path fill="#FFFFFF" d="M73.287,36.996c-0.691,0.503-1.658,0.758-2.906,0.758h-0.576c-0.498,0.005-0.816-0.397-0.699-0.877
			l0.689-2.997c0.104-0.475,0.607-0.878,1.096-0.871l0.758-0.007c0.889,0.007,1.547,0.156,2.008,0.446
			c0.443,0.3,0.664,0.76,0.664,1.376C74.326,35.759,73.983,36.483,73.287,36.996 M78.262,32.38
			c-0.289-0.558-0.719-1.009-1.268-1.358c-0.563-0.348-1.225-0.596-2.002-0.736c-0.764-0.135-1.68-0.207-2.711-0.21l-4.82,0.001
			c-0.5,0.009-0.986,0.396-1.102,0.88l-3.244,14.11c-0.117,0.479,0.203,0.88,0.691,0.877l2.314-0.003
			c0.49,0.003,0.99-0.396,1.107-0.874l0.779-3.429c0.109-0.479,0.609-0.88,1.109-0.874h0.658c2.826,0,5.014-0.577,6.58-1.734
			c1.564-1.161,2.348-2.682,2.348-4.575C78.698,33.63,78.557,32.936,78.262,32.38"/>
		<path fill="#FFFFFF" d="M47.521,34.346c-0.875-0.488-2.244-0.735-4.116-0.735c-0.928,0-1.857,0.069-2.794,0.216
			c-0.687,0.108-0.755,0.123-1.179,0.216c-0.876,0.191-1.013,1.068-1.013,1.068l-0.281,1.156c-0.161,0.743,0.262,0.714,0.449,0.656
			c0.384-0.117,0.59-0.229,1.37-0.407c0.743-0.17,1.537-0.298,2.164-0.294c0.922,0,1.625,0.104,2.093,0.298
			c0.466,0.203,0.696,0.552,0.696,1.047c0.004,0.114,0.008,0.229-0.036,0.324c-0.039,0.092-0.111,0.181-0.333,0.205
			c-1.316,0.082-2.259,0.204-3.4,0.367c-1.128,0.162-2.105,0.429-2.928,0.806c-0.874,0.389-1.527,0.905-1.98,1.566
			c-0.438,0.662-0.662,1.461-0.662,2.408c0,0.892,0.321,1.617,0.94,2.183c0.629,0.563,1.449,0.838,2.431,0.838
			c0.621-0.004,1.101-0.05,1.451-0.137c0.341-0.084,0.712-0.21,1.109-0.382c0.296-0.12,0.615-0.299,0.946-0.526
			c0.339-0.226,0.575-0.384,0.869-0.578l0.01,0.021l-0.08,0.371c0,0.003-0.005,0.005-0.005,0.009l0.004,0.007
			c-0.1,0.447,0.168,0.817,0.614,0.86l0.004,0.008h0.04l0.001,0.005c0.296,0,1.303-0.002,1.772-0.005h0.331
			c0.022,0,0.022-0.007,0.028-0.012c0.452-0.056,0.89-0.422,0.99-0.863l1.681-7.269c0.039-0.169,0.069-0.366,0.087-0.595
			c0.022-0.229,0.047-0.418,0.039-0.553C48.837,35.595,48.393,34.834,47.521,34.346z M43.443,43.004
			c-0.285,0.182-0.589,0.337-0.907,0.466c-0.422,0.171-0.828,0.261-1.201,0.261c-0.569,0-1.014-0.08-1.311-0.254
			c-0.3-0.16-0.454-0.449-0.45-0.858c0-0.474,0.11-0.838,0.336-1.127c0.228-0.276,0.562-0.499,0.98-0.667
			c0.42-0.144,0.934-0.254,1.523-0.341c0.526-0.067,1.565-0.186,1.696-0.188c0.132,0,0.219-0.073,0.161,0.279
			c-0.026,0.154-0.325,1.388-0.465,1.946C43.767,42.696,43.544,42.938,43.443,43.004z"/>
		<g>
			<g>
				<path fill="#FFFFFF" d="M97.334,30.19h-2.061h-0.002h-0.004c-0.465,0-0.928,0.351-1.072,0.8c-0.01,0.024-0.023,0.05-0.033,0.076
					c0,0-0.043,0.191-0.113,0.521l-2.85,12.902c-0.068,0.31-0.113,0.512-0.129,0.563l0.006,0.011
					c-0.094,0.442,0.172,0.804,0.611,0.85l0.012,0.021h2.141c0.467,0,0.934-0.354,1.074-0.807c0.008-0.024,0.023-0.045,0.029-0.072
					l3.096-13.985l-0.004-0.001C98.137,30.584,97.828,30.19,97.334,30.19z"/>
			</g>
		</g>
		<g>
			<path fill="#FFFFFF" d="M100.463,33.037c-0.068,0.02-0.146,0.031-0.23,0.044c-0.082,0.014-0.158,0.022-0.221,0.022
				c-0.23,0-0.406-0.063-0.525-0.187c-0.115-0.122-0.182-0.32-0.182-0.592v-1.194h-0.25v-0.317h0.25v-0.646h0.383v0.646h0.773v0.317
				h-0.773v1.022c0,0.114,0.004,0.207,0.006,0.274c0.006,0.068,0.021,0.131,0.057,0.188c0.029,0.055,0.068,0.09,0.123,0.118
				c0.051,0.021,0.127,0.034,0.236,0.034c0.061,0,0.121-0.012,0.191-0.025c0.064-0.019,0.115-0.035,0.145-0.046h0.02L100.463,33.037
				L100.463,33.037z"/>
			<path fill="#FFFFFF" d="M104.198,33.057h-0.381v-1.279c0-0.094-0.002-0.188-0.012-0.278c-0.01-0.09-0.031-0.161-0.059-0.217
				c-0.029-0.057-0.074-0.1-0.131-0.128c-0.061-0.027-0.143-0.045-0.25-0.045c-0.109,0-0.211,0.026-0.316,0.08
				c-0.109,0.051-0.211,0.119-0.316,0.201c0.002,0.031,0.004,0.068,0.006,0.111c0.004,0.04,0.006,0.076,0.006,0.116v1.44h-0.377
				V31.78c0-0.097-0.006-0.191-0.012-0.28c-0.012-0.091-0.027-0.161-0.057-0.213c-0.033-0.06-0.074-0.102-0.137-0.132
				c-0.057-0.025-0.139-0.043-0.246-0.043c-0.104,0-0.209,0.025-0.313,0.077c-0.105,0.05-0.207,0.114-0.311,0.192v1.68h-0.375
				v-2.244h0.375v0.248c0.121-0.096,0.24-0.172,0.354-0.228c0.117-0.056,0.24-0.082,0.375-0.082c0.154,0,0.283,0.031,0.393,0.099
				c0.105,0.063,0.186,0.153,0.236,0.265c0.152-0.125,0.293-0.22,0.418-0.279c0.129-0.057,0.262-0.085,0.402-0.085
				c0.25,0,0.434,0.074,0.551,0.223c0.113,0.153,0.174,0.361,0.174,0.627L104.198,33.057L104.198,33.057z"/>
		</g>
	</g>
</g>
</svg>
