<?xml version="1.0" encoding="utf-8"?>
<!-- Generator: Adobe Illustrator 16.0.0, SVG Export Plug-In . SVG Version: 6.00 Build 0)  -->
<!DOCTYPE svg PUBLIC "-//W3C//DTD SVG 1.1//EN" "http://www.w3.org/Graphics/SVG/1.1/DTD/svg11.dtd">
<svg version="1.1" id="Layer_1" xmlns="http://www.w3.org/2000/svg" xmlns:xlink="http://www.w3.org/1999/xlink" x="0px" y="0px"
	 width="43.975px" height="48.527px" viewBox="12.202 4.443 43.975 48.527" enable-background="new 12.202 4.443 43.975 48.527"
	 xml:space="preserve">
<g>
	<g>
		<g>
			<path fill="#E57C78" d="M41.765,4.719c-4.339,0.982-6.222,2.538-9.333,2.21c-3.11-0.328-12.321-4.754-17.438,0.737
				c-6.713,7.205,1.434,22.42,1.434,22.42s0.482-9.648,9.5-12.063c12.297-3.292,16.89-4.925,20.813-7.75
				c3.155-2.272,3.866-4.572,3.866-4.572S46.105,3.736,41.765,4.719z"/>
		</g>
	</g>
	<path fill="#21B5AD" d="M56.011,14.052c0,0-1.867,8.25-13.084,12.097c-11.215,3.847-16.389,3.703-19.827,6.568
		c-3.439,2.865-3.849,7.734-2.947,11.336c0.901,3.601,3.111,6.877,4.667,8.352c1.556,1.473,2.865-0.164,2.947-2.211
		s-0.503-15.24,6.631-14.773c5.646,0.367,5.856,9.119,6.141,11.58c0.572,4.994,2.329,5.971,3.639,5.971s4.563-3.51,4.688-8.322
		c0.185-7.089,2.69-14.67,4.936-19.053C57.076,19.209,56.011,14.052,56.011,14.052z"/>
	<path fill="#E24D69" d="M52.572,6.929c0,0-2.332,8.124-15.373,11.124c-14.254,3.279-15.407,4.884-18.015,8.679
		c-2.382,3.354-0.694,9.813-0.694,9.813s0.908-7.749,8.875-9.991c8.388-2.36,17.75-4.404,23.488-9.063
		c3.887-3.31,4.3-6.892,4.3-6.892s-0.336-0.778-1.03-1.839C53.31,7.615,52.572,6.929,52.572,6.929z"/>
</g>
</svg>
