<?xml version="1.0" encoding="utf-8"?>
<!-- Generator: Adobe Illustrator 16.0.0, SVG Export Plug-In . SVG Version: 6.00 Build 0)  -->
<!DOCTYPE svg PUBLIC "-//W3C//DTD SVG 1.1//EN" "http://www.w3.org/Graphics/SVG/1.1/DTD/svg11.dtd">
<svg version="1.1" id="Layer_1" xmlns="http://www.w3.org/2000/svg" xmlns:xlink="http://www.w3.org/1999/xlink" x="0px" y="0px"
	 width="125.43px" height="78.395px" viewBox="0 0 125.43 78.395" enable-background="new 0 0 125.43 78.395" xml:space="preserve">
<rect x="0" y="0" fill="none" width="125.43" height="78.395"/>
<g>
	<path fill="#FFFFFF" d="M38.777,29.358c3.779,0,4.673,0.21,6.93,1.052v3.962c-0.026,0-2.65-0.446-5.354-0.446
		c-2.204,0-3.123-0.104-3.123,5.249c0,4.304,0.499,5.197,3.149,5.197c2.756,0,5.328-0.235,5.328-0.235v3.962
		c-1.627,0.684-3.044,0.919-6.93,0.84c-4.854-0.079-6.64-3.357-6.64-9.813C32.137,32.98,33.554,29.358,38.777,29.358z"/>
	<path fill="#FFFFFF" d="M52.872,29.568h6.009l5.826,19.21h-5.224l-1.129-3.357h-5.17l-1.102,3.357h-5.225L52.872,29.568z
		 M57.333,41.089l-1.393-5.146l-1.601,5.146H57.333z"/>
	<path fill="#FFFFFF" d="M65.052,34.607c0-3.438,2.256-5.013,5.196-5.195c3.877-0.242,6.19,0.156,8.135,0.864v3.965
		c-1.68-0.186-4.566-0.265-6.299-0.265c-1.417,0-1.941,0.053-1.941,1.155v0.289c0,0.813,0.158,1.259,1.574,1.259h2.467
		c3.989,0,4.908,3.464,4.908,5.564v0.863c0,4.884-2.729,5.879-5.328,5.879c-4.907,0-5.484,0-8.108-0.893v-3.962
		c1.052,0.104,4.356,0.288,6.799,0.288c1.129,0,1.548-0.288,1.548-1.077v-0.419c0-0.761-0.236-1.155-1.393-1.155H70.25
		c-4.986,0-5.196-4.33-5.196-5.563L65.052,34.607L65.052,34.607z"/>
	<path fill="#FFFFFF" d="M80.906,29.568h5.092v7.639h4.461v-7.639h5.091v19.21h-5.091V41.77h-4.461v7.008h-5.092V29.568z"/>
</g>
</svg>
