<?xml version="1.0" encoding="utf-8"?>
<!-- Generator: Adobe Illustrator 16.0.0, SVG Export Plug-In . SVG Version: 6.00 Build 0)  -->
<!DOCTYPE svg PUBLIC "-//W3C//DTD SVG 1.1//EN" "http://www.w3.org/Graphics/SVG/1.1/DTD/svg11.dtd">
<svg version="1.1" id="Layer_1" xmlns="http://www.w3.org/2000/svg" xmlns:xlink="http://www.w3.org/1999/xlink" x="0px" y="0px"
	 width="125.43px" height="78.393px" viewBox="0 0 125.43 78.393" enable-background="new 0 0 125.43 78.393" xml:space="preserve">
<rect x="0" y="0" fill="none" width="125.43" height="78.395"/>
<g>
	<g>
		<g>
			<polygon fill="#FFFFFF" points="57.721,50.972 51.595,50.972 55.424,27.438 61.552,27.438 			"/>
			<path fill="#FFFFFF" d="M46.439,27.438l-5.841,16.188l-0.689-3.485v0.001l-2.063-10.583c0,0-0.248-2.119-2.906-2.119h-9.654
				l-0.113,0.399c0,0,2.953,0.613,6.41,2.688l5.32,20.446h6.387l9.749-23.535H46.439L46.439,27.438z"/>
			<path fill="#FFFFFF" d="M94.635,50.972h5.626l-4.905-23.535H90.43c-2.271,0-2.829,1.753-2.829,1.753l-9.138,21.781h6.387
				l1.277-3.495h7.789L94.635,50.972z M87.893,42.648l3.219-8.809l1.813,8.809H87.893z"/>
			<path fill="#FFFFFF" d="M78.941,33.097l0.875-5.054c0,0-2.696-1.025-5.511-1.025c-3.042,0-10.263,1.329-10.263,7.791
				c0,6.08,8.477,6.156,8.477,9.351c0,3.191-7.602,2.62-10.109,0.606l-0.911,5.282c0,0,2.732,1.33,6.917,1.33
				c4.18,0,10.487-2.165,10.487-8.06c0-6.116-8.552-6.688-8.552-9.35C70.353,31.31,76.32,31.652,78.941,33.097z"/>
		</g>
		<path fill="#FAA634" d="M39.906,40.14l-2.063-10.583c0,0-0.248-2.119-2.906-2.119h-9.654l-0.113,0.399
			c0,0,4.643,0.962,9.094,4.563C38.521,35.847,39.906,40.14,39.906,40.14z"/>
	</g>
</g>
</svg>
