<?xml version="1.0" encoding="utf-8"?>
<!-- Generator: Adobe Illustrator 19.0.0, SVG Export Plug-In . SVG Version: 6.00 Build 0)  -->
<svg version="1.1" id="Capa_1" xmlns="http://www.w3.org/2000/svg" xmlns:xlink="http://www.w3.org/1999/xlink" x="0px" y="0px"
	 viewBox="-223 25 512 512" style="enable-background:new -223 25 512 512;" xml:space="preserve">
<style type="text/css">
	.st0{fill:url(#SVGID_1_);}
	.st1{fill:url(#SVGID_2_);}
	.st2{fill:url(#SVGID_3_);}
	.st3{fill:url(#SVGID_4_);}
	.st4{fill:url(#SVGID_5_);}
	.st5{fill:url(#SVGID_6_);}
	.st6{fill:url(#SVGID_7_);}
	.st7{fill:url(#SVGID_8_);}
	.st8{fill:url(#SVGID_9_);}
</style>
<g>
	<g id="Layer_2_17_">
		<g>
			<linearGradient id="SVGID_1_" gradientUnits="userSpaceOnUse" x1="56.2688" y1="477.5483" x2="88.2305" y2="509.51">
				<stop  offset="0" style="stop-color:#F16528"/>
				<stop  offset="0.5269" style="stop-color:#F6921E"/>
				<stop  offset="1" style="stop-color:#FFAE41"/>
			</linearGradient>
			<path class="st0" d="M73.7,473.5c-3.9,1.1-7.8,2-11.8,2.8c-10.3,2.1-16.9,12.2-14.8,22.5c0.1,0.6,0.3,1.2,0.4,1.7
				c2.8,9.3,12.3,15.1,22.1,13.2c4.7-1,9.5-2.1,14.1-3.3c10.2-2.7,16.2-13.2,13.5-23.3C94.4,476.8,83.9,470.8,73.7,473.5z"/>
			<linearGradient id="SVGID_2_" gradientUnits="userSpaceOnUse" x1="-90.7214" y1="459.5922" x2="-54.88" y2="495.4336">
				<stop  offset="0" style="stop-color:#F16528"/>
				<stop  offset="0.5269" style="stop-color:#F6921E"/>
				<stop  offset="1" style="stop-color:#FFAE41"/>
			</linearGradient>
			<path class="st1" d="M-59.1,463c-3.7-1.6-7.4-3.4-10.9-5.2c-9.3-4.8-20.8-1.3-25.7,8c-2.4,4.6-2.7,9.7-1.4,14.3
				c1.5,4.7,4.6,8.9,9.4,11.4c4.3,2.2,8.6,4.4,13,6.3c9.6,4.3,20.9,0,25.2-9.6C-45.2,478.6-49.5,467.2-59.1,463z"/>
			<linearGradient id="SVGID_3_" gradientUnits="userSpaceOnUse" x1="-18.8733" y1="480.8134" x2="15.3511" y2="515.0377">
				<stop  offset="0" style="stop-color:#F16528"/>
				<stop  offset="0.5269" style="stop-color:#F6921E"/>
				<stop  offset="1" style="stop-color:#FFAE41"/>
			</linearGradient>
			<path class="st2" d="M6.4,479.7c-4-0.3-8-0.8-12.1-1.4c-10.5-1.5-20,5.8-21.5,16.2c-0.4,2.8-0.2,5.6,0.6,8.1
				c2,6.9,7.9,12.3,15.6,13.4c4.7,0.7,9.6,1.2,14.3,1.5c10.5,0.9,19.7-7,20.5-17.4C24.7,489.7,17,480.6,6.4,479.7z"/>
			<linearGradient id="SVGID_4_" gradientUnits="userSpaceOnUse" x1="125.9038" y1="449.9638" x2="154.8105" y2="478.8705">
				<stop  offset="0" style="stop-color:#F16528"/>
				<stop  offset="0.5269" style="stop-color:#F6921E"/>
				<stop  offset="1" style="stop-color:#FFAE41"/>
			</linearGradient>
			<path class="st3" d="M135.1,445.1c-3.3,2.3-6.8,4.5-10.2,6.6c-7.7,4.6-10.8,13.7-8.4,21.8c0.5,1.5,1.1,2.9,1.9,4.4
				c5.4,9,17.1,11.9,26.1,6.5c4.1-2.5,8.2-5.1,12.1-7.8c8.6-6,10.8-17.8,4.9-26.5C155.7,441.4,143.7,439.1,135.1,445.1z"/>
			<linearGradient id="SVGID_5_" gradientUnits="userSpaceOnUse" x1="180.6852" y1="400.2218" x2="208.8602" y2="428.3968">
				<stop  offset="0" style="stop-color:#F16528"/>
				<stop  offset="0.5269" style="stop-color:#F6921E"/>
				<stop  offset="1" style="stop-color:#FFAE41"/>
			</linearGradient>
			<path class="st4" d="M210,393.6c-8.5-6.2-20.4-4.3-26.6,4.3c-2.3,3.3-4.8,6.5-7.4,9.6c-4.2,5.1-5.2,11.7-3.5,17.6
				c1.1,3.5,3.1,6.8,6.2,9.2c8.1,6.7,20.1,5.4,26.8-2.7c3-3.7,6-7.6,8.8-11.4C220.4,411.6,218.5,399.8,210,393.6z"/>
			<linearGradient id="SVGID_6_" gradientUnits="userSpaceOnUse" x1="213.6882" y1="333.201" x2="244.9491" y2="364.4619">
				<stop  offset="0" style="stop-color:#F16528"/>
				<stop  offset="0.5269" style="stop-color:#F6921E"/>
				<stop  offset="1" style="stop-color:#FFAE41"/>
			</linearGradient>
			<path class="st5" d="M236.7,324.2c-10.1-2.9-20.7,2.8-23.6,13c-1.2,3.9-2.4,7.7-3.8,11.5c-1.5,4-1.5,8.1-0.3,11.9
				c1.6,5.6,5.9,10.4,11.8,12.5c9.9,3.6,20.8-1.5,24.4-11.5c1.6-4.6,3.1-9.1,4.5-13.8C252.6,337.7,246.8,327.2,236.7,324.2z"/>
			<linearGradient id="SVGID_7_" gradientUnits="userSpaceOnUse" x1="-144.5421" y1="112.961" x2="133.2809" y2="390.784">
				<stop  offset="0" style="stop-color:#F16528"/>
				<stop  offset="0.5269" style="stop-color:#F6921E"/>
				<stop  offset="1" style="stop-color:#FFAE41"/>
			</linearGradient>
			<path class="st6" d="M272.5,200l-25.1,7.7c-19-58.2-59-106.1-113.1-135.1c-5.4-2.9-10.9-5.6-16.6-8.1c0,0-0.1,0-0.1-0.1
				c-0.2-0.1-0.5-0.2-0.7-0.3C67.5,42.5,12.9,38.5-39.5,52.6c-0.4,0.1-0.8,0.2-1.3,0.3c-1.7,0.5-3.5,1-5.2,1.5
				c-2.9,0.9-5.7,1.8-8.5,2.8c-0.3,0.1-0.7,0.3-1,0.4c-46.9,16.2-86.7,46.1-115.2,86c-0.1,0.1-0.2,0.3-0.3,0.4
				c-2.8,3.9-5.4,7.9-8,12c-0.2,0.3-0.3,0.6-0.5,0.8c-2.5,4.1-4.9,8.3-7.3,12.6c-23.5,43.9-32.5,92.9-26.4,141.3c0,0.1,0,0.2,0,0.3
				c0,0.1,0,0.2,0,0.2c1.6,13,4.4,25.9,8.2,38.5c10.1,33.4,26.9,63.5,50.1,89.4c7,7.8,19.1,8.5,26.9,1.5c7.8-7,8.5-19.1,1.5-26.9
				c-11.5-12.9-21.2-27.1-29-42.3c-0.1-0.2-0.2-0.4-0.3-0.6c-1.8-3.6-3.6-7.3-5.1-11c0,0,0,0,0-0.1c-2.9-6.8-5.4-13.8-7.7-21
				c-25-82.8,6.9-169.5,72.9-217.9c1-0.7,1.9-1.5,2.9-2.1c16.9-12,36.1-21.5,57-27.8c21.1-6.4,42.4-9,63.2-8.4c0.3,0,0.7,0,1,0
				c1.3,0,2.5,0.1,3.8,0.2c0.5,0,1.1,0.1,1.5,0.1c65.1,4.1,125.1,40.2,158.8,97c0,0,0,0.1,0.1,0.1c0.5,0.9,1,1.6,1.5,2.5
				c0.1,0.1,0.1,0.2,0.2,0.3c6.5,11.3,11.9,23.4,16.1,36.2l-25.1,7.7c-7,2.1-7.7,7.2-1.5,11.1l54.5,35.3c6.1,4,13.4,1.6,16.2-5
				l25.3-59.7C282.8,201.7,279.4,197.9,272.5,200z"/>
			<linearGradient id="SVGID_8_" gradientUnits="userSpaceOnUse" x1="-95.7823" y1="235.8668" x2="17.342" y2="348.9911">
				<stop  offset="0" style="stop-color:#F16528"/>
				<stop  offset="0.5269" style="stop-color:#F6921E"/>
				<stop  offset="1" style="stop-color:#FFAE41"/>
			</linearGradient>
			<path class="st7" d="M-48,281.6c-18.4,13.6-30.9,25.4-37.6,35.4c-6.7,10-10.7,20.6-12,32.1H17.3v-31.2h-59.8
				c3.5-3.5,6.6-6.2,9.2-8.3c2.6-2.1,7.7-5.9,15.5-11.2c13-9.1,21.9-17.5,26.8-25.2c4.9-7.7,7.4-15.7,7.4-24.1
				c0-7.9-2.1-15-6.4-21.4s-10.2-11-17.7-14.1c-7.5-3.1-18-4.6-31.5-4.6c-12.9,0-23.1,1.6-30.3,4.8c-7.3,3.2-13,7.8-16.9,13.9
				c-4,6.1-6.8,14.4-8.2,25.3l38.4,3.1c1.1-7.7,3.2-13.2,6.3-16.3c3.1-3.1,7.1-4.6,12-4.6c4.7,0,8.6,1.5,11.7,4.5s4.6,6.6,4.6,10.8
				c0,3.9-1.5,8-4.7,12.3C-29.6,266.9-36.8,273.2-48,281.6z"/>
			<linearGradient id="SVGID_9_" gradientUnits="userSpaceOnUse" x1="61.8098" y1="246.5102" x2="148.5873" y2="333.2878">
				<stop  offset="0" style="stop-color:#F16528"/>
				<stop  offset="0.5269" style="stop-color:#F6921E"/>
				<stop  offset="1" style="stop-color:#FFAE41"/>
			</linearGradient>
			<path class="st8" d="M132.9,349v-25.8h17.3v-29.7h-17.3v-84.6H99.5l-69.7,82.9v31.5h69.7V349H132.9L132.9,349z M62.6,293.6
				l36.9-43.4v43.4H62.6z"/>
		</g>
	</g>
</g>
</svg>
