<?xml version="1.0" encoding="utf-8"?>
<!-- Generator: Adobe Illustrator 16.0.0, SVG Export Plug-In . SVG Version: 6.00 Build 0)  -->
<!DOCTYPE svg PUBLIC "-//W3C//DTD SVG 1.1//EN" "http://www.w3.org/Graphics/SVG/1.1/DTD/svg11.dtd">
<svg version="1.1" id="Layer_1" xmlns="http://www.w3.org/2000/svg" xmlns:xlink="http://www.w3.org/1999/xlink" x="0px" y="0px"
	 width="28.063px" height="25.258px" viewBox="2.301 0.188 28.063 25.258" enable-background="new 2.301 0.188 28.063 25.258"
	 xml:space="preserve">
<g>
	<g>
		<g>
			<g>
				<g>
					<path fill="#FFCE00" d="M16.266,12.512c-0.021-0.035-0.031-0.105-0.051-0.135c-0.013-0.017,0.013,0.002-0.071-0.046
						c-0.03-0.02-0.06-0.041-0.087-0.063c-0.035-0.003-0.071-0.012-0.104-0.022c-0.034-0.013-0.065-0.029-0.099-0.051
						c-0.001-0.032,0.005-0.066,0.008-0.102l0.01-0.1V11.99l0.002,0.118l0,0h0.001l0.001,0.002l0.005,0.007l0.012,0.012l0.02,0.024
						l0.033,0.051c0.149,0.286,0.054,0.21,0.133,0.23c0.027,0,0.077,0,0.148,0.013c0.112-0.002,0.271,0.026,0.404,0.044
						c0.17,0.028,0.373,0.063,0.583,0.101c0.27,0.236,0.517,0.488,0.121,0.925c-0.36,0.449-0.979,0.812-1.541,0.967
						c-0.288,0.087-0.525,0.091-0.844,0.042c-0.154-0.01-0.308-0.027-0.425-0.101c-0.121-0.063-0.279-0.085-0.356-0.195
						c-0.31,0.186-0.806-0.3-0.84-1.043c-0.064-0.745,0.271-1.56,0.388-2.11c0.307-0.665,0.464-1.144,0.006-0.718
						c0.339-0.446,0.548-0.542,0.712-0.616c0.188-0.043,0.292-0.17,0.685-0.37c-0.004,0.007-0.188,0.276-0.176,0.29
						c0.276-0.065,0.56-0.125,0.887-0.187c0,0,0.089-0.065,0.178-0.134c0.095-0.063,0.199-0.088,0.198-0.093
						c0.477,0.105,0.925,0.195,1.373,0.251c0.448,0.073,0.921,0.16,1.453,0.464c-0.686-0.427,0.389,0.025,0.364-0.125
						c0.145,0.154,0.747,0.551,0.505,0.473c0.364,0.286,0.653,0.62,0.828,1.016c0.145,0.399,0.188,0.801,0.028,1.087
						c0,0,0.075,0.379,0.066,0.382c0.048,0.669-0.199,1.178-0.449,1.697l0.071,0.116c-0.09,0.393-0.465,1.044-0.77,1.242
						c-0.338,0.388-0.707,0.829-1.191,1.161c-0.482,0.313-1.124,0.438-1.68,0.5c-1.102-0.142-0.649,0.165-1.625,0.21
						c-0.314-0.05-0.792-0.086-1.22-0.119c-0.415-0.123-0.801-0.257-0.963-0.394c0.448,0.146,0.728,0.155,0.99,0.173
						c0.277-0.03,0.544-0.066,1.008,0.015c-0.356-0.105,1.575-0.052,0.752-0.225c-0.917,0.119-1.888,0.044-2.765-0.396
						c-0.895-0.417-1.463-1.21-1.964-1.867c0.167-0.016-0.018-0.481-0.165-1.058c-0.042-0.296-0.131-0.61-0.162-0.903
						c-0.01-0.292-0.021-0.561-0.025-0.739l0.08-0.04c0.104-0.594,0.192-1.011,0.467-1.944c0.444-1.039,1.123-2.116,2.068-2.345
						c1.624-0.64,3.249-0.506,3.876-0.749c-1.779-0.272-2.393-0.449-3.736,0.125c0.144-0.11-1.032,0.462-0.926,0.38
						c0.125-0.067,0.229-0.124,0.327-0.177c0.19-0.116,0.345-0.194,0.497-0.254c0.299-0.15,0.752-0.189,1.028-0.271
						c0.003-0.007-0.309-0.001-0.309-0.001l0.243-0.077c-0.135-0.04,0.189-0.127,0.146-0.175c0,0-0.057,0.005-0.143,0.012
						c-0.089,0.016-0.209,0.037-0.328,0.059c-0.119,0.023-0.244,0.075-0.335,0.102c-0.091,0.029-0.15,0.059-0.15,0.059
						c0.538-0.143-0.319-0.095-0.527,0.095c0,0-0.213,0.104-0.426,0.209c-0.222,0.095-0.402,0.254-0.402,0.254
						c0.191-0.129,0.715-0.353,0.182,0.052c-0.147,0.109-0.306,0.261-0.467,0.408C11.7,8.09,11.576,8.254,11.429,8.383
						c0,0,0.23-0.693,0.278-0.689c-0.587,0.935-1.369,1.38-1.595,2.458L9.78,10.379c0.01,0.009-0.106,0.225-0.146,0.5
						c-0.051,0.266-0.104,0.53-0.104,0.53l-0.056-0.136c0,0-0.087,0.319-0.128,0.641c-0.016,0.319-0.03,0.641-0.03,0.641
						c0.015,0.693,0.181,0.782,0.273,0.894c0.091,0.521,0.214,1.006,0.271,1.219c0,0-0.088-0.136-0.177-0.271
						c-0.075-0.141-0.133-0.286-0.133-0.286s0.018,0.146,0.034,0.289c0.041,0.143,0.081,0.283,0.081,0.283
						c-0.098-0.393,0.254,0.435,0.358,0.538c0.241,0.604,0.435,0.775,0.497,0.938c0.098,0.144,0.092,0.279,0.358,0.615
						c0.627,0.621,1.527,1.255,1.648,1.127c0.341,0.195,0.729,0.321,1.108,0.47c0.386,0.117,0.788,0.136,1.187,0.19
						c0.222,0.025,0.361,0.031,0.492,0.035l0.443,0.022c0.309,0.018,0.632,0.035,0.963,0.041l0.599-0.125
						c0.415,0.014,0.819-0.036,1.208-0.142c0.2-0.065,0.399-0.155,0.585-0.242c0.158-0.097,0.298-0.195,0.44-0.299
						c0.541-0.43,0.978-0.933,1.438-1.668c-0.001,0-0.026,0.146-0.029,0.146c0,0,0.099-0.225,0.186-0.445
						c0.097-0.22,0.153-0.45,0.153-0.45c0.337-0.551,0.424-1.027,0.496-1.5c0.061-0.479,0.099-0.781,0.206-1.648
						c0.055-0.829-0.207-1.538-0.526-1.974c-0.189-0.208-0.354-0.38-0.53-0.479c-0.185-0.093-0.35-0.153-0.496-0.191
						c-0.705-0.323-1.442-0.813-2.059-1.021c0,0,0.427,0.042,0.426,0.051c0.004-0.012-0.479-0.26-0.479-0.26
						C17.89,8.29,17.655,8.22,17.377,8.163c-0.137-0.032-0.277-0.061-0.472-0.101c-0.215-0.018-0.495-0.02-0.846-0.01
						c-0.991,0.026-1.346,0.346-1.533,0.531c-0.19,0.197-0.2,0.408-0.458,0.665c-0.01-0.018-0.338,0.212-0.668,0.473
						C13.1,10,12.816,10.32,12.817,10.32l0.064-0.002c-0.097,0.503-0.179,0.654-0.281,0.983c-0.045,0.166-0.16,0.353-0.212,0.661
						c-0.029,0.153-0.072,0.33-0.1,0.542c0.001,0.217-0.023,0.464,0.011,0.753c0,0,0.136-0.119,0.142-0.118
						c-0.016,0.378,0.021,0.667,0.205,0.925c0.142,0.271,0.373,0.521,0.723,0.847c0.099,0.066,0.235,0.183,0.407,0.323
						c0.189,0.099,0.425,0.202,0.677,0.311c0.256,0.054,0.53,0.088,0.792,0.108c0.269,0.01,0.522-0.061,0.712-0.146
						c0.837-0.126,1.375-0.523,1.756-0.967c0.378-0.447,0.638-0.969,0.62-1.615c0.028-0.438-0.256-0.737-0.41-0.93
						c-0.167-0.162-0.299-0.234-0.307-0.377l0.132,0.073c0.011,0.009-0.149-0.396-0.162-0.387l-0.112,0.154
						c-0.457-0.281-1.165-0.35-1.688-0.445c0.019-0.013-0.368,0.147-0.548,0.437c-0.104,0.169-0.136,0.314-0.15,0.431
						c-0.019,0.113-0.015,0.188-0.013,0.188c0.046-0.27,0.242-0.578,0.555-0.646l-0.05-0.036c0.271-0.17,1.037-0.167,1.347,0.01
						c0-0.014-0.41-0.017-0.41-0.017c0.448,0.112,0.051,0.142-0.068,0.151c-0.433-0.075-0.591,0.001-0.688,0.065
						c-0.043,0.042-0.075,0.083-0.125,0.122c0.021-0.013-0.051,0.065-0.081,0.101c-0.009,0.037-0.021,0.046-0.052,0.111
						c-0.085,0.076-0.178,0.316-0.202,0.212c-0.037,0.165-0.104,0.521,0.001,0.752c0.1,0.23,0.297,0.223,0.311,0.121l0.045,0.029
						c-0.023-0.085-0.05-0.169-0.046-0.247c0.018-0.073,0.001,0.011-0.01,0.02c0.002-0.004,0.003-0.004,0.012-0.015
						c0.04-0.054,0.132-0.12,0.327-0.196L16.266,12.512z"/>
				</g>
			</g>
		</g>
		<g>
			<g>
				<g>
					<path fill="#FFD420" d="M11.593,2.743l-0.03-0.072c0.107,0.438,0.319,0.857,0.391,1.278c-0.003,0.028-0.01,0.087-0.013,0.116
						c0.042,0.207,0.156,0.438,0.267,0.62c0.056,0.09,0.236,0.107,0.236,0.107c0.038,0.015,0.103,0.019,0.119-0.017
						c-0.007-0.053-0.06-0.173-0.004-0.193c0.015-0.005,0.023,0.02,0.033,0.043c0.057-0.021,0.195,0.014,0.206,0.037
						c0.038,0.014,0.184,0.131,0.221,0.146c0.071,0.06,0.185-0.233,0.183-0.35c0.006-0.06,0.067-0.024,0.108-0.04
						c-0.034-0.044-0.004-0.084-0.039-0.129c0.015-0.005-0.035-0.158-0.067-0.232c0,0-0.023-0.021-0.056-0.095
						c-0.013-0.023-0.024-0.021-0.038-0.014c0.013-0.006,0.013-0.006,0.025-0.011c-0.037-0.016-0.031-0.074-0.056-0.094
						c0.013-0.006,0.013-0.006,0.027-0.011c-0.049-0.039-0.042-0.1-0.077-0.144c0.014-0.005,0.014-0.005,0.026-0.011
						c-0.012-0.024-0.021-0.05-0.009-0.056c0.014-0.006,0.015-0.005,0.027-0.012c0.003-0.029-0.045-0.068-0.019-0.079
						c-0.015,0.006-0.015,0.006-0.026,0.011c-0.042-0.1-0.063-0.179-0.08-0.259c-0.031-0.221-0.165-0.458-0.287-0.669
						c-0.01-0.025-0.048-0.038-0.063-0.002L12.567,2.54c-0.021-0.049-0.051-0.007-0.072-0.058c-0.684-1.059-0.742-1.513-0.549-1.167
						c-0.16-0.184-0.268-0.346-0.212-0.252c-0.251-0.438-0.081-0.147-0.07-0.124c0.05,0.153,0.114,0.283,0.093,0.384
						c-0.002,0.029-0.03,0.071,0,0.146l-0.03-0.074c-0.015,0.007-0.04,0.02-0.04,0.02l0.097,0.337c0,0-0.026,0.012-0.04,0.018
						l0.021,0.05c-0.071,0.091-0.175-0.185-0.239-0.301c-0.014,0.006,0.34,0.752,0.326,0.758l0.021,0.05L11.844,2.34
						c-0.063-0.146-0.113-0.268-0.178-0.414C11.68,1.952,11.701,2,11.712,2.024c-0.013,0.007-0.025,0.013-0.016,0.037
						c-0.042-0.098-0.081-0.226-0.148-0.311c-0.021-0.019-0.052,0.024-0.033,0.104c0.03,0.072,0.053,0.121,0.083,0.193l-0.025,0.014
						c-0.021-0.048-0.039-0.127-0.073-0.169c-0.022-0.019-0.019,0.066-0.042,0.049c-0.01-0.023-0.021-0.048-0.044-0.065
						c0.031,0.072,0.086,0.163,0.104,0.242c-0.002,0.029-0.005,0.062-0.031,0.072c0.063,0.114,0.064,0.229,0.03,0.331
						C11.497,2.557,11.562,2.671,11.593,2.743z"/>
				</g>
			</g>
		</g>
		<g>
			<g>
				<g>
					<path fill="#FF7B20" d="M6.239,4.901L6.122,4.833C6.744,5.279,7.457,5.66,8.031,6.115c0.032,0.034,0.096,0.104,0.128,0.141
						c0.286,0.22,0.68,0.436,1.055,0.595c0.182,0.079,0.373,0,0.373,0c0.055-0.004,0.118-0.036,0.088-0.084
						c-0.077-0.058-0.284-0.167-0.26-0.22c0.006-0.013,0.047,0.01,0.088,0.031c0.024-0.053,0.195-0.095,0.233-0.073
						c0.054-0.005,0.323,0.041,0.372,0.035C10.242,6.556,9.97,6.17,9.843,6.05C9.78,5.983,9.873,5.983,9.891,5.944
						c-0.08-0.026-0.099-0.086-0.179-0.111C9.719,5.819,9.506,5.688,9.396,5.63c0,0-0.042-0.004-0.16-0.073
						C9.198,5.533,9.19,5.545,9.183,5.558C9.19,5.545,9.19,5.545,9.198,5.533C9.144,5.535,9.081,5.465,9.035,5.455
						C9.042,5.442,9.042,5.442,9.05,5.43C8.958,5.41,8.895,5.339,8.81,5.307c0.007-0.014,0.007-0.014,0.016-0.024
						C8.786,5.26,8.747,5.237,8.755,5.224S8.762,5.211,8.77,5.199C8.738,5.163,8.646,5.143,8.66,5.118
						C8.653,5.13,8.653,5.13,8.646,5.143C8.491,5.052,8.382,4.972,8.273,4.892C7.994,4.662,7.591,4.46,7.223,4.281
						C7.184,4.257,7.13,4.259,7.155,4.307L7.038,4.24c-0.078-0.046-0.062,0.015-0.14-0.03C6.565,4.058,6.261,3.876,5.94,3.692
						C5.6,3.509,5.258,3.323,4.907,3.168c0.167,0.103,0.283,0.193,0.46,0.271C5.361,3.451,5.35,3.477,5.392,3.499
						c0.244,0.146,0.564,0.273,0.646,0.395C6.07,3.927,6.087,3.99,6.205,4.057L6.087,3.99C6.08,4.001,6.066,4.027,6.066,4.027
						c0.158,0.107-0.657-0.333-0.499-0.224c0,0-0.016,0.024-0.022,0.038l0.078,0.045C5.65,4.02,5.495,4.081,5.402,4.034
						C5.399,4.04,5.391,4.052,5.388,4.057l0.036,0.021L5.418,4.09C5.31,4.026,6.203,4.534,6.092,4.477
						c0.02,0.01,0.057,0.029,0.074,0.038C6.162,4.522,6.159,4.528,6.178,4.537C6.104,4.499,6.015,4.445,5.937,4.419
						C5.916,4.416,5.927,4.444,5.978,4.478c0.055,0.028,0.091,0.047,0.145,0.075L6.116,4.566C6.081,4.547,6.03,4.512,5.99,4.5
						C5.97,4.497,6.018,4.537,5.997,4.533c-0.018-0.01-0.036-0.019-0.056-0.022c0.053,0.029,0.128,0.06,0.178,0.094
						c0.015,0.016,0.029,0.03,0.022,0.042C5.851,4.525,5.95,4.203,6.333,4.808C6.344,4.83,6.122,4.833,6.239,4.901z"/>
				</g>
			</g>
		</g>
		<g>
			<g>
				<g>
					<path fill="#FFD420" d="M4.289,9.323L4.173,9.307c0.648,0.166,1.345,0.221,1.924,0.419C6.13,9.746,6.2,9.787,6.234,9.807
						c0.277,0.101,0.644,0.15,0.88,0.208C7.177,10.027,7.253,10,7.301,9.975c0.036-0.024,0.07-0.05,0.07-0.05
						c0.03-0.014,0.084-0.051,0.074-0.09C7.423,9.789,7.253,9.735,7.269,9.683C7.274,9.669,7.309,9.68,7.343,9.69
						C7.367,9.631,7.51,9.563,7.54,9.588c0.039-0.011,0.291,0.034,0.352,0.038C8.035,9.673,7.845,9.285,7.65,9.135
						C7.577,9.077,7.674,9.062,7.694,9.027c-0.093-0.02-0.116-0.068-0.207-0.083C7.493,8.931,7.243,8.838,7.115,8.8
						c0,0-0.045,0.003-0.164-0.02C6.911,8.772,6.908,8.786,6.905,8.8c0.004-0.014,0.004-0.014,0.007-0.027
						c-0.046,0.021-0.12-0.023-0.163-0.019C6.751,8.74,6.751,8.74,6.754,8.726C6.668,8.738,6.594,8.694,6.511,8.692
						c0.002-0.015,0.002-0.015,0.005-0.027c-0.04-0.008-0.08-0.017-0.078-0.031C6.44,8.619,6.44,8.619,6.443,8.605
						C6.405,8.581,6.323,8.6,6.328,8.57C6.325,8.584,6.325,8.584,6.323,8.599C6.166,8.575,6.051,8.542,5.935,8.51
						c-0.31-0.109-0.694-0.126-1.046-0.146c-0.038-0.006-0.08,0.019-0.047,0.053L4.729,8.401c-0.076-0.01-0.044,0.038-0.12,0.028
						C3.987,8.42,3.401,8.252,2.841,8.156c0.138,0.046,0.236,0.099,0.381,0.117c-0.004,0.015-0.01,0.042,0.026,0.051
						c0.206,0.068,0.482,0.07,0.582,0.15c0.035,0.021,0.064,0.069,0.178,0.088L3.896,8.545C3.894,8.559,3.889,8.588,3.889,8.588
						c0.159,0.038,0.327,0.078,0.487,0.117c0,0-0.004,0.028-0.006,0.043l0.075,0.011c0.063,0.11-0.357,0.042-0.549,0.022
						C3.894,8.795,3.89,8.824,3.887,8.838l0.076,0.014L3.96,8.88C3.73,8.841,3.54,8.81,3.31,8.771
						c0.038,0.006,0.114,0.02,0.152,0.025C3.46,8.812,3.458,8.826,3.496,8.832c-0.154-0.021-0.34-0.081-0.499-0.088
						C2.956,8.749,2.983,8.8,3.096,8.841c0.114,0.026,0.191,0.048,0.308,0.064L3.398,8.934c-0.077-0.01-0.19-0.051-0.271-0.055
						c-0.041,0.005,0.069,0.06,0.028,0.064c-0.038-0.009-0.077-0.019-0.12-0.013c0.089,0.02,0.111,0.022,0.39,0.081
						c0.035,0.021,0.071,0.042,0.066,0.07C3.688,9.1,3.836,9.168,3.942,9.26C3.978,9.296,4.173,9.307,4.289,9.323z"/>
				</g>
			</g>
		</g>
		<g>
			<g>
				<g>
					<path fill="#FFD420" d="M3.985,14.945l-0.128,0.063c0.756-0.285,1.503-0.642,2.208-0.771c0.046-0.001,0.139-0.001,0.186-0.001
						c0.339-0.057,0.74-0.245,1.018-0.268c0.133-0.014,0.251-0.154,0.256-0.157c0.041-0.026,0.089-0.078,0.058-0.111
						c-0.076-0.02,0.091-0.075,0.089-0.132c0.001-0.019,0.042-0.013,0.083-0.008c0-0.06,0.145-0.162,0.191-0.158
						c0.047-0.038-0.024,0.008,0.041-0.009c0.174,0.022-0.206-0.37-0.45-0.412c-0.111-0.039,0.006-0.072,0.012-0.115
						c-0.116,0.007-0.18-0.054-0.292-0.03c0.004-0.01-0.35-0.022-0.501,0.018c0,0-0.051,0.022-0.209,0.053
						c-0.053,0.01-0.05,0.023-0.047,0.037c-0.003-0.014-0.003-0.014-0.006-0.027c-0.047,0.038-0.151,0.205-0.199,0.229
						c-0.003-0.013-0.003-0.013-0.007-0.025c-0.093,0.051-0.203,0.047-0.295,0.089c-0.005-0.014-0.005-0.014-0.01-0.024
						c-0.048,0.015-0.096,0.029-0.102,0.018c-0.004-0.014-0.004-0.014-0.009-0.024c-0.054,0.002-0.142,0.057-0.149,0.032
						c0.004,0.014,0.004,0.014,0.009,0.023c-0.105,0.031-0.273,0.078-0.48,0.14c-0.394,0.088-0.828,0.299-1.201,0.495
						c-0.043,0.019-0.073,0.062-0.019,0.064L3.9,13.904c-0.085,0.042-0.022,0.061-0.108,0.103c-0.646,0.393-0.024,0.208-0.643,0.423
						c0.162-0.034,0.291-0.037,0.452-0.118c0.005,0.015,0.016,0.041,0.058,0.025c0.255-0.082-0.797,0.229-0.646,0.222
						c0.048-0.008,0.108,0.016,0.235-0.047l-0.127,0.062c0.006,0.014,0.02,0.039,0.02,0.039c0.187-0.073-0.683,0.354-0.495,0.278
						c0,0,0.013,0.026,0.019,0.039l0.085-0.041c0.13,0.052-0.082,0.103-0.289,0.217c0.006,0.014,0.021,0.038,0.025,0.053l0.085-0.04
						l0.013,0.023c-0.257,0.121,0.332-0.12,0.068-0.011c0.044-0.02,0.132-0.057,0.176-0.074c0.006,0.014,0.011,0.026,0.055,0.008
						c-0.174,0.078-0.398,0.152-0.569,0.245c-0.04,0.03,0.02,0.057,0.16,0.019c0.137-0.051,0.225-0.088,0.355-0.146l0.012,0.025
						c-0.088,0.038-0.227,0.083-0.313,0.129c-0.041,0.03,0.106,0.006,0.067,0.036c-0.047,0.019-0.093,0.035-0.134,0.065
						c0.141-0.05,0.313-0.14,0.452-0.185c0.05-0.006,0.102-0.012,0.111,0.016c0.213-0.112,0.407-0.152,0.565-0.149
						C3.647,15.124,3.858,15.008,3.985,14.945z"/>
				</g>
			</g>
		</g>
		<g>
			<g>
				<g>
					<path fill="#FF7B20" d="M7.101,21.182l-0.043,0.07c0.299-0.373,1.308-1.678,1.673-2.019c0.03-0.017,0.088-0.047,0.118-0.063
						c0.17-0.178,0.348-0.386,0.479-0.572c0.068-0.078,0.026-0.255,0.025-0.255c0.002-0.039-0.014-0.104-0.055-0.106
						c-0.054,0.028-0.165,0.125-0.206,0.083c-0.01-0.01,0.013-0.028,0.035-0.05C9.087,18.23,9.08,18.082,9.105,18.06
						c0.003-0.042,0.097-0.237,0.104-0.284c0.054-0.104-0.313-0.076-0.455-0.009c-0.073,0.025-0.049-0.055-0.078-0.086
						c-0.046,0.061-0.104,0.053-0.148,0.111c-0.019-0.015-0.167,0.142-0.239,0.222c0,0-0.014,0.036-0.084,0.117
						c-0.023,0.027-0.014,0.036-0.001,0.046c-0.012-0.01-0.012-0.01-0.021-0.019c0,0.046-0.072,0.081-0.082,0.117
						c-0.012-0.01-0.012-0.01-0.021-0.02c-0.02,0.074-0.083,0.112-0.112,0.179c-0.012-0.01-0.012-0.01-0.022-0.019
						c-0.021,0.027-0.042,0.058-0.053,0.048c-0.012-0.009-0.013-0.009-0.022-0.019c-0.032,0.021-0.051,0.095-0.074,0.077
						c0.013,0.009,0.013,0.009,0.023,0.018c-0.084,0.112-0.155,0.189-0.221,0.269c-0.2,0.196-0.961,1.411-1.066,1.636
						c-0.015,0.024-0.008,0.062,0.027,0.052l-0.043,0.069c-0.028,0.047,0.018,0.043-0.011,0.088
						c-0.053,0.125,0.272-0.307-0.134,0.332c0.07-0.073,0.136-0.12,0.188-0.211c0.01,0.008,0.029,0.021,0.044,0.001
						c0.104-0.111-0.136,0.163-0.049,0.126c0.024-0.016,0.069-0.018,0.114-0.084l-0.044,0.065c0.01,0.007,0.031,0.02,0.031,0.02l0,0
						c0,0,0.021,0.014,0.031,0.021l0.028-0.049c0.102-0.002-0.063,0.25-0.128,0.371c0.011,0.007,0.031,0.02,0.041,0.026l0.03-0.048
						l0.021,0.016c-0.092,0.137-0.166,0.252-0.256,0.391c0.016-0.023,0.046-0.07,0.061-0.092c0.011,0.006,0.021,0.014,0.035-0.011
						c-0.058,0.095-0.151,0.195-0.198,0.3c-0.007,0.028,0.039,0.028,0.098-0.03c0.051-0.067,0.086-0.111,0.13-0.183l0.021,0.016
						c-0.029,0.047-0.09,0.106-0.115,0.158c-0.006,0.029,0.064-0.022,0.058,0.006c-0.018,0.022-0.034,0.047-0.041,0.077
						c0.051-0.068,0.109-0.165,0.163-0.229c0.025-0.018,0.052-0.034,0.071-0.021c0.066-0.124,0.158-0.198,0.256-0.236
						C6.995,21.378,7.058,21.253,7.101,21.182z"/>
				</g>
			</g>
		</g>
		<g>
			<g>
				<g>
					<path fill="#FFD420" d="M15.506,23.736l0.004,0.113c0.045-0.646-0.016-1.322,0.059-1.93c0.015-0.038,0.039-0.113,0.053-0.151
						c0.028-0.303-0.002-0.678-0.045-0.978c-0.021-0.148-0.188-0.26-0.188-0.26c-0.031-0.037-0.092-0.074-0.118-0.036
						c-0.012,0.075-0.002,0.265-0.062,0.268c-0.015,0-0.017-0.038-0.019-0.075c-0.059,0.001-0.179-0.109-0.182-0.147
						c-0.03-0.037-0.128-0.265-0.158-0.303c-0.049-0.113-0.252,0.23-0.288,0.387c-0.024,0.077-0.072,0.002-0.116,0.002
						c0.019,0.077-0.023,0.116-0.006,0.191c-0.016,0-0.02,0.229-0.014,0.347c0,0,0.017,0.038,0.021,0.151
						c0.002,0.039,0.016,0.038,0.03,0.038c-0.016,0-0.016,0-0.028,0.001c0.03,0.037,0.005,0.113,0.021,0.151
						c-0.016,0.001-0.016,0.001-0.029,0.001c0.033,0.076,0.008,0.153,0.024,0.229c-0.014,0.001-0.014,0.001-0.028,0.001
						c0.001,0.038,0.003,0.077-0.012,0.077c-0.015,0.001-0.015,0.001-0.028,0.001c-0.014,0.039,0.021,0.115-0.009,0.116
						c0.015-0.001,0.015-0.001,0.028-0.001c0.007,0.152-0.002,0.27-0.011,0.385c-0.045,0.311,0.002,0.691,0.047,1.036
						c0.002,0.038,0.032,0.074,0.061,0.033L14.52,23.5c0.004,0.077,0.045,0.035,0.049,0.111c0.102,0.606,0.058,1.227,0.128,1.834
						c0.008-0.153,0.031-0.271,0.01-0.424c0.016-0.001,0.043-0.004,0.042-0.042c0.004-0.229-0.038-0.496,0.016-0.614
						c0.013-0.04,0.054-0.081,0.049-0.196l0.005,0.115c0.016-0.002,0.044-0.004,0.044-0.004c0.007-0.163,0.015-0.337,0.021-0.499
						c0,0,0.029-0.003,0.043-0.005l-0.003-0.075c0.099-0.083,0.104,0.336,0.126,0.524c0.015-0.001,0.043-0.004,0.059-0.005
						l-0.003-0.076l0.028-0.002c0.011,0.229,0.02,0.417,0.029,0.646c-0.001-0.038-0.006-0.114-0.008-0.151
						c0.015-0.002,0.029-0.004,0.027-0.04c0.007,0.15,0.001,0.343,0.036,0.49c0.018,0.036,0.059-0.006,0.067-0.12
						c-0.006-0.113-0.01-0.188-0.015-0.304l0.028-0.002c0.003,0.074-0.006,0.189,0.013,0.265c0.017,0.036,0.04-0.079,0.057-0.043
						c0.001,0.037,0.003,0.075,0.021,0.111c-0.006-0.113-0.026-0.264-0.018-0.378c0.013-0.039,0.024-0.078,0.055-0.081
						c-0.022-0.188,0.015-0.343,0.08-0.461C15.533,24.037,15.51,23.85,15.506,23.736z"/>
				</g>
			</g>
		</g>
		<g>
			<g>
				<g>
					<path fill="#FF7B20" d="M22.984,21.132l0.066,0.094c-0.31-0.577-0.741-1.083-1.065-1.642c-0.015-0.04-0.045-0.12-0.062-0.161
						c-0.162-0.279-0.488-0.563-0.755-0.77c-0.152-0.096-0.353-0.041-0.353-0.041c-0.052-0.001-0.117,0.022-0.103,0.071
						c0.06,0.061,0.226,0.181,0.188,0.226c-0.01,0.011-0.042-0.014-0.073-0.036c-0.037,0.045-0.202,0.068-0.231,0.048
						c-0.05,0-0.279-0.059-0.322-0.054c-0.108-0.023,0.039,0.351,0.114,0.459c0.036,0.063-0.044,0.058-0.069,0.093
						c0.063,0.025,0.062,0.079,0.122,0.104c-0.008,0.009,0.127,0.162,0.2,0.23c0,0,0.033,0.014,0.106,0.082
						c0.023,0.022,0.035,0.015,0.046,0.003c-0.011,0.012-0.011,0.012-0.021,0.021c0.046,0.004,0.075,0.067,0.106,0.087
						c-0.011,0.012-0.011,0.012-0.021,0.021c0.065,0.033,0.092,0.106,0.146,0.149c-0.011,0.01-0.011,0.01-0.021,0.021
						c0.021,0.025,0.045,0.053,0.034,0.063c-0.012,0.009-0.012,0.009-0.021,0.019c0.012,0.036,0.079,0.069,0.058,0.089
						c0.012-0.01,0.012-0.01,0.021-0.02c0.093,0.104,0.146,0.194,0.195,0.292c0.125,0.259,0.398,0.548,0.614,0.794
						c0.021,0.028,0.066,0.041,0.067-0.006l0.066,0.086c0.044,0.06,0.057,0.004,0.1,0.063c0.399,0.437,0.662,0.974,1.023,1.453
						c-0.068-0.133-0.105-0.243-0.199-0.361c0.013-0.008,0.036-0.022,0.017-0.056c-0.109-0.198-0.277-0.395-0.292-0.521
						c-0.008-0.039,0.01-0.096-0.055-0.188l0.063,0.093c0.014-0.008,0.035-0.022,0.035-0.022c-0.078-0.141-0.16-0.285-0.238-0.423
						c0,0,0.022-0.018,0.035-0.026l-0.045-0.062c0.041-0.12,0.266,0.226,0.382,0.371c0.013-0.01,0.036-0.023,0.049-0.032
						l-0.042-0.063l0.023-0.016c0.125,0.188,0.229,0.344,0.354,0.532c-0.021-0.03-0.063-0.096-0.083-0.125
						c0.013-0.009,0.022-0.018,0.004-0.048c0.084,0.124,0.174,0.289,0.279,0.4c0.032,0.022,0.049-0.032,0.001-0.135
						c-0.063-0.096-0.104-0.157-0.165-0.253l0.022-0.016c0.043,0.063,0.093,0.165,0.146,0.22c0.031,0.022-0.005-0.087,0.026-0.063
						c0.022,0.03,0.042,0.06,0.073,0.087c-0.062-0.094-0.155-0.215-0.207-0.315c-0.009-0.039-0.018-0.08,0.007-0.095
						c-0.117-0.15-0.163-0.302-0.169-0.438C23.169,21.374,23.05,21.225,22.984,21.132z"/>
				</g>
			</g>
		</g>
		<g>
			<g>
				<g>
					<path fill="#FF7B20" d="M27.322,11.921l0.143,0.006c-0.807-0.121-0.825-0.226-1.598-0.316c-0.05-0.013-0.146-0.037-0.196-0.051
						c-0.388-0.046-0.892,0.042-1.28,0.126c-0.203,0.063-0.313,0.262-0.313,0.262c-0.042,0.042-0.368,0.175-0.313,0.188
						c0.101-0.012,0.339-0.076,0.351-0.019c0.003,0.015-0.044,0.025-0.092,0.04c0.012,0.057,0.313-0.008,0.269,0.005
						c-0.04,0.041,0.017,0.131-0.018,0.169c-0.109,0.076-0.064,0.392,0.099,0.394c0.088,0.007,0.019,0.071,0.027,0.113
						c0.075-0.035,0.122-0.007,0.199-0.038c0.003,0.015,0.258-0.004,0.384-0.021c0,0,0.04-0.021,0.167-0.036
						c0.042-0.007,0.04-0.021,0.039-0.035c0.001,0.016,0.001,0.016,0.003,0.028c0.039-0.035,0.127-0.017,0.17-0.029
						c0.001,0.016,0.001,0.016,0.002,0.028c0.086-0.031,0.175-0.007,0.261-0.022c0.001,0.015,0.001,0.015,0.002,0.028
						c0.043-0.003,0.087-0.005,0.087,0.011c0.001,0.016,0.001,0.016,0.001,0.029c0.044,0.014,0.131-0.021,0.131,0.01
						c0-0.016,0-0.016,0-0.028c0.172-0.012,0.303,0.005,0.435,0.026c0.349,0.063,0.082,0.183,0.479,0.154
						c0.046,0,0.089-0.029,0.046-0.059l0.132-0.002c0.087,0,0.045-0.047,0.132-0.043c0.709-0.049,1.413,0.086,2.063,0.213
						c-0.159-0.049-0.278-0.106-0.447-0.129c0.004-0.015,0.009-0.043-0.033-0.053c-0.25-0.066-0.566-0.061-0.69-0.14
						c-0.042-0.018-0.08-0.073-0.216-0.079c0.044,0.004,0.09,0.006,0.134,0.012c0.001-0.017,2.029,0.263,2.029,0.263
						c-0.188-0.024-0.392-0.052-0.582-0.076c0,0,0.003-0.026,0.002-0.044l-0.091-0.004c-0.087-0.106,0.415-0.068,0.644-0.07
						c0.002-0.015,0.005-0.044,0.006-0.059l-0.094-0.006l0.004-0.027c0.274,0.021-1.523-0.249-1.248-0.218
						c-0.046-0.005-0.138-0.017-0.183-0.022c0.001-0.014,2.029,0.278,1.983,0.271c0.187,0.017-1.617-0.236-1.431-0.219
						c0.048-0.004,0.014-0.059-0.122-0.103c-0.139-0.033-0.229-0.045-0.368-0.06l0.004-0.028c0.064,0.01,0.075,0.011,0.323,0.051
						c0.05-0.004-0.085-0.063-0.035-0.067c0.049,0.012,0.095,0.021,0.144,0.018c-0.14-0.038-0.329-0.051-0.468-0.078
						c-0.044-0.02-0.09-0.041-0.086-0.068c-0.237-0.014-0.421-0.088-0.559-0.161C27.702,11.925,27.464,11.927,27.322,11.921z"/>
				</g>
			</g>
		</g>
		<g>
			<g>
				<g>
					<path fill="#FFD420" d="M24.926,16.657l0.052,0.035c-0.242-0.267-0.569-0.451-0.818-0.69c-0.011-0.022-0.035-0.069-0.046-0.094
						c-0.117-0.123-0.338-0.202-0.523-0.241c-0.093-0.021-0.206,0.105-0.206,0.105c-0.029,0.02-0.067,0.066-0.058,0.104
						c0.034,0.029,0.134,0.067,0.112,0.122c-0.004,0.015-0.023,0.007-0.043-0.001c-0.021,0.053-0.115,0.14-0.133,0.133
						c-0.027,0.021-0.162,0.063-0.188,0.082c-0.063,0.021,0.031,0.293,0.074,0.358c0.021,0.041-0.024,0.069-0.037,0.109
						c0.034,0,0.034,0.047,0.071,0.047c-0.005,0.014,0.08,0.063,0.125,0.079c0,0,0.021-0.007,0.065,0.01
						c0.018,0.008,0.021-0.007,0.028-0.02c-0.007,0.013-0.007,0.013-0.013,0.024c0.026-0.021,0.046,0.024,0.068,0.021
						c-0.008,0.013-0.008,0.013-0.015,0.025c0.045-0.009,0.063,0.034,0.102,0.038c-0.008,0.014-0.008,0.014-0.016,0.025
						c0.018,0.01,0.031,0.018,0.025,0.029c-0.008,0.015-0.008,0.015-0.015,0.025c0.008,0.021,0.053,0.013,0.038,0.039
						c0.009-0.014,0.009-0.014,0.017-0.025c0.062,0.036,0.102,0.075,0.14,0.112c0.099,0.114,0.26,0.182,0.402,0.254
						c0.015,0.011,0.046-0.005,0.048-0.037l0.044,0.029c0.027,0.02,0.039-0.025,0.067-0.005c0.303,0.1,1.546,1.104,1.774,1.243
						c-0.036-0.052-0.052-0.104-0.111-0.14c0.012-0.011,0.031-0.03,0.021-0.042c-0.064-0.078-0.168-0.139-0.167-0.219
						c-0.005-0.021,0.016-0.068-0.029-0.101c0.017,0.01,0.029,0.021,0.041,0.033c0.01-0.011,0.027-0.034,0.027-0.034
						c-0.044-0.058-0.117-0.119-0.168-0.176c0,0,0.016-0.023,0.024-0.036l-0.031-0.021c0.029-0.104,0.194,0.027,0.279,0.072
						c0.01-0.012,0.027-0.033,0.037-0.045l-0.03-0.022l0.018-0.023c0.091,0.075,0.158,0.146,0.246,0.225
						c-0.017-0.013-0.043-0.041-0.059-0.054c0.012-0.011,0.021-0.021,0.006-0.034c0.059,0.055,0.118,0.131,0.197,0.166
						c0.024,0.005,0.043-0.039,0.009-0.09c-0.044-0.044-0.073-0.07-0.118-0.113l0.021-0.021c0.029,0.029,0.064,0.081,0.104,0.1
						c0.023,0.004,0.002-0.06,0.026-0.056c0.016,0.015,0.028,0.029,0.055,0.034c-0.046-0.044-0.115-0.092-0.151-0.146
						c-0.006-0.024-0.012-0.052,0.009-0.071c-0.089-0.06-1.251-0.922-1.26-1.01C25.071,16.741,24.977,16.693,24.926,16.657z"/>
				</g>
			</g>
		</g>
		<g>
			<g>
				<g>
					<path fill="#FFD420" d="M24.521,6.41l0.082-0.062c-0.513,0.285-0.948,0.692-1.418,0.924c-0.034,0.008-0.104,0.021-0.138,0.028
						c-0.229,0.128-0.464,0.297-0.646,0.447c-0.084,0.064-0.083,0.235-0.083,0.235c-0.012,0.038-0.014,0.104,0.023,0.117
						C22.4,8.088,22.53,8.031,22.559,8.08c0.008,0.015-0.021,0.024-0.046,0.038c0.028,0.05-0.004,0.192-0.033,0.208
						c-0.015,0.039-0.16,0.205-0.185,0.248c-0.085,0.084,0.278,0.159,0.445,0.127c0.083-0.008,0.033,0.063,0.053,0.104
						c0.063-0.049,0.129-0.023,0.182-0.077c0.007,0.014,0.195-0.092,0.287-0.15c0,0,0.021-0.032,0.111-0.092
						c0.029-0.021,0.021-0.031,0.015-0.044c0.008,0.013,0.008,0.013,0.017,0.023c0.017-0.043,0.086-0.062,0.104-0.093
						c0.01,0.012,0.01,0.012,0.018,0.022c0.038-0.063,0.11-0.082,0.156-0.135c0.009,0.012,0.009,0.012,0.019,0.022
						c0.026-0.021,0.055-0.041,0.063-0.029s0.009,0.012,0.019,0.022c0.035-0.009,0.072-0.073,0.091-0.05
						c-0.01-0.013-0.01-0.013-0.019-0.022c0.111-0.083,0.198-0.134,0.285-0.185c0.247-0.122,0.486-0.351,0.695-0.552
						c0.024-0.021,0.032-0.063-0.011-0.066L24.9,7.339c0.052-0.04-0.001-0.056,0.051-0.094c0.358-0.359,0.823-0.607,1.171-0.782
						C26.025,6.498,25.94,6.504,25.85,6.56c-0.008-0.014-0.021-0.039-0.045-0.027c-0.159,0.064-0.325,0.219-0.436,0.214
						c-0.034,0.005-0.086-0.019-0.163,0.042l0.078-0.057c-0.01-0.012-0.025-0.036-0.025-0.036c-0.118,0.07-0.242,0.145-0.362,0.215
						c0,0-0.019-0.022-0.025-0.035l-0.053,0.039c-0.113-0.042,0.185-0.245,0.308-0.354c-0.008-0.013-0.023-0.036-0.032-0.048
						l-0.055,0.04l-0.018-0.023c0.16-0.116,0.307-0.197,0.473-0.306c-0.028,0.019-0.084,0.053-0.112,0.07
						c-0.008-0.012-0.015-0.024-0.043-0.007c0.067-0.04,0.021-0.012,0.375-0.222c0.025-0.026-0.021-0.053-0.125-0.022
						c-0.1,0.04-0.151,0.081-0.237,0.134l-0.017-0.024c0.035-0.021,0.026-0.017,0.208-0.12c0.025-0.028-0.085-0.01-0.061-0.037
						c0.033-0.016,0.064-0.03,0.094-0.059c-0.105,0.04-0.214,0.127-0.309,0.171c-0.036,0.006-0.073,0.013-0.089-0.014
						c-0.14,0.105-0.282,0.144-0.403,0.146C24.732,6.236,24.604,6.349,24.521,6.41z"/>
				</g>
			</g>
		</g>
		<g>
			<g>
				<g>
					<path fill="#FFD420" d="M16.109,1.843l0.002-0.114C16.03,2.38,16.039,3.06,15.965,3.703c-0.014,0.04-0.04,0.12-0.054,0.159
						c-0.035,0.319-0.01,0.719,0.028,1.033c0.02,0.157,0.183,0.264,0.183,0.264c0.029,0.036,0.089,0.07,0.116,0.028
						c0.013-0.08,0.008-0.274,0.063-0.278c0.016-0.001,0.017,0.038,0.018,0.076c0.061-0.005,0.18,0.103,0.181,0.141
						c0.029,0.037,0.123,0.259,0.152,0.294c0.049,0.108,0.253-0.256,0.293-0.409c0.027-0.077,0.073-0.006,0.116-0.01
						c-0.018-0.074,0.025-0.115,0.01-0.188c0.016-0.001,0.021-0.228,0.021-0.339c0,0-0.016-0.037-0.019-0.148
						c-0.002-0.037-0.017-0.037-0.029-0.036c0.015,0,0.015,0,0.027-0.001c-0.029-0.037-0.003-0.113-0.02-0.148
						c0.016,0,0.016,0,0.029-0.002C17.05,4.065,17.077,3.99,17.06,3.914c0.016,0,0.016,0,0.027-0.001
						c-0.001-0.038-0.002-0.075,0.014-0.075s0.016,0,0.028,0c0.015-0.038-0.019-0.111,0.013-0.111c-0.016,0-0.016,0-0.029,0
						c-0.004-0.148,0.008-0.262,0.02-0.373c0.042-0.291,0.026-0.687,0.001-1.035c0.001-0.038-0.027-0.077-0.058-0.04l0.002-0.115
						c0.001-0.078-0.043-0.039-0.042-0.117c-0.063-0.621,0.019-1.24-0.018-1.858c-0.018,0.154-0.048,0.271-0.035,0.427
						c-0.016,0-0.044,0-0.044,0.038c-0.02,0.231,0.007,0.504-0.053,0.619c-0.017,0.039-0.061,0.078-0.063,0.192l0.002-0.116
						c-0.016,0-0.044,0-0.044,0c-0.018,0.165-0.034,0.338-0.052,0.503c0,0-0.028,0-0.043,0l-0.002,0.076
						C16.584,2,16.605,1.576,16.593,1.383c-0.015,0-0.043,0-0.058,0L16.534,1.46h-0.029c0.003-0.23,0.007-0.423,0.011-0.654
						c-0.001,0.038-0.002,0.115-0.003,0.153c-0.016,0-0.028,0-0.029,0.039c0.002-0.154,0.021-0.348-0.007-0.5
						c-0.016-0.038-0.06,0-0.075,0.116c-0.001,0.114-0.002,0.191-0.004,0.308H16.37c0.001-0.077,0.019-0.191,0.004-0.27
						c-0.015-0.038-0.045,0.077-0.06,0.039c0.001-0.039,0.001-0.076-0.014-0.114c-0.002,0.114,0.012,0.27-0.006,0.384
						C16.281,1,16.266,1.038,16.236,1.038c0.013,0.191-0.033,0.346-0.107,0.46C16.1,1.537,16.111,1.729,16.109,1.843z"/>
				</g>
			</g>
		</g>
		<g>
			<g>
				<g>
					<path fill="#FF7B20" d="M20.607,3.094l0.06-0.091c-0.408,0.474-0.693,1.055-1.043,1.52c-0.029,0.024-0.09,0.076-0.119,0.103
						c-0.168,0.236-0.3,0.565-0.396,0.835c-0.047,0.135,0.055,0.298,0.055,0.298c0.012,0.044,0.049,0.101,0.091,0.08
						c0.043-0.058,0.117-0.217,0.17-0.191c0.015,0.006-0.001,0.038-0.018,0.069c0.054,0.024,0.114,0.168,0.101,0.2
						c0.013,0.044,0.002,0.271,0.015,0.313c-0.004,0.111,0.327-0.082,0.425-0.188C20,5.99,20.011,6.07,20.05,6.089
						c0.018-0.068,0.07-0.082,0.088-0.149c0.013,0.006,0.112-0.175,0.156-0.27c0,0,0.001-0.037,0.045-0.131
						c0.016-0.031,0.002-0.038-0.012-0.044c0.014,0.006,0.014,0.006,0.025,0.013c-0.013-0.044,0.044-0.094,0.046-0.131
						c0.014,0.006,0.014,0.006,0.024,0.014c0.004-0.075,0.06-0.125,0.075-0.192c0.014,0.006,0.014,0.006,0.025,0.013
						c0.017-0.029,0.031-0.061,0.045-0.053c0.014,0.006,0.014,0.006,0.024,0.013c0.029-0.022,0.034-0.096,0.062-0.083
						c-0.013-0.006-0.013-0.006-0.025-0.013c0.063-0.12,0.124-0.202,0.186-0.285c0.182-0.208,0.298-0.531,0.441-0.79
						c0.019-0.027,0.012-0.071-0.031-0.059l0.054-0.084c0.036-0.057-0.02-0.051,0.019-0.107c0.207-0.508,0.619-0.869,0.908-1.322
						c-0.094,0.097-0.178,0.157-0.248,0.272c-0.013-0.01-0.034-0.027-0.056-0.001c-0.137,0.15-0.258,0.354-0.366,0.398
						c-0.031,0.02,0.826-1.202,0.771-1.117c0.018-0.028,0.039-0.056,0.06-0.083c-0.012-0.009-0.035-0.025-0.035-0.025
						c-0.096,0.101,0.267-0.424,0.178-0.317c0,0-0.023-0.017-0.036-0.023L22.436,1.59c-0.122,0.004-0.365,0.353-0.28,0.201
						c-0.012-0.008-0.035-0.025-0.047-0.033c-0.002-0.001-0.04,0.058-0.04,0.058l-0.022-0.017c0.128-0.167-0.687,0.913-0.559,0.746
						c-0.021,0.028-0.063,0.083-0.086,0.11c-0.012-0.01-0.022-0.02-0.045,0.01c0.087-0.111,0.206-0.24,0.271-0.369
						c0.012-0.037-0.045-0.037-0.121,0.037c-0.064,0.084-0.108,0.141-0.175,0.224L21.31,2.538c0.043-0.057,0.12-0.131,0.151-0.196
						c0.012-0.037-0.078,0.029-0.066-0.008c0.021-0.027,0.044-0.058,0.056-0.094c-0.066,0.084-0.144,0.205-0.221,0.28
						c-0.033,0.021-0.066,0.039-0.091,0.021c-0.097,0.151-0.229,0.232-0.343,0.286C20.751,2.843,20.666,3.004,20.607,3.094z"/>
				</g>
			</g>
		</g>
	</g>
</g>
</svg>
