<?xml version="1.0" encoding="utf-8"?>
<!-- Generator: Adobe Illustrator 19.0.0, SVG Export Plug-In . SVG Version: 6.00 Build 0)  -->
<svg version="1.1" id="Capa_1" xmlns="http://www.w3.org/2000/svg" xmlns:xlink="http://www.w3.org/1999/xlink" x="0px" y="0px"
	 viewBox="-223 25 512 512" style="enable-background:new -223 25 512 512;" xml:space="preserve">
<style type="text/css">
	.st0{fill:url(#SVGID_1_);}
	.st1{fill:url(#SVGID_2_);}
</style>
<g>
	<g>
		<linearGradient id="SVGID_1_" gradientUnits="userSpaceOnUse" x1="-145.8295" y1="102.1705" x2="211.8295" y2="459.8295">
			<stop  offset="0" style="stop-color:#F16528"/>
			<stop  offset="0.5269" style="stop-color:#F6921E"/>
			<stop  offset="1" style="stop-color:#FFAE41"/>
		</linearGradient>
		<path class="st0" d="M33,28c-139.5,0-253,113.5-253,253s113.5,253,253,253s253-113.5,253-253S172.5,28,33,28z M33,492.3
			c-116.5,0-211.3-94.8-211.3-211.3S-83.5,69.7,33,69.7S244.3,164.5,244.3,281S149.5,492.3,33,492.3z"/>
		<linearGradient id="SVGID_2_" gradientUnits="userSpaceOnUse" x1="-22.2909" y1="155.2007" x2="169.2845" y2="346.776">
			<stop  offset="0" style="stop-color:#F16528"/>
			<stop  offset="0.5269" style="stop-color:#F6921E"/>
			<stop  offset="1" style="stop-color:#FFAE41"/>
		</linearGradient>
		<path class="st1" d="M53.9,272.7V129.4c0-11.5-9.3-20.9-20.9-20.9c-11.5,0-20.9,9.3-20.9,20.9V281c0,6.4,3,12.2,7.6,16
			c0.2,0.2,0.3,0.5,0.5,0.7l78.2,88.7c4.2,4.6,9.9,7,15.6,7c4.8,0,9.8-1.7,13.7-5.2c8.6-7.6,9.5-20.8,1.9-29.5L53.9,272.7z"/>
	</g>
</g>
</svg>
