<?xml version="1.0" encoding="utf-8"?>
<!-- Generator: Adobe Illustrator 16.0.0, SVG Export Plug-In . SVG Version: 6.00 Build 0)  -->
<!DOCTYPE svg PUBLIC "-//W3C//DTD SVG 1.1//EN" "http://www.w3.org/Graphics/SVG/1.1/DTD/svg11.dtd">
<svg version="1.1" id="Layer_1" xmlns="http://www.w3.org/2000/svg" xmlns:xlink="http://www.w3.org/1999/xlink" x="0px" y="0px"
	 width="24.762px" height="23.125px" viewBox="0 0 24.762 23.125" enable-background="new 0 0 24.762 23.125" xml:space="preserve">
<path fill="#318881" d="M0.076,11.564C-0.676,5.177,4.223,0,11.023,0c6.795,0,12.91,5.177,13.662,11.563
	c0.752,6.388-4.146,11.562-10.938,11.562C6.947,23.125,0.828,17.949,0.076,11.564z M5.339,15.947
	c0.184,0.429,0.475,0.841,0.82,1.021c-0.332-0.604-0.688-1.647-0.607-1.829c0.203-0.703,1.145,0.497,1.145,0.497
	s-1.14-1.581-1-2.036c0.067-0.8,1.979,1.082,1.979,1.082S5.55,12.507,5.863,12.2c0.254-0.248,0.98-0.136,1.514,0.407
	c0.818,0.838,2.121,1.521,2.121,1.521s-0.563-0.293-1.033-0.771c-0.729-0.733-1.59-1.75-1.664-2.017
	c-0.138-0.536,1.138-0.806,2.093,0.246c0.955,1.062,2.522,2.024,4.095,2.521c1.166,0.367,2.636,0.401,2.636,0.401
	s-0.651-0.28-0.96-0.456c-0.31-0.181-0.563-0.438-0.563-0.438s-1.296-0.215-1.938-0.737c-0.648-0.528-0.163-1.523-0.163-1.523
	s0.472,0.104,1.152,0.209c0.687,0.103,0.171,0,1.188,0.106c1.023,0.106,2.041,0.521,2.207,0.602
	c0.354,0.062,1.313-0.229,2.125-0.043c1.729,0.392,2.648,1.726,3.582,1.801c0.271-0.68,0.33-1.385,0.041-2.002
	c0.063-0.018,0.123-0.04,0.197-0.063c1.539-0.521,1.19-3.142-1.64-4.093c-2.834-0.952-4.536-1.026-4.979-1.835
	c-0.44-0.801,1.918-0.678,1.734-1.327c-0.182-0.644-3.859-0.094-2.84,1.51c1.02,1.61,4.775,1.052,6.385,2.888
	c0.979,1.1,0.813,1.8,0.535,2.183c-0.063-0.043-0.107-0.103-0.182-0.147c-0.303-0.197-2.688-2.125-6.236-2.003
	c-1.869,0.063-3.707,1.22-3.707,1.22c-0.619,0.44-2.188,0.351-2.188,0.351s-0.744,0-1.146-0.292C7.83,10.121,7.287,9.26,6.789,8.94
	C6.335,8.644,5.313,8.283,5.13,8.217c0.007-0.051-1.455-1.198-1.834-1.091C2.874,7.246,3.665,8.583,3.657,8.78
	c-0.148,0.067-0.33,0.027-0.484,0.423c0,0-0.529-0.33-0.688-0.248C2.333,9.03,2.87,9.518,2.774,9.625
	c-0.09,0.101-0.375,0.152-0.529,0.502c-0.154,0.357-0.07,0.778-0.106,0.961c-0.037,0.187-0.442,0.548-0.479,0.774
	c-0.032,0.23,0.072,0.287,0.156,0.38c0.088,0.093,0.109,0.484,0.354,0.683c0.244,0.19,0.549,0.007,0.64,0.138
	c0.091,0.139,0.345,0.166,0.58,0.147c0.233-0.011,0.771-0.115,0.961,0.034C4.535,13.395,5.031,15.605,5.339,15.947z"/>
<path fill="#FFFFFF" d="M5.339,15.947c0.184,0.429,0.475,0.841,0.82,1.021c-0.332-0.604-0.688-1.647-0.607-1.829
	c0.203-0.703,1.145,0.497,1.145,0.497s-1.14-1.581-1-2.036c0.067-0.8,1.979,1.082,1.979,1.082S5.55,12.507,5.863,12.2
	c0.254-0.248,0.98-0.136,1.514,0.407c0.818,0.838,2.121,1.521,2.121,1.521s-0.563-0.293-1.033-0.771
	c-0.729-0.733-1.59-1.75-1.664-2.017c-0.138-0.536,1.138-0.806,2.093,0.246c0.955,1.062,2.522,2.024,4.095,2.521
	c1.166,0.367,2.636,0.401,2.636,0.401s-0.651-0.28-0.96-0.456c-0.31-0.181-0.563-0.438-0.563-0.438s-1.296-0.215-1.938-0.737
	c-0.648-0.528-0.163-1.523-0.163-1.523s0.472,0.104,1.152,0.209c0.687,0.103,0.171,0,1.188,0.106
	c1.023,0.106,2.041,0.521,2.207,0.602c0.354,0.062,1.313-0.229,2.125-0.043c1.729,0.392,2.648,1.726,3.582,1.801
	c0.271-0.68,0.33-1.385,0.041-2.002c0.063-0.018,0.123-0.04,0.197-0.063c1.539-0.521,1.19-3.142-1.64-4.093
	c-2.834-0.952-4.536-1.026-4.979-1.835c-0.44-0.801,1.918-0.678,1.734-1.327c-0.182-0.644-3.859-0.094-2.84,1.51
	c1.02,1.61,4.775,1.052,6.385,2.888c0.979,1.1,0.813,1.8,0.535,2.183c-0.063-0.043-0.107-0.103-0.182-0.147
	c-0.303-0.197-2.688-2.125-6.236-2.003c-1.869,0.063-3.707,1.22-3.707,1.22c-0.619,0.44-2.188,0.351-2.188,0.351
	s-0.744,0-1.146-0.292C7.83,10.121,7.287,9.26,6.789,8.94C6.335,8.644,5.313,8.283,5.13,8.217c0.007-0.051-1.455-1.198-1.834-1.091
	C2.874,7.246,3.665,8.583,3.657,8.78c-0.148,0.067-0.33,0.027-0.484,0.423c0,0-0.529-0.33-0.688-0.248
	C2.333,9.03,2.87,9.518,2.774,9.625c-0.09,0.101-0.375,0.152-0.529,0.502c-0.154,0.357-0.07,0.778-0.106,0.961
	c-0.037,0.187-0.442,0.548-0.479,0.774c-0.032,0.23,0.072,0.287,0.156,0.38c0.088,0.093,0.109,0.484,0.354,0.683
	c0.244,0.19,0.549,0.007,0.64,0.138c0.091,0.139,0.345,0.166,0.58,0.147c0.233-0.011,0.771-0.115,0.961,0.034
	C4.535,13.395,5.031,15.605,5.339,15.947z"/>
</svg>
