<?xml version="1.0" encoding="utf-8"?>
<!-- Generator: Adobe Illustrator 19.0.0, SVG Export Plug-In . SVG Version: 6.00 Build 0)  -->
<svg version="1.1" id="Capa_1" xmlns="http://www.w3.org/2000/svg" xmlns:xlink="http://www.w3.org/1999/xlink" x="0px" y="0px"
	 viewBox="240 -240 512 512" style="enable-background:new 240 -240 512 512;" xml:space="preserve">
<style type="text/css">
	.st0{fill:#2FB5AA;}
</style>
<g>
	<g>
		<path class="st0" d="M496-237c-139.5,0-253,113.5-253,253s113.5,253,253,253S749,155.5,749,16S635.5-237,496-237z M496,227.3
			c-116.5,0-211.3-94.8-211.3-211.3S379.5-195.3,496-195.3S707.3-100.5,707.3,16S612.5,227.3,496,227.3z"/>
		<path class="st0" d="M516.9,7.7v-143.3c0-11.5-9.3-20.9-20.9-20.9c-11.5,0-20.9,9.3-20.9,20.9V16c0,6.4,3,12.2,7.6,16
			c0.2,0.2,0.3,0.5,0.5,0.7l78.2,88.7c4.2,4.6,9.9,7,15.6,7c4.8,0,9.8-1.7,13.7-5.2c8.6-7.6,9.5-20.8,1.9-29.5L516.9,7.7z"/>
	</g>
</g>
</svg>
