<?xml version="1.0" encoding="utf-8"?>
<!-- Generator: Adobe Illustrator 16.0.0, SVG Export Plug-In . SVG Version: 6.00 Build 0)  -->
<!DOCTYPE svg PUBLIC "-//W3C//DTD SVG 1.1//EN" "http://www.w3.org/Graphics/SVG/1.1/DTD/svg11.dtd">
<svg version="1.1" id="Layer_1" xmlns="http://www.w3.org/2000/svg" xmlns:xlink="http://www.w3.org/1999/xlink" x="0px" y="0px"
	 width="28.263px" height="30.829px" viewBox="9.501 6.296 28.263 30.829" enable-background="new 9.501 6.296 28.263 30.829"
	 xml:space="preserve">
<g>
	<g>
		
			<linearGradient id="SVGID_1_" gradientUnits="userSpaceOnUse" x1="21.2898" y1="-3038.7368" x2="23.8212" y2="-3028.6096" gradientTransform="matrix(1 0 0 -1 0 -3010.1611)">
			<stop  offset="0" style="stop-color:#E7C057"/>
			<stop  offset="0.418" style="stop-color:#E7C057"/>
			<stop  offset="0.5892" style="stop-color:#D3B04F"/>
			<stop  offset="0.9368" style="stop-color:#A1883C"/>
			<stop  offset="1" style="stop-color:#978038"/>
		</linearGradient>
		<path fill="url(#SVGID_1_)" d="M34.5,18.928c0.146,1.566-0.054,3.438-0.581,5.677c-1.571,6.666-6.897,11.646-10.606,11.646
			S14.277,31.272,12.7,24.604c-0.527-2.238-0.724-4.107-0.58-5.678H9.55c-0.196,2.064,0.238,4.193,0.699,5.887
			c1.96,7.256,8.457,12.313,13.063,12.313c4.604,0,11.104-5.063,13.063-12.313c0.458-1.689,0.896-3.818,0.7-5.887L34.5,18.928
			L34.5,18.928z"/>
		
			<linearGradient id="SVGID_2_" gradientUnits="userSpaceOnUse" x1="23.1511" y1="-3026.8921" x2="22.7848" y2="-3021.6553" gradientTransform="matrix(1 0 0 -1 0 -3010.1611)">
			<stop  offset="0.0049" style="stop-color:#FFD77D"/>
			<stop  offset="0.0553" style="stop-color:#F8D172"/>
			<stop  offset="0.1581" style="stop-color:#EFC763"/>
			<stop  offset="0.277" style="stop-color:#E9C25A"/>
			<stop  offset="0.4475" style="stop-color:#E7C057"/>
			<stop  offset="1" style="stop-color:#978038"/>
		</linearGradient>
		<path fill="url(#SVGID_2_)" d="M13.439,15.228c1.659-2.179,4.982-3.283,9.869-3.283c4.888,0,8.208,1.105,9.867,3.283
			c0.754,0.987,1.188,2.206,1.319,3.7h2.57c-0.147-1.514-0.643-2.992-1.729-4.242c-2.114-2.434-6.055-3.618-12.031-3.618
			c-5.978,0-9.915,1.184-12.035,3.617c-1.087,1.25-1.575,2.729-1.727,4.243h2.569C12.253,17.435,12.686,16.213,13.439,15.228z"/>
	</g>
	<g>
		<polygon fill="#4C0214" points="34.499,18.926 34.495,18.928 34.499,18.928 		"/>
	</g>
	<g>
		
			<linearGradient id="SVGID_3_" gradientUnits="userSpaceOnUse" x1="21.3152" y1="-3041.9019" x2="27.7222" y2="-3027.5569" gradientTransform="matrix(1 0 0 -1 0 -3010.1611)">
			<stop  offset="0" style="stop-color:#E7C057"/>
			<stop  offset="0.418" style="stop-color:#E7C057"/>
			<stop  offset="0.5892" style="stop-color:#D3B04F"/>
			<stop  offset="0.9368" style="stop-color:#A1883C"/>
			<stop  offset="1" style="stop-color:#978038"/>
		</linearGradient>
		<path fill="url(#SVGID_3_)" d="M28.876,27.282c-0.601,0.744-1.123,1.131-1.703,1.314c-2.753,0.877-6.154,0.139-8.574,0.369
			l3.795-10.043h-2.187L15.767,30.69c0.167-0.074,0.313-0.125,0.488-0.186c3.835-1.226,8.568,1.574,11.487,0.793
			C28.91,30.935,29.34,29.374,28.876,27.282z"/>
		
			<linearGradient id="SVGID_4_" gradientUnits="userSpaceOnUse" x1="16.6042" y1="-3026.2954" x2="28.6207" y2="-3026.2954" gradientTransform="matrix(1 0 0 -1 0 -3010.1611)">
			<stop  offset="0.0049" style="stop-color:#FFD77D"/>
			<stop  offset="0.0553" style="stop-color:#F8D172"/>
			<stop  offset="0.1581" style="stop-color:#EFC763"/>
			<stop  offset="0.277" style="stop-color:#E9C25A"/>
			<stop  offset="0.4475" style="stop-color:#E7C057"/>
			<stop  offset="1" style="stop-color:#978038"/>
		</linearGradient>
		<path fill="url(#SVGID_4_)" d="M24.487,13.388c-0.297-0.021-0.591-0.045-0.911-0.045c-3.811,0-4.766,1.612-4.808,2.963
			c-0.023,0.731,0.258,1.435,0.983,1.474c-0.126-0.007-0.203-0.236-0.173-0.938c0.046-0.865,0.604-1.662,2.013-1.712l-1.381,3.796
			h2.187L24.487,13.388z"/>
	</g>
	<g>
		<g>
			<g>
				
					<linearGradient id="SVGID_5_" gradientUnits="userSpaceOnUse" x1="-107.0901" y1="-2995.3218" x2="-94.2888" y2="-2977.1064" gradientTransform="matrix(1.0025 0.0223 -0.0834 -0.9994 -116.3242 -2965.2466)">
					<stop  offset="0" style="stop-color:#AB9040"/>
					<stop  offset="0.177" style="stop-color:#C6A54A"/>
					<stop  offset="0.3769" style="stop-color:#DEB954"/>
					<stop  offset="0.5" style="stop-color:#E7C057"/>
					<stop  offset="0.6231" style="stop-color:#DEB954"/>
					<stop  offset="0.823" style="stop-color:#C6A54A"/>
					<stop  offset="1" style="stop-color:#AB9040"/>
				</linearGradient>
				<path fill="url(#SVGID_5_)" d="M21.04,25.19c1.242-2.479,4.12-5.669,4.931-6.548c3.557-3.876,7.422-6.517,7.135-10.723
					c-0.04-0.586-0.317-1.353-0.282-1.565c0.042-0.262,1.42,0.421,2.262,1.095c1.147,0.921,2.189,2.464,2.447,4.14
					c0.025,0.168-0.016,0.337-0.104,0.482c-0.063,0.102-0.095,0.2-0.175,0.303c0.258-0.023,0.497,0.096,0.508,0.37
					c0.038,1.3-0.244,3.162-0.771,4.163c-0.178,0.325-0.332,0.533-0.646,0.797c0.259,0.244,0.099,0.758-0.063,1.033
					c-1.683,2.864-3.985,4.701-6.723,6.116c-1.946,1.006-4.579,1.681-6.91,2.474c-1.96,0.661-2.127,0.821-2.608,1
					C19.813,28.315,20.237,26.795,21.04,25.19z"/>
				<g>
					
						<linearGradient id="SVGID_6_" gradientUnits="userSpaceOnUse" x1="-98.2297" y1="-2994.6401" x2="-98.2297" y2="-2978.4739" gradientTransform="matrix(1.0025 0.0223 -0.0834 -0.9994 -116.3242 -2965.2466)">
						<stop  offset="0.5" style="stop-color:#FFFFFF"/>
						<stop  offset="0.5919" style="stop-color:#F9F0D7"/>
						<stop  offset="0.7294" style="stop-color:#F1DBA0"/>
						<stop  offset="0.8482" style="stop-color:#ECCC78"/>
						<stop  offset="0.9423" style="stop-color:#E8C360"/>
						<stop  offset="1" style="stop-color:#E7C057"/>
					</linearGradient>
					<path fill="url(#SVGID_6_)" d="M35.135,17.735c-1.062,0.816-2.063,1.408-2.063,1.408l1.613-0.01c0,0,0.414-0.514,0.596-0.914
						c0.174-0.377,0.361-0.84,0.361-0.84L35.135,17.735z"/>
					
						<linearGradient id="SVGID_7_" gradientUnits="userSpaceOnUse" x1="-100.5881" y1="-2995.146" x2="-100.5881" y2="-2976.8108" gradientTransform="matrix(1.0025 0.0223 -0.0834 -0.9994 -116.3242 -2965.2466)">
						<stop  offset="0.5" style="stop-color:#FFFFFF"/>
						<stop  offset="0.5919" style="stop-color:#F9F0D7"/>
						<stop  offset="0.7294" style="stop-color:#F1DBA0"/>
						<stop  offset="0.8482" style="stop-color:#ECCC78"/>
						<stop  offset="0.9423" style="stop-color:#E8C360"/>
						<stop  offset="1" style="stop-color:#E7C057"/>
					</linearGradient>
					<path fill="url(#SVGID_7_)" d="M28.591,19.006c2.641-2.049,5.62-4.708,8.034-7.596c-0.229-1.318-1.552-3.238-2.688-3.807
						c0.391,4.883-5.646,9.813-7.064,11.558L28.591,19.006z"/>
					
						<linearGradient id="SVGID_8_" gradientUnits="userSpaceOnUse" x1="-99.4309" y1="-2996.6045" x2="-99.4309" y2="-2977.1353" gradientTransform="matrix(1.0025 0.0223 -0.0834 -0.9994 -116.3242 -2965.2466)">
						<stop  offset="0.5" style="stop-color:#FFFFFF"/>
						<stop  offset="0.5919" style="stop-color:#F9F0D7"/>
						<stop  offset="0.7294" style="stop-color:#F1DBA0"/>
						<stop  offset="0.8482" style="stop-color:#ECCC78"/>
						<stop  offset="0.9423" style="stop-color:#E8C360"/>
						<stop  offset="1" style="stop-color:#E7C057"/>
					</linearGradient>
					<path fill="url(#SVGID_8_)" d="M29.542,19.027l2.267,0.046c1.759-1.113,3.325-2.21,4.332-3.107
						c0.358-0.949,0.549-1.972,0.521-3.069c-2.188,2.474-4.888,4.617-7.381,6.31C29.37,19.144,29.454,19.088,29.542,19.027z"/>
				</g>
			</g>
		</g>
		
			<linearGradient id="SVGID_9_" gradientUnits="userSpaceOnUse" x1="-105.6013" y1="-2996.6133" x2="-105.6013" y2="-2988.3618" gradientTransform="matrix(1.0025 0.0223 -0.0834 -0.9994 -116.3242 -2965.2466)">
			<stop  offset="0.5" style="stop-color:#E7C057"/>
			<stop  offset="1" style="stop-color:#978038"/>
		</linearGradient>
		<path fill="url(#SVGID_9_)" d="M29.28,19.206c-0.269,0.18-0.535,0.365-0.796,0.535c-1.486,0.975-2.889,1.77-4.08,2.379
			c-0.617,0.672-1.195,1.353-1.688,2.045c0.224-0.107,0.468-0.228,0.716-0.35c2.262-1.125,5.561-2.957,8.375-4.742l-2.267-0.046
			C29.454,19.088,29.37,19.144,29.28,19.206z"/>
		
			<linearGradient id="SVGID_10_" gradientUnits="userSpaceOnUse" x1="-105.9368" y1="-2995.8013" x2="-105.9368" y2="-2988.3677" gradientTransform="matrix(1.0025 0.0223 -0.0834 -0.9994 -116.3242 -2965.2466)">
			<stop  offset="0.5" style="stop-color:#E7C057"/>
			<stop  offset="1" style="stop-color:#978038"/>
		</linearGradient>
		<path fill="url(#SVGID_10_)" d="M25.03,21.458c1.075-0.68,2.14-1.346,3.56-2.449l-1.72,0.154
			C26.302,19.799,25.668,20.525,25.03,21.458z"/>
		
			<linearGradient id="SVGID_11_" gradientUnits="userSpaceOnUse" x1="-105.1384" y1="-2996.6064" x2="-105.1384" y2="-2988.3521" gradientTransform="matrix(1.0025 0.0223 -0.0834 -0.9994 -116.3242 -2965.2466)">
			<stop  offset="0.5" style="stop-color:#E7C057"/>
			<stop  offset="1" style="stop-color:#978038"/>
		</linearGradient>
		<path fill="url(#SVGID_11_)" d="M33.072,19.144c-0.161,0.101-0.326,0.194-0.487,0.29c-3.419,2.133-7.665,4.331-10.275,5.342
			c-0.337,0.406-0.952,1.455-1.306,2.283c3.107-1.246,5.688-1.75,8.759-3.551c3.075-1.797,4.753-4.131,4.929-4.379L33.072,19.144z"
			/>
	</g>
</g>
</svg>
