<?xml version="1.0" encoding="utf-8"?>
<!-- Generator: Adobe Illustrator 19.0.0, SVG Export Plug-In . SVG Version: 6.00 Build 0)  -->
<svg version="1.1" id="Capa_1" xmlns="http://www.w3.org/2000/svg" xmlns:xlink="http://www.w3.org/1999/xlink" x="0px" y="0px"
	 viewBox="-255 129 512 512" style="enable-background:new -255 129 512 512;" xml:space="preserve">
<style type="text/css">
	.st0{fill:#D59E10;}
</style>
<g>
	<g>
		<path class="st0" d="M1,132c-139.5,0-253,113.5-253,253S-138.5,638,1,638s253-113.5,253-253S140.5,132,1,132z M1,596.3
			c-116.5,0-211.3-94.8-211.3-211.3S-115.5,173.7,1,173.7S212.3,268.5,212.3,385S117.5,596.3,1,596.3z"/>
		<path class="st0" d="M21.9,376.7V233.4c0-11.5-9.3-20.9-20.9-20.9c-11.5,0-20.9,9.3-20.9,20.9V385c0,6.4,3,12.2,7.6,16
			c0.2,0.2,0.3,0.5,0.5,0.7l78.2,88.7c4.2,4.6,9.9,7,15.6,7c4.8,0,9.8-1.7,13.7-5.2c8.6-7.6,9.5-20.8,1.9-29.5L21.9,376.7z"/>
	</g>
</g>
</svg>
