<?xml version="1.0" encoding="utf-8"?>
<!-- Generator: Adobe Illustrator 16.0.0, SVG Export Plug-In . SVG Version: 6.00 Build 0)  -->
<!DOCTYPE svg PUBLIC "-//W3C//DTD SVG 1.1//EN" "http://www.w3.org/Graphics/SVG/1.1/DTD/svg11.dtd">
<svg version="1.1" id="Layer_1" xmlns="http://www.w3.org/2000/svg" xmlns:xlink="http://www.w3.org/1999/xlink" x="0px" y="0px"
	 width="60.894px" height="50.656px" viewBox="10.846 12.129 60.894 50.656" enable-background="new 10.846 12.129 60.894 50.656"
	 xml:space="preserve">
<g>
	<g>
		<path fill="#5CC2AD" d="M31.476,27.372c4.024-0.74,7.245-1.272,12.896-1.249c-12.417-6.252-28.843-5.75-33.526-4.102
			c5.533,1.625,10.104,4.553,14.94,10.34c5.106,6.113,9.836,19.447,11.159,30.061c2.386-13.129,2.682-24.387-5.1-34.629
			C31.734,27.645,31.598,27.513,31.476,27.372z"/>
		<circle fill="#5CC2AD" cx="28.152" cy="16.254" r="4.125"/>
	</g>
	<g>
		<path fill="#C1A871" d="M61.792,37.854c2.439,0.796,5.565,2.578,9.948,5.579c-3.186-6.271-11.177-12.23-18.455-15.125
			c-2.368-1.039-5.265-1.723-8.911-2.186c7.786,5.15,10.688,10.125,12.583,15.125c2.698,7.832,3.059,12.125,2.989,21.537
			c3.05-7.885,4.642-16.363,2.761-22.35C62.417,39.513,62.11,38.665,61.792,37.854z"/>
		<circle fill="#C1A871" cx="56.426" cy="24.599" r="3.557"/>
	</g>
</g>
</svg>
