<?xml version="1.0" encoding="utf-8"?>
<!-- Generator: Adobe Illustrator 18.1.1, SVG Export Plug-In . SVG Version: 6.00 Build 0)  -->
<svg version="1.1" id="Layer_1" xmlns="http://www.w3.org/2000/svg" xmlns:xlink="http://www.w3.org/1999/xlink" x="0px" y="0px"
	 viewBox="0 0 175 174" enable-background="new 0 0 175 174" xml:space="preserve">
<g>
	<g>
		<path fill="#FFFFFF" d="M156.3667908,114.6249619c-11.7011871-5.3044815-20.8480835-8.2538605-36.2571869-11.6921616
			c-0.4873886-0.1098022-1.0408096-0.1622467-1.7003479-0.1622467c-1.8939514,0-7.1935806,0.5977173-8.9478607,3.327034
			l-3.7987747,5.974884c-0.0417786,0.0657654-0.0853653,0.1303329-0.1307602,0.1936722l-4.1266403,5.7623215
			c-0.7958527,1.1112595-2.0787735,1.7704773-3.4455643,1.7704773c-2.0478058,0-4.2612152-0.7933655-6.2323837-2.2340088
			c-6.4636917-4.7021408-12.8610992-10.1501465-19.007019-16.187233c-0.017334-0.0170441-0.0345306-0.0342407-0.0515747-0.0515366
			c-6.1003265-6.2021484-11.5985794-12.6427917-16.3421402-19.1430817
			c-1.7611656-2.4098358-2.1514587-4.6173325-2.2954712-5.5526733c-0.1104851-0.4395065-0.151062-0.8991241-0.1150131-1.3621674
			c0.1036949-1.3307114,0.828186-2.5348053,1.9553261-3.2496643l11.9323311-7.5681
			c2.9168854-1.8381538,3.8212128-8.2474594,3.1661072-10.756916c-3.3123245-12.4835777-7.9441681-25.7943382-11.60886-35.9941483
			c-1.1608009-3.1726761-6.9877205-4.7766037-9.9212265-4.7766037c-1.0781555,0-2.0431747,0.1626692-2.8682251,0.4834805
			c-10.2541618,3.9751244-19.3925667,9.9248791-27.1654034,17.6855583c-2.1021843,2.1085529-4.1289988,4.4105892-6.1894732,7.030756
			l-0.5254488,0.6642876L12.67136,39.6244888c-0.3529501,14.6232681,2.6615191,29.4135666,8.9596329,43.9620209
			c6.3534031,14.6762314,15.6924019,28.2820358,27.7574883,40.4395294c0.1043739,0.1051788,0.2026024,0.2151794,0.2944298,0.3293457
			l0.2091637,0.2207108c23.3280792,23.3092651,53.2800369,36.6790314,82.1923828,36.6904449l3.0474091-0.0533447
			l0.6329651-0.4974823c2.4715576-1.9275513,4.8511505-4.0227814,7.0851898-6.2373047
			c7.7454529-7.7583466,13.6789551-16.8792267,17.6201172-27.0937119c0.0031738-0.0082474,0.0063477-0.0164948,0.0095825-0.024704
			C162.1291046,123.1634521,159.3552246,115.9718704,156.3667908,114.6249619z"/>
	</g>
</g>
</svg>
