<?xml version="1.0" encoding="UTF-8"?>
<!-- Generator: Adobe Illustrator 16.0.0, SVG Export Plug-In . SVG Version: 6.00 Build 0)  -->
<!DOCTYPE svg PUBLIC "-//W3C//DTD SVG 1.1//EN" "http://www.w3.org/Graphics/SVG/1.1/DTD/svg11.dtd">
<svg version="1.1" id="Layer_1" xmlns="http://www.w3.org/2000/svg" xmlns:xlink="http://www.w3.org/1999/xlink" x="0px" y="0px" width="7.086px" height="12.276px" viewBox="0.47 -0.662 7.086 12.276" enable-background="new 0.47 -0.662 7.086 12.276" xml:space="preserve">
<g>
	<path fill="#FFFFFF" d="M4.014,6.047c-1.017,0-1.844-0.827-1.844-1.844V2.234C2.037,2.52,1.946,2.849,1.914,3.227L1.407,8.115   c0.002,1.39,1.171,2.56,2.608,2.56S6.62,9.503,6.62,8.064l-0.505-4.83C6.083,2.854,5.992,2.524,5.859,2.238v1.965   C5.859,5.219,5.031,6.047,4.014,6.047z"/>
	<path fill="#FF0000" d="M4.917,0.773c-0.156-0.344-0.5-0.587-0.902-0.587c-0.034,0-0.062,0.016-0.095,0.019v0.422v0.47v1.313   c0,0.155-0.126,0.281-0.281,0.281S3.357,2.566,3.357,2.411V1.19V0.704V0.447c-0.103,0.092-0.188,0.2-0.246,0.326   C3.054,0.898,3.019,1.034,3.019,1.181v0.146v2.876c0,0.549,0.447,0.996,0.996,0.996s0.995-0.447,0.995-0.996V1.326V1.181   C5.009,1.034,4.974,0.898,4.917,0.773z"/>
	<path d="M7.049,3.145c-0.092-1.078-0.553-1.92-1.26-2.436C5.58-0.078,4.867-0.662,4.014-0.662c-0.032,0-0.063,0.008-0.095,0.01   v0.424v0.386v0.047C3.952,0.202,3.98,0.186,4.014,0.186c0.402,0,0.746,0.243,0.902,0.587c0.058,0.125,0.093,0.261,0.093,0.408   v0.145v2.876c0,0.549-0.446,0.996-0.995,0.996S3.019,4.751,3.019,4.202V1.326V1.181c0-0.146,0.036-0.283,0.093-0.408   c0.058-0.126,0.143-0.234,0.246-0.326V0.218V-0.07v-0.466C2.81-0.326,2.392,0.136,2.239,0.709c-0.707,0.515-1.168,1.357-1.26,2.43   L0.47,8.066c0,1.956,1.59,3.548,3.545,3.548c1.954,0,3.544-1.593,3.541-3.599L7.049,3.145z M4.015,10.674   c-1.437,0-2.605-1.17-2.608-2.56l0.506-4.888C1.946,2.849,2.037,2.52,2.17,2.234v1.968c0,1.017,0.827,1.844,1.844,1.844   c1.017,0,1.845-0.827,1.845-1.844V2.238c0.133,0.287,0.224,0.617,0.256,0.996l0.505,4.83C6.62,9.503,5.452,10.674,4.015,10.674z"/>
</g>
</svg>