<?xml version="1.0" encoding="utf-8"?>
<!-- Generator: Adobe Illustrator 16.0.0, SVG Export Plug-In . SVG Version: 6.00 Build 0)  -->
<!DOCTYPE svg PUBLIC "-//W3C//DTD SVG 1.1//EN" "http://www.w3.org/Graphics/SVG/1.1/DTD/svg11.dtd">
<svg version="1.1" id="Layer_1" xmlns="http://www.w3.org/2000/svg" xmlns:xlink="http://www.w3.org/1999/xlink" x="0px" y="0px"
	 width="53.27px" height="30.391px" viewBox="-1.869 7.934 53.27 30.391" enable-background="new -1.869 7.934 53.27 30.391"
	 xml:space="preserve">
<g>
	<g>
		<g>
			<g>
				<g>
					<circle fill="#232325" cx="6.688" cy="26.789" r="4.041"/>
				</g>
				<path fill="#232325" d="M-1.869,25.503c0.021,0.673,0.408,1.813,1.342,2.644c1.229,1.1,3.472,1.644,3.472,1.644
					s-0.457-0.68-0.824-1.756c-0.175-0.511-0.183-1.565-0.183-1.578c-0.213-0.027-0.928-0.147-1.938-0.388
					C-0.719,25.895-1.417,25.663-1.869,25.503z"/>
			</g>
		</g>
		<g>
			<circle fill="#232325" cx="40.098" cy="26.789" r="4.041"/>
			<g>
				<path fill="#232325" d="M26.617,28.59c2.294-0.389,3.285-0.572,4.479-0.858c2.955-0.707,4.094-1.337,4.094-1.337l-23.738,0.003
					c0-0.003,0,0.814-0.181,1.546c-0.229,0.936-0.766,1.752-0.766,1.752S16.233,29.774,23.41,29
					C24.565,28.874,24.941,28.874,26.617,28.59z"/>
			</g>
			<path fill="#232325" d="M42.92,18.292c-2.967-0.801-8.631-2.938-14.452-2.642c-0.061,0.006-0.119,0.006-0.181,0.009
				c-5.407,0.272-13.349,3.626-13.349,3.626s5.839,0.672,12.889,0.752c0.084,0.001,0.167,0.003,0.252,0.004
				c4.656,0.165,8.673-0.854,8.673-0.854s-3.309,1.776-9.058,1.746v-0.001c-0.477,0-0.963-0.011-1.473-0.04
				c-6.66-0.393-15.096-1.374-19.749-0.932c-5.684,0.539-8.286,4.567-8.286,4.567c0.38,0.146,1.195,0.44,2.021,0.633
				c0.966,0.229,1.716,0.339,1.913,0.37c0.43-1.731,1.978-3.274,4.186-3.382c3.938-0.185,5.077,3.293,5.077,3.293h15.653v0.001
				h8.389c0,0,0.926-3.396,4.593-3.396c3.337,0,4.542,2.656,4.542,2.656s1.21-0.569,2.416-1.961
				c1.531-1.754,1.935-3.247,1.935-3.247S45.236,18.916,42.92,18.292z"/>
		</g>
	</g>
	<g>
		<g>
			<g>
				<path fill="#939393" d="M10.674,19.293c1.735-1.858,4.205-3.561,7.188-4.893l-1.251-2.957c-4.741,2.091-8.61,4.936-11.071,8.068
					c0.303-0.054,0.611-0.099,0.938-0.129C7.658,19.275,9.09,19.255,10.674,19.293z"/>
			</g>
			<g>
				<path fill="#939393" d="M25.647,8.656c-2.912,0.553-5.674,1.387-8.21,2.435l1.249,2.952c2.135-0.878,4.492-1.575,6.996-2.02
					c0.794-0.142,1.583-0.259,2.354-0.341l0.479-3.469C27.57,8.33,26.614,8.472,25.647,8.656z"/>
			</g>
			<g>
				<path fill="#939393" d="M10.366,29.909c-0.891,1.046-2.198,1.725-3.68,1.725c-1.341,0-2.559-0.548-3.437-1.431
					c0.976,2.354,3,4.29,5.771,5.679l4.567-4.076C12.331,31.293,11.245,30.654,10.366,29.909z"/>
			</g>
		</g>
		<g>
			<path fill="#FF0000" d="M14.565,32.164c0,0-4.443,4.217-4.412,4.229c3.792,1.593,8.736,2.27,14.186,1.772l0.706-5.063
				C21.083,33.484,17.453,33.124,14.565,32.164z"/>
			<path fill="#FF0000" d="M51.362,18.512C50.684,11.29,41.291,6.993,29.555,8.11l-0.014,0.079l-0.5,3.422
				c8.846-0.671,15.917,2.383,16.433,7.473c0.575,5.727-7.35,11.845-17.702,13.669c-0.479,0.085-0.947,0.146-1.42,0.21l-0.641,5.061
				c0.873-0.105,1.758-0.238,2.646-0.408C41.815,35.059,52.111,26.507,51.362,18.512z"/>
		</g>
	</g>
</g>
</svg>
