<?xml version="1.0" encoding="utf-8"?>
<!-- Generator: Adobe Illustrator 16.0.0, SVG Export Plug-In . SVG Version: 6.00 Build 0)  -->
<!DOCTYPE svg PUBLIC "-//W3C//DTD SVG 1.1//EN" "http://www.w3.org/Graphics/SVG/1.1/DTD/svg11.dtd">
<svg version="1.1" id="Layer_1" xmlns="http://www.w3.org/2000/svg" xmlns:xlink="http://www.w3.org/1999/xlink" x="0px" y="0px"
	 width="125.43px" height="78.395px" viewBox="0 0 125.43 78.395" enable-background="new 0 0 125.43 78.395" xml:space="preserve">
<rect x="0.843" y="0" fill="none" width="125.431" height="78.395"/>
<g>
	<g>
		<path fill="#FFFFFF" d="M39.073,37.372v-1.254l-0.601,1.254H33.28l-0.651-1.346v1.346h-9.706l-1.148-2.715H19.83l-1.214,2.715
			h-5.037l-3.502,0.016l7.194-16.559h7.063l0.991,2.365v-2.348h8.642l1.899,3.982l1.857-4H65c0,0,1.43-0.02,2.369,0.643
			l-0.003-0.643h6.87v0.904c0,0,1.234-0.904,3.062-0.904s12.124,0,12.124,0l1.066,2.4v-2.4h7.77l1.409,2.4v-2.4h7.429v16.559h-7.631
			l-1.793-2.887v2.871h-9.484l-1.335-2.957h-1.858l-1.253,2.957h-5.738c0,0-2.14-0.027-3.745-1.176c0,0.602,0,1.176,0,1.176H62.829
			c0,0,0-3.301,0-3.863c0-0.561-0.431-0.521-0.431-0.521h-0.416v4.385H39.073z"/>
		<path fill="#FFFFFF" d="M33.371,40.958h15.017l2.165,2.453l2.217-2.453h11.546c0,0,1.085,0.027,2.114,0.576v-0.576
			c0,0,8.977,0,10.28,0c1.305,0,2.401,0.652,2.401,0.652v-0.652h13.216v0.602c0,0,0.938-0.602,2.205-0.602c1.265,0,8.61,0,8.61,0
			v0.602c0,0,1.083-0.602,2.23-0.602c1.148,0,6.758,0,6.758,0v15.604c0,0-0.887,1.006-2.727,1.006h-8.912v-0.496
			c0,0-0.847,0.496-2.139,0.496c-1.291,0-23.674,0-23.674,0s0-3.633,0-4.033c0-0.396-0.174-0.469-0.526-0.469h-0.327v4.502H66.43
			v-4.475c0,0-0.821,0.441-2.191,0.441c-1.371,0-2.662,0-2.662,0v4.033h-9.118l-2.075-2.531l-2.217,2.531H33.371V40.958z"/>
		<polygon fill="#0078A9" points="80.698,43.448 90.12,43.448 90.12,45.975 83.582,45.975 83.582,48.178 89.938,48.178 
			89.938,50.405 83.582,50.405 83.582,52.723 90.12,52.723 90.12,55.188 80.698,55.188 		"/>
		<path fill="#0078A9" d="M108.324,48.022c3.543,0.182,3.838,1.951,3.838,3.838c0,2.199-1.809,3.381-3.693,3.381h-6.055v-2.518
			h4.717c0.8,0,1.991,0,1.991-1.127c0-0.535-0.208-0.877-1.062-0.967c-0.377-0.055-1.779-0.133-1.99-0.137
			c-3.201-0.084-3.945-1.676-3.945-3.613c0-2.201,1.547-3.404,3.435-3.404h6.055v2.516h-4.432c-1.007,0.01-2.095-0.119-2.095,1.02
			c0,0.721,0.535,0.865,1.218,0.932C106.543,47.942,108.114,48.024,108.324,48.022z"/>
		<path fill="#0078A9" d="M97.473,48.022c3.543,0.182,3.839,1.951,3.839,3.838c0,2.199-1.808,3.381-3.695,3.381h-6.054v-2.518h4.718
			c0.8,0,1.993,0,1.993-1.127c0-0.535-0.211-0.877-1.063-0.967c-0.381-0.055-1.782-0.133-1.992-0.137
			c-3.2-0.084-3.943-1.676-3.943-3.613c0-2.201,1.545-3.404,3.434-3.404h6.053v2.516h-4.428c-1.01,0.01-2.098-0.119-2.098,1.02
			c0,0.721,0.537,0.865,1.219,0.932C95.691,47.942,97.264,48.024,97.473,48.022z"/>
		<path fill="#0078A9" d="M63.296,43.473H53.18l-3.302,3.643l-3.196-3.668H35.321v11.74h10.995l3.458-3.879l3.381,3.906h5.53v-3.986
			h3.878c1.494,0,4.22-0.051,4.22-4.166C66.782,44.128,64.712,43.473,63.296,43.473z M44.808,52.723h-6.644v-2.318h6.355v-2.227
			h-6.355v-2.203l7.01,0.016l2.807,3.195L44.808,52.723z M55.828,54.087l-4.141-4.9l4.141-4.586V54.087z M62.326,48.811h-3.59
			v-2.818h3.601c1.206,0,1.587,0.773,1.587,1.35C63.924,48.13,63.506,48.811,62.326,48.811z"/>
		<path fill="#0078A9" d="M77.219,49.868c1.574-0.785,1.993-1.834,1.993-3.25c0-2.514-2.044-3.143-3.46-3.143h-7.493v11.74h2.882
			v-4.143h3.774c0.995,0,1.388,0.996,1.413,1.992l0.079,2.15h2.805l-0.104-2.412C79.108,50.915,78.584,50.024,77.219,49.868z
			 M74.731,48.653h-3.59v-2.66h3.603c1.206,0,1.585,0.773,1.585,1.35C76.328,48.128,75.91,48.653,74.731,48.653z"/>
		<rect x="69.413" y="23.18" fill="#0078A9" width="2.883" height="11.754"/>
		<polygon fill="#0078A9" points="45.817,23.194 55.237,23.194 55.237,25.721 48.701,25.721 48.701,27.925 55.055,27.925 
			55.055,30.151 48.701,30.151 48.701,32.469 55.237,32.469 55.237,34.934 45.817,34.934 		"/>
		<path fill="#0078A9" d="M65.911,29.587c1.573-0.783,1.993-1.834,1.993-3.25c0-2.516-2.045-3.143-3.462-3.143h-7.493v11.74h2.883
			v-4.141h3.771c0.998,0,1.391,0.994,1.416,1.99l0.08,2.15h2.805l-0.105-2.412C67.799,30.635,67.275,29.745,65.911,29.587z
			 M63.422,28.372h-3.59v-2.66h3.603c1.206,0,1.585,0.773,1.585,1.35C65.02,27.848,64.602,28.372,63.422,28.372z"/>
		<path fill="#0078A9" d="M39.17,23.194l-3.537,7.875l-3.525-7.875h-4.521v11.307l-5.032-11.307h-3.813l-5.137,11.74h3.041
			l1.124-2.621h5.754l1.142,2.621h5.804v-8.715l3.852,8.715h2.621l3.944-8.57v8.57h2.883v-11.74H39.17z M18.86,29.78l1.719-4.104
			l1.791,4.104H18.86z"/>
		<path fill="#0078A9" d="M102.041,23.188v8.129l-4.86-8.129h-4.26v11.025l-4.912-11.02h-3.814l-3.971,9.094
			c0,0-1.677,0-1.847-0.041c-0.696-0.143-1.781-0.633-1.795-2.703v-0.852c0-2.752,1.496-2.953,3.41-2.953h1.781v-2.551h-3.765
			c-1.311,0-4.161,1-4.257,5.822c-0.066,3.25,1.35,5.93,4.545,5.93h3.801l1.127-2.621h5.752l1.14,2.621h5.687v-8.598l5.188,8.598
			h3.931V23.188H102.041z M84.336,29.786l1.717-4.104l1.808,4.104H84.336z"/>
	</g>
</g>
</svg>
