<?xml version="1.0" encoding="UTF-8"?>
<!-- Generator: Adobe Illustrator 16.0.0, SVG Export Plug-In . SVG Version: 6.00 Build 0)  -->
<!DOCTYPE svg PUBLIC "-//W3C//DTD SVG 1.1//EN" "http://www.w3.org/Graphics/SVG/1.1/DTD/svg11.dtd">
<svg version="1.1" id="Layer_1" xmlns="http://www.w3.org/2000/svg" xmlns:xlink="http://www.w3.org/1999/xlink" x="0px" y="0px" width="192.457px" height="136.33px" viewBox="-10 40 192.457 136.33" enable-background="new -10 40 192.457 136.33" xml:space="preserve">
<g>
	<g>
		<polygon fill="#FAFAFA" points="38.115,74.083 9.56,108.165 -10,108.165 18.553,74.083   "/>
		<polygon fill="#BEC7CF" points="38.115,142.247 9.56,108.165 -10,108.165 18.553,142.247   "/>
		<polygon fill="#094682" points="66.667,108.165 38.115,74.083 9.56,108.165 38.115,142.248   "/>
	</g>
	<g>
		<polygon fill="#BEC7CF" points="86.227,176.329 57.674,142.247 38.113,142.247 66.667,176.329   "/>
		<polygon fill="#2872C9" points="86.227,108.165 66.667,108.165 38.113,142.247 57.674,142.247 86.227,176.33 114.779,142.247       "/>
	</g>
	<g>
		<polygon fill="#FAFAFA" points="86.227,40 57.674,74.082 38.113,74.082 66.667,40   "/>
		<polygon fill="#7E8184" points="114.779,74.082 86.227,40 57.674,74.082 38.113,74.082 66.667,108.164 86.226,108.164     86.227,108.165   "/>
	</g>
	<g>
		<polygon fill="#FAFAFA" points="153.902,74.082 125.35,108.164 105.787,108.164 134.341,74.082   "/>
		<polygon fill="#B6B6B7" points="182.457,108.164 153.902,74.082 125.35,108.164 105.787,108.164 134.341,142.246 153.901,142.246     153.902,142.247   "/>
	</g>
</g>
</svg>