<?xml version="1.0" encoding="utf-8"?>
<!-- Generator: Adobe Illustrator 16.0.0, SVG Export Plug-In . SVG Version: 6.00 Build 0)  -->
<!DOCTYPE svg PUBLIC "-//W3C//DTD SVG 1.1//EN" "http://www.w3.org/Graphics/SVG/1.1/DTD/svg11.dtd">
<svg version="1.1" id="Layer_1" xmlns="http://www.w3.org/2000/svg" xmlns:xlink="http://www.w3.org/1999/xlink" x="0px" y="0px"
	 width="33.386px" height="33.381px" viewBox="2.642 0 33.386 33.381" enable-background="new 2.642 0 33.386 33.381"
	 xml:space="preserve">
<g>
	<g>
		<g>
			<path fill="#008EAB" d="M32.913,6.984c-0.629-0.881-1.33-1.683-2.088-2.403c1.141,1.773,2.088,4.124,2.439,7.218
				c1.17,10.154-7.316,16.764-7.316,16.764L6.721,15.627c0,0,8.428-0.228,10.792-6.547c1.396-3.74-1.733-7.379-2.827-8.423
				c-1.767,0.512-3.476,1.325-5.057,2.455c-7.5,5.361-9.234,15.784-3.875,23.284c5.36,7.498,15.786,9.23,23.286,3.873
				C36.54,24.914,38.274,14.483,32.913,6.984z"/>
			<path fill="#FFFFFF" d="M17.513,9.08c-2.364,6.322-10.792,6.547-10.792,6.547L25.95,28.565c0,0,8.486-6.614,7.316-16.765
				c-0.354-3.094-1.304-5.444-2.441-7.217c-4.326-4.115-10.514-5.558-16.141-3.926C15.778,1.701,18.909,5.338,17.513,9.08z"/>
			<circle fill="#6FDD50" cx="26.877" cy="17.02" r="2.463"/>
			<circle fill="#0099A6" cx="22.931" cy="3.862" r="2.464"/>
			<circle fill="#0099A6" cx="25.853" cy="23.958" r="0.926"/>
			<path fill="#00313E" d="M6.725,15.627l-0.662,0.982l2.648,1.782L7.614,20.02l4.658,3.14l-0.66,0.979l1.252,0.842l-3.667,5.453
				L9.19,30.432c-0.391,0.58-0.235,1.366,0.346,1.76c0.582,0.396,1.369,0.233,1.76-0.344l3.667-5.451l1.257,0.849l0.661-0.984
				l4.663,3.136l1.098-1.629l2.646,1.78l0.658-0.981L6.725,15.627z"/>
		</g>
	</g>
	<path fill="#6FDD51" d="M20.101,11.145c0.578-1.479,3.707-2.559,5.545-3.115c-1.898,0.259-5.188,0.543-6.283-0.49
		c-1.104-1.036-1.203-4.088-1.188-5.994c-0.318,1.879-0.939,4.862-2.2,5.7c-1.26,0.837-4.445-0.008-6.276-0.596
		c1.709,0.866,4.599,2.47,4.924,4.019c0.324,1.554-1.542,4.043-2.688,5.618c1.375-1.373,3.783-3.33,5.237-3.207
		c1.459,0.122,3.499,2.466,4.618,4.061C20.933,15.393,19.524,12.622,20.101,11.145z"/>
</g>
</svg>
