<?xml version="1.0" encoding="utf-8"?>
<!-- Generator: Adobe Illustrator 16.0.0, SVG Export Plug-In . SVG Version: 6.00 Build 0)  -->
<!DOCTYPE svg PUBLIC "-//W3C//DTD SVG 1.1//EN" "http://www.w3.org/Graphics/SVG/1.1/DTD/svg11.dtd">
<svg version="1.1" id="Layer_1" xmlns="http://www.w3.org/2000/svg" xmlns:xlink="http://www.w3.org/1999/xlink" x="0px" y="0px"
	 width="168px" height="186.326px" viewBox="-128.667 -79.5 168 186.326" enable-background="new -128.667 -79.5 168 186.326"
	 xml:space="preserve">
<g>
	<polygon fill="#56504C" points="-107.825,-19.849 -128.667,-28.934 -128.667,80.326 -107.825,89.41 -21.222,48.62 -21.222,-60.638 
			"/>
	<polygon fill="#56504C" points="-21.222,48.62 -107.825,89.41 -107.825,-19.849 -21.222,-60.638 	"/>
	<polygon fill="#767472" points="-128.667,-28.934 -128.667,80.326 -107.825,89.41 -107.825,-19.849 	"/>
	<polygon fill="#767472" points="-21.222,-43.412 -2.267,-52.341 -21.222,-60.638 	"/>
	<g>
		<polygon fill="#29E6EF" points="39.333,-52.994 -21.222,-79.5 -128.667,-28.932 -107.825,-19.849 -21.222,-60.638 -2.267,-52.341 
			-88.951,-11.515 -68.112,-2.43 		"/>
		<polygon fill="#56504C" points="-68.112,-2.43 -88.951,-11.515 -88.951,97.741 -68.112,106.825 39.333,56.263 39.333,-52.994 		
			"/>
		<polygon fill="#56504C" points="-68.112,-2.43 -68.112,106.826 39.333,56.263 39.333,-52.994 		"/>
		<polygon fill="#767472" points="-88.951,97.742 -68.112,106.826 -68.112,-2.43 -88.951,-11.515 		"/>
	</g>
</g>
</svg>
