<?xml version="1.0" encoding="utf-8"?>
<!-- Generator: Adobe Illustrator 16.0.0, SVG Export Plug-In . SVG Version: 6.00 Build 0)  -->
<!DOCTYPE svg PUBLIC "-//W3C//DTD SVG 1.1//EN" "http://www.w3.org/Graphics/SVG/1.1/DTD/svg11.dtd">
<svg version="1.1" id="Layer_1" xmlns="http://www.w3.org/2000/svg" xmlns:xlink="http://www.w3.org/1999/xlink" x="0px" y="0px"
	 width="10.36px" height="18.449px" viewBox="35.354 35.539 10.36 18.449" enable-background="new 35.354 35.539 10.36 18.449"
	 xml:space="preserve">
<g>
	<path fill="#F16325" d="M45.176,35.539c-0.152,1.319-1.106,2.449-2.738,3.563c-1.559,1.062-3.237,2.535-3.205,4.087
		c0.024,1.336,1.771,2.722,2.943,4.138c2.325,2.806,1.457,6.662,1.457,6.662s-0.271-2.463-1.393-3.802
		c-1.451-1.732-5.088-4.189-5.008-7.13c0.084-3.037,2.52-4.208,4.057-4.805C43.377,37.441,44.69,36.583,45.176,35.539z"/>
	<path fill="#474747" d="M40.047,41.762c0,0,0.456-1.281,2.162-1.441c1.441-0.137,2.488-0.385,2.775-0.486
		c0.336-0.121,0.73-0.604,0.73-0.604s-0.437,1.563-2.023,1.887c-1.152,0.236-1.703,0.111-2.582,0.201
		C40.361,41.395,40.047,41.762,40.047,41.762z"/>
	<path fill="#474747" d="M37.208,44.857c0,0,0.06,1.641-0.591,2.688c-0.984,1.587-1.206,2.231-1.258,3.218
		c-0.051,0.985,0.354,1.633,0.354,1.633s0.01-1.113,0.592-2.047c0.75-1.206,1.422-1.873,1.573-3.261
		C38.014,45.836,37.208,44.857,37.208,44.857z"/>
	<path fill="#F16325" d="M39.074,37.94c-0.011,0.667-0.539,1.296-0.838,1.291c-0.297-0.005-0.818-0.651-0.806-1.317
		c0.012-0.666,0.309-1.074,0.845-1.064C38.813,36.857,39.085,37.277,39.074,37.94z"/>
</g>
</svg>
