<?xml version="1.0" encoding="utf-8"?>
<!-- Generator: Adobe Illustrator 19.0.0, SVG Export Plug-In . SVG Version: 6.00 Build 0)  -->
<svg version="1.1" id="Layer_1" xmlns="http://www.w3.org/2000/svg" xmlns:xlink="http://www.w3.org/1999/xlink" x="0px" y="0px"
	 viewBox="-379 181 200 200" style="enable-background:new -379 181 200 200;" xml:space="preserve">
<style type="text/css">
	.st0{fill:url(#SVGID_1_);}
	.st1{fill:url(#XMLID_3_);}
</style>
<g>
	<g>
		
			<linearGradient id="SVGID_1_" gradientUnits="userSpaceOnUse" x1="-340.4125" y1="344.4125" x2="-217.5875" y2="221.5875" gradientTransform="matrix(1 0 0 -1 0 564)">
			<stop  offset="0" style="stop-color:#EB5615"/>
			<stop  offset="0.5123" style="stop-color:#F9A36D"/>
			<stop  offset="1" style="stop-color:#EDAA8A"/>
		</linearGradient>
		<path class="st0" d="M-279,194.1c-47.9,0-86.9,39-86.9,86.9s39,86.9,86.9,86.9s86.9-39,86.9-86.9S-231.1,194.1-279,194.1z
			 M-279,353.6c-40,0-72.6-32.6-72.6-72.6s32.6-72.6,72.6-72.6s72.6,32.6,72.6,72.6S-239,353.6-279,353.6z"/>
		
			<linearGradient id="XMLID_3_" gradientUnits="userSpaceOnUse" x1="-298.0554" y1="326.2446" x2="-232.1922" y2="260.3814" gradientTransform="matrix(1 0 0 -1 0 564)">
			<stop  offset="0" style="stop-color:#EB5615"/>
			<stop  offset="0.5123" style="stop-color:#F9A36D"/>
			<stop  offset="1" style="stop-color:#EDAA8A"/>
		</linearGradient>
		<path id="XMLID_1_" class="st1" d="M-271.8,278.2v-49.3c0-4-3.2-7.2-7.2-7.2s-7.2,3.2-7.2,7.2V281c0,2.2,1,4.2,2.6,5.5
			c0.1,0.1,0.1,0.2,0.2,0.3l26.8,30.5c1.4,1.6,3.4,2.4,5.4,2.4c1.7,0,3.4-0.6,4.7-1.8c3-2.6,3.3-7.1,0.6-10.1L-271.8,278.2z"/>
	</g>
</g>
</svg>
