<?xml version="1.0" encoding="utf-8"?>
<!-- Generator: Adobe Illustrator 16.0.0, SVG Export Plug-In . SVG Version: 6.00 Build 0)  -->
<!DOCTYPE svg PUBLIC "-//W3C//DTD SVG 1.1//EN" "http://www.w3.org/Graphics/SVG/1.1/DTD/svg11.dtd">
<svg version="1.1" id="Layer_1" xmlns="http://www.w3.org/2000/svg" xmlns:xlink="http://www.w3.org/1999/xlink" x="0px" y="0px"
	 width="49.457px" height="42.431px" viewBox="-2.072 6.069 49.457 42.431" enable-background="new -2.072 6.069 49.457 42.431"
	 xml:space="preserve">
<g>
	<path fill="#163F29" d="M47.351,40.692c-0.646,5.125-10.619,8.039-22.293,6.507C13.391,45.657,4.456,40.26,5.105,35.131
		c0.642-5.129,10.621-8.039,22.287-6.504C39.062,30.163,47.998,35.565,47.351,40.692z"/>
	<path fill="#4D9756" d="M31.162,7.028c3.916,3.116,1.647,12.89-5.063,21.83c-6.71,8.938-15.33,13.658-19.246,10.541
		c-3.914-3.114-1.646-12.887,5.065-21.824C18.631,8.635,27.246,3.914,31.162,7.028z"/>
	<path fill="#B5E505" d="M41.626,23.946c2.623,5.438-4.912,14.457-16.835,20.146C12.867,49.783,1.073,49.99-1.552,44.552
		c-2.622-5.434,4.916-14.454,16.839-20.146C27.21,18.717,39.001,18.51,41.626,23.946z"/>
	<path fill="#FFFFFF" d="M22.099,33.485c0.373-0.022,2.838-1.039,3.847-1.646c0.912-0.551,1.14-0.715,1.755-1.123
		c1.313-0.87,2.532-1.631,2.532-1.631s-1.996,1.146-2.549,2.619c-0.558,1.476-0.279,2.41-0.636,4.944
		c-0.161,1.168-0.873,2.146-0.51,3.013c0.105,0.258,2.498,0.254,4.187,0.194c0.803-0.024,1.211-0.101,1.297-0.304
		c0.054-0.215-0.578-0.344-2.519-1.057c-1.565-0.402-0.287-2.185,0.396-4.06c2.584-5.274,3.183-6.793,2.817-7.56
		c-0.17-0.521-2.247-0.506-4.502-0.002c-1.438,0.32-3.005,0.938-4.005,1.433c0,0-0.29,1.12-0.715,2.409
		C22.849,32.676,22.099,33.485,22.099,33.485z"/>
	<path fill="#FFFFFF" d="M22.149,32.341c0,0-0.781,1.496-3.212,2.209c-2.432,0.715-3.797,0.772-4.863,1.479
		c-1.275,0.844-2.618,1.613-2.618,1.613s1.833,0.235,2.681,0.356c1.131,0.162,2.643,0.396,3.877,0.567
		c1.172,0.166,1.359,0.13,2.211,0.179c1.264,0.071,2.072,0.215,2.726,0.34c0.652,0.125,1.16,0.414,1.123,0.642
		c-0.02,0.104-0.918,0.067-1.619,0.063c-0.74-0.006-1.164-0.022-2.25,0.03c-0.811,0.041-1.527,0.233-2.063,0.222
		c-1.223-0.041-2.986,0.106-4.018,0.187c-0.398,0.022-1.296,0.131-2.597-0.062c-0.75,0.043-1.355,0.281-2.131,0.303
		c-0.895,0.023-1.207,0.074-1.926-0.108c-1.047-0.176-1.21-0.698-2.084-0.969c-0.369-0.115-0.563-0.084-0.951,0.039
		c-1.277,0.405-1.986,0.435-2.726,0.267c-0.478-0.146-0.828-0.429-1.037-0.759c-0.504-0.987-0.339-2.396,1.196-3.289
		c1.401-0.778,2.619-0.778,2.989-0.545c0.265,0.168,0.273,0.429,0.34,0.961c0.072,0.591,0.419,0.688,0.834,0.692
		c0.414,0.007,0.45-0.953,0.991-1.742c0.327-0.438,0.5-0.688,1.249-1.313c1.127-0.938,3.471-1.562,3.471-1.562
		s0.711-0.191,2.428-1.021c0.836-0.406,2.564-1.128,3.259-1.751c0.695-0.625,0.887-1.368,2.041-3.188
		c0.896-1.418,2.133-3.651,2.266-4.526c0.275-1.813,1.626-3.631,2.199-5.562c0.561-1.877,0.803-3.979,0.958-5.563
		c0.137-1.387,0.014-2.367,0.359-2.48c0.322-0.221,1.807,2.321,1.588,3.286c-0.408,1.794,0.25,4.457-0.572,6.572
		c-0.271,0.706-0.99,2.597-1.391,4.327c-0.445,1.937-0.829,4.435-1.552,7.015C22.606,31.564,22.149,32.341,22.149,32.341z"/>
</g>
</svg>
