<?xml version="1.0" encoding="utf-8"?>
<!-- Generator: Adobe Illustrator 19.0.0, SVG Export Plug-In . SVG Version: 6.00 Build 0)  -->
<svg version="1.1" id="Capa_1" xmlns="http://www.w3.org/2000/svg" xmlns:xlink="http://www.w3.org/1999/xlink" x="0px" y="0px"
	 viewBox="106 -106 512 512" style="enable-background:new 106 -106 512 512;" xml:space="preserve">
<style type="text/css">
	.st0{fill:#384A53;}
</style>
<g>
	<g id="Layer_2_17_">
		<g>
			<path class="st0" d="M404,348.7c-4,1.1-8.1,2.1-12.2,2.9c-10.6,2.2-17.5,12.6-15.3,23.2c0.1,0.6,0.3,1.2,0.4,1.8
				c2.9,9.6,12.7,15.6,22.8,13.6c4.9-1,9.8-2.2,14.6-3.4c10.5-2.8,16.7-13.6,13.9-24.1C425.3,352.1,414.5,345.9,404,348.7z"/>
			<path class="st0" d="M266.9,337.8c-3.8-1.7-7.6-3.5-11.3-5.4c-9.6-5-21.5-1.3-26.5,8.3c-2.5,4.7-2.8,10-1.4,14.8
				c1.5,4.9,4.8,9.2,9.7,11.8c4.4,2.3,8.9,4.5,13.4,6.5c9.9,4.4,21.6,0,26-9.9C281.2,353.9,276.8,342.2,266.9,337.8z"/>
			<path class="st0" d="M334.5,355.1c-4.1-0.3-8.3-0.8-12.5-1.4c-10.8-1.5-20.7,6-22.2,16.7c-0.4,2.9-0.2,5.8,0.6,8.4
				c2.1,7.1,8.2,12.7,16.1,13.8c4.9,0.7,9.9,1.2,14.8,1.6c10.8,0.9,20.3-7.2,21.2-18C353.4,365.4,345.4,356,334.5,355.1z"/>
			<path class="st0" d="M467.4,319.4c-3.4,2.4-7,4.6-10.5,6.8c-7.9,4.7-11.2,14.1-8.7,22.5c0.5,1.5,1.1,3,2,4.5
				c5.6,9.3,17.7,12.3,27,6.7c4.2-2.6,8.5-5.3,12.5-8.1c8.9-6.2,11.2-18.4,5.1-27.4C488.6,315.5,476.3,313.2,467.4,319.4z"/>
			<path class="st0" d="M544.7,266.2c-8.8-6.4-21.1-4.4-27.5,4.4c-2.4,3.4-5,6.7-7.6,9.9c-4.3,5.3-5.4,12.1-3.6,18.2
				c1.1,3.6,3.2,7,6.4,9.5c8.4,6.9,20.8,5.6,27.7-2.8c3.1-3.8,6.2-7.8,9.1-11.8C555.5,284.8,553.5,272.6,544.7,266.2z"/>
			<path class="st0" d="M572.3,194.5c-10.4-3-21.4,2.9-24.4,13.4c-1.2,4-2.5,8-3.9,11.9c-1.5,4.1-1.5,8.4-0.3,12.3
				c1.7,5.8,6.1,10.7,12.2,12.9c10.2,3.7,21.5-1.6,25.2-11.9c1.7-4.7,3.2-9.4,4.6-14.2C588.7,208.5,582.7,197.6,572.3,194.5z"/>
			<path class="st0" d="M609.2,66.3l-25.9,8C563.7,14.2,522.4-35.2,466.5-65.2c-5.6-3-11.3-5.8-17.1-8.4c0,0-0.1,0-0.1-0.1
				c-0.2-0.1-0.5-0.2-0.7-0.3c-51-22.3-107.4-26.5-161.5-11.9c-0.4,0.1-0.8,0.2-1.3,0.3c-1.8,0.5-3.6,1-5.4,1.6
				c-3,0.9-5.9,1.9-8.8,2.9c-0.3,0.1-0.7,0.3-1,0.4C222.2-64,181.1-33.1,151.7,8.1c-0.1,0.1-0.2,0.3-0.3,0.4
				c-2.9,4-5.6,8.2-8.3,12.4c-0.2,0.3-0.3,0.6-0.5,0.8c-2.6,4.2-5.1,8.6-7.5,13c-24.3,45.3-33.6,95.9-27.3,145.9c0,0.1,0,0.2,0,0.3
				c0,0.1,0,0.2,0,0.2c1.7,13.4,4.5,26.7,8.5,39.8c10.4,34.5,27.8,65.6,51.7,92.3c7.2,8.1,19.7,8.8,27.8,1.6
				c8.1-7.2,8.8-19.7,1.6-27.8c-11.9-13.3-21.9-28-29.9-43.7c-0.1-0.2-0.2-0.4-0.3-0.6c-1.9-3.7-3.7-7.5-5.3-11.4c0,0,0,0,0-0.1
				c-3-7-5.6-14.3-7.9-21.7c-25.8-85.5,7.1-175,75.3-225c1-0.7,2-1.5,3-2.2c17.5-12.4,37.3-22.2,58.9-28.7
				c21.8-6.6,43.8-9.3,65.3-8.7c0.3,0,0.7,0,1,0c1.3,0,2.6,0.1,3.9,0.2c0.5,0,1.1,0.1,1.6,0.1c67.2,4.2,129.2,41.5,164,100.2
				c0,0,0,0.1,0.1,0.1c0.5,0.9,1,1.7,1.5,2.6c0.1,0.1,0.1,0.2,0.2,0.3c6.7,11.7,12.3,24.2,16.6,37.4l-25.9,8
				c-7.2,2.2-7.9,7.4-1.6,11.5l56.3,36.4c6.3,4.1,13.8,1.7,16.7-5.2L617,74.9C619.9,68,616.4,64.1,609.2,66.3z"/>
			<path class="st0" d="M278.3,150.5c-19,14-31.9,26.2-38.8,36.6c-6.9,10.3-11,21.3-12.4,33.1h118.6v-32.2H284
				c3.6-3.6,6.8-6.4,9.5-8.6c2.7-2.2,8-6.1,16-11.6c13.4-9.4,22.6-18.1,27.7-26c5.1-7.9,7.6-16.2,7.6-24.9c0-8.2-2.2-15.5-6.6-22.1
				c-4.4-6.6-10.5-11.4-18.3-14.6c-7.7-3.2-18.6-4.8-32.5-4.8c-13.3,0-23.8,1.7-31.3,5c-7.5,3.3-13.4,8.1-17.5,14.4
				c-4.1,6.3-7,14.9-8.5,26.1l39.6,3.2c1.1-8,3.3-13.6,6.5-16.8c3.2-3.2,7.3-4.8,12.4-4.8c4.9,0,8.9,1.5,12.1,4.6
				c3.2,3.1,4.8,6.8,4.8,11.1c0,4-1.6,8.3-4.9,12.7C297.3,135.4,289.9,141.9,278.3,150.5z"/>
			<path class="st0" d="M465.1,220.1v-26.6h17.9v-30.7h-17.9V75.4h-34.5l-72,85.6v32.5h72v26.6H465.1L465.1,220.1z M392.5,162.9
				l38.1-44.8v44.8H392.5z"/>
		</g>
	</g>
</g>
</svg>
