<?xml version="1.0" encoding="utf-8"?>
<!-- Generator: Adobe Illustrator 16.0.0, SVG Export Plug-In . SVG Version: 6.00 Build 0)  -->
<!DOCTYPE svg PUBLIC "-//W3C//DTD SVG 1.1//EN" "http://www.w3.org/Graphics/SVG/1.1/DTD/svg11.dtd">
<svg version="1.1" id="Layer_1" xmlns="http://www.w3.org/2000/svg" xmlns:xlink="http://www.w3.org/1999/xlink" x="0px" y="0px"
	 width="125.432px" height="78.395px" viewBox="0 0 125.432 78.395" enable-background="new 0 0 125.432 78.395"
	 xml:space="preserve">
<rect x="0" y="0" fill="none" width="125.43" height="78.395"/>
<g>
	<g>
		<polygon fill="#FBB230" points="79.667,64.44 80.974,64.406 82.267,64.312 83.532,64.148 84.788,63.924 86.007,63.646 
			87.216,63.302 88.396,62.902 89.552,62.448 90.677,61.936 91.775,61.379 92.831,60.765 93.868,60.107 94.857,59.396 
			95.816,58.642 96.74,57.85 97.62,57.001 98.466,56.119 99.263,55.196 100.015,54.242 100.726,53.248 101.382,52.217 
			101.995,51.154 102.552,50.061 103.062,48.932 103.519,47.778 103.919,46.597 104.261,45.395 104.544,44.172 104.765,42.914 
			104.929,41.651 105.025,40.361 105.058,39.051 105.025,37.751 104.929,36.467 104.765,35.204 104.544,33.965 104.261,32.741 
			103.919,31.544 103.519,30.365 103.062,29.218 102.552,28.102 101.995,27.005 101.382,25.953 100.726,24.919 100.015,23.928 
			99.263,22.979 98.466,22.057 97.62,21.177 96.74,20.339 95.816,19.544 94.857,18.791 93.868,18.082 92.831,17.424 91.775,16.818 
			90.677,16.261 89.552,15.747 88.396,15.294 87.216,14.896 86.007,14.55 84.788,14.269 83.532,14.048 82.267,13.883 80.974,13.79 
			79.667,13.755 78.365,13.79 77.075,13.883 75.816,14.048 74.562,14.269 73.345,14.55 72.14,14.896 70.966,15.294 69.812,15.747 
			68.693,16.261 67.603,16.818 66.548,17.424 65.521,18.082 64.531,18.791 63.572,19.544 62.658,20.339 61.775,21.177 
			60.937,22.057 60.145,22.979 59.39,23.928 58.693,24.919 58.032,25.953 57.426,27.005 56.861,28.102 56.355,29.218 55.904,30.365 
			55.51,31.544 55.169,32.741 54.885,33.965 54.663,35.204 54.503,36.467 54.408,37.751 54.373,39.051 54.408,40.361 54.503,41.651 
			54.663,42.914 54.885,44.172 55.169,45.395 55.51,46.597 55.904,47.778 56.355,48.932 56.861,50.061 57.426,51.154 58.032,52.217 
			58.693,53.248 59.39,54.242 60.145,55.196 60.937,56.119 61.775,57.001 62.658,57.85 63.572,58.642 64.531,59.396 65.521,60.107 
			66.548,60.765 67.603,61.379 68.693,61.936 69.812,62.448 70.966,62.902 72.14,63.302 73.345,63.646 74.562,63.924 75.816,64.148 
			77.075,64.312 78.365,64.406 		"/>
		<polygon fill="#EB2230" points="45.765,64.44 47.063,64.406 48.356,64.312 49.621,64.148 50.867,63.924 52.091,63.646 
			53.293,63.302 54.468,62.902 55.624,62.448 56.741,61.936 57.828,61.379 58.885,60.765 59.912,60.107 60.905,59.396 
			61.862,58.642 62.774,57.85 63.657,57.001 64.495,56.119 65.288,55.196 66.042,54.242 66.743,53.248 67.4,52.217 68.007,51.154 
			68.573,50.061 69.073,48.932 69.531,47.778 69.921,46.597 70.265,45.395 70.548,44.172 70.771,42.914 70.931,41.651 
			71.025,40.361 71.062,39.051 71.025,37.751 70.931,36.467 70.771,35.204 70.548,33.965 70.265,32.741 69.921,31.544 
			69.531,30.365 69.073,29.218 68.573,28.102 68.007,27.005 67.4,25.953 66.743,24.919 66.042,23.928 65.288,22.979 64.495,22.057 
			63.657,21.177 62.774,20.339 61.862,19.544 60.905,18.791 59.912,18.082 58.885,17.424 57.828,16.818 56.741,16.261 
			55.624,15.747 54.468,15.294 53.293,14.896 52.091,14.55 50.867,14.269 49.621,14.048 48.356,13.883 47.063,13.79 45.765,13.755 
			44.457,13.79 43.166,13.883 41.899,14.048 40.644,14.269 39.421,14.55 38.216,14.896 37.039,15.294 35.885,15.747 34.757,16.261 
			33.661,16.818 32.6,17.424 31.564,18.082 30.574,18.791 29.616,19.544 28.694,20.339 27.813,21.177 26.967,22.057 26.173,22.979 
			25.419,23.928 24.71,24.919 24.052,25.953 23.437,27.005 22.88,28.102 22.366,29.218 21.914,30.365 21.512,31.544 21.173,32.741 
			20.889,33.965 20.668,35.204 20.504,36.467 20.409,37.751 20.377,39.051 20.409,40.361 20.504,41.651 20.668,42.914 
			20.889,44.172 21.173,45.395 21.512,46.597 21.914,47.778 22.366,48.932 22.88,50.061 23.437,51.154 24.052,52.217 24.71,53.248 
			25.419,54.242 26.173,55.196 26.967,56.119 27.813,57.001 28.694,57.85 29.616,58.642 30.574,59.396 31.564,60.107 32.6,60.765 
			33.661,61.379 34.757,61.936 35.885,62.448 37.039,62.902 38.216,63.302 39.421,63.646 40.644,63.924 41.899,64.148 
			43.166,64.312 44.457,64.406 		"/>
		<polygon fill="#FBB230" points="59.752,23.476 73.21,23.476 73.21,22.099 60.914,22.099 		"/>
		<polygon fill="#FBB230" points="57.732,26.533 73.21,26.533 73.21,25.157 58.546,25.157 		"/>
		<polygon fill="#FBB230" points="56.229,29.589 73.21,29.589 73.21,28.209 56.826,28.209 		"/>
		<polygon fill="#FBB230" points="55.193,32.648 73.21,32.648 73.21,31.274 55.624,31.274 		"/>
		<polygon fill="#FBB230" points="55.793,47.435 73.257,47.435 73.257,46.061 55.366,46.061 		"/>
		<polygon fill="#FBB230" points="57.082,50.496 73.257,50.496 73.257,49.119 56.442,49.119 		"/>
		<polygon fill="#FBB230" points="58.891,53.549 73.257,53.549 73.257,52.172 58.032,52.172 		"/>
		<polygon fill="#FBB230" points="61.394,56.61 73.257,56.61 73.257,55.223 60.186,55.223 		"/>
		<polygon fill="#FBB230" points="54.588,35.698 73.21,35.698 73.21,34.324 54.85,34.324 		"/>
		<polygon fill="#FBB230" points="65.939,44.387 73.044,44.387 73.044,43.008 66.195,43.008 		"/>
		<polygon fill="#FBB230" points="66.503,41.334 73.044,41.334 73.044,39.948 66.761,39.948 		"/>
		<polygon fill="#FBB230" points="54.341,39.948 55.964,39.948 55.964,41.334 54.482,41.334 		"/>
		<polygon fill="#FFFFFF" points="50.672,38.28 50.553,38.271 50.431,38.257 50.319,38.237 50.21,38.22 50.105,38.206 
			49.997,38.185 49.885,38.172 49.764,38.154 49.645,38.135 49.508,38.127 49.355,38.118 49.193,38.11 49.013,38.11 48.818,38.118 
			48.595,38.135 48.346,38.154 48.177,38.178 48.015,38.206 47.868,38.257 47.739,38.307 47.618,38.365 47.51,38.435 47.424,38.522 
			47.344,38.597 47.296,38.693 47.252,38.785 47.235,38.888 47.235,38.991 47.26,39.104 47.296,39.212 47.363,39.323 47.45,39.436 
			47.618,39.598 47.827,39.725 48.063,39.837 48.32,39.929 48.595,40.017 48.876,40.112 49.158,40.213 49.431,40.324 49.688,40.471 
			49.926,40.651 50.141,40.864 50.319,41.128 50.459,41.451 50.543,41.84 50.578,42.3 50.543,42.839 50.483,43.24 50.38,43.589 
			50.245,43.915 50.073,44.196 49.875,44.446 49.654,44.658 49.414,44.845 49.15,45.008 48.876,45.137 48.595,45.248 48.304,45.333 
			48.004,45.403 47.714,45.453 47.432,45.479 47.152,45.496 46.886,45.502 46.516,45.502 46.174,45.496 45.876,45.496 
			45.594,45.489 45.339,45.479 45.109,45.46 44.903,45.444 44.707,45.42 44.526,45.403 44.364,45.367 44.199,45.34 44.055,45.301 
			43.91,45.266 43.774,45.212 43.636,45.161 43.491,45.112 43.874,43.222 43.954,43.24 44.047,43.266 44.167,43.297 44.314,43.333 
			44.465,43.369 44.636,43.401 44.824,43.445 45.029,43.48 45.243,43.513 45.465,43.545 45.698,43.573 45.935,43.598 46.182,43.607 
			46.434,43.615 46.678,43.615 46.927,43.607 47.175,43.555 47.373,43.488 47.523,43.395 47.648,43.273 47.73,43.157 47.8,43.014 
			47.842,42.881 47.877,42.751 47.893,42.504 47.818,42.291 47.669,42.118 47.459,41.973 47.202,41.849 46.902,41.715 
			46.569,41.596 46.236,41.459 45.892,41.308 45.568,41.128 45.27,40.906 44.994,40.64 44.782,40.316 44.629,39.929 44.551,39.47 
			44.559,38.922 44.602,38.59 44.663,38.271 44.751,37.983 44.851,37.709 44.985,37.452 45.138,37.23 45.321,37.016 45.536,36.828 
			45.782,36.668 46.057,36.53 46.361,36.403 46.706,36.309 47.092,36.228 47.51,36.17 47.972,36.135 48.474,36.126 48.789,36.126 
			49.081,36.135 49.348,36.146 49.588,36.154 49.802,36.17 49.997,36.187 50.166,36.204 50.319,36.221 50.466,36.238 50.586,36.264 
			50.696,36.28 50.801,36.298 50.887,36.315 50.961,36.323 51.039,36.341 51.109,36.352 		"/>
		<polyline fill="none" stroke="#FFFFFF" stroke-width="0.2432" stroke-miterlimit="2.6131" points="50.672,38.28 50.672,38.28 
			50.553,38.271 50.431,38.257 50.319,38.237 50.21,38.22 50.105,38.206 49.997,38.185 49.885,38.172 49.764,38.154 49.645,38.135 
			49.508,38.127 49.355,38.118 49.193,38.11 49.013,38.11 48.818,38.118 48.595,38.135 48.346,38.154 48.346,38.154 48.177,38.178 
			48.015,38.206 47.868,38.257 47.739,38.307 47.618,38.365 47.51,38.435 47.424,38.522 47.344,38.597 47.296,38.693 47.252,38.785 
			47.235,38.888 47.235,38.991 47.26,39.104 47.296,39.212 47.363,39.323 47.45,39.436 47.45,39.436 47.618,39.598 47.827,39.725 
			48.063,39.837 48.32,39.929 48.595,40.017 48.876,40.112 49.158,40.213 49.431,40.324 49.688,40.471 49.926,40.651 50.141,40.864 
			50.319,41.128 50.459,41.451 50.543,41.84 50.578,42.3 50.543,42.839 50.543,42.839 50.483,43.24 50.38,43.589 50.245,43.915 
			50.073,44.196 49.875,44.446 49.654,44.658 49.414,44.845 49.15,45.008 48.876,45.137 48.595,45.248 48.304,45.333 48.004,45.403 
			47.714,45.453 47.432,45.479 47.152,45.496 46.886,45.502 46.886,45.502 46.516,45.502 46.174,45.496 45.876,45.496 
			45.594,45.489 45.339,45.479 45.109,45.46 44.903,45.444 44.707,45.42 44.526,45.403 44.364,45.367 44.199,45.34 44.055,45.301 
			43.91,45.266 43.774,45.212 43.636,45.161 43.491,45.112 43.874,43.222 43.874,43.222 43.954,43.24 44.047,43.266 44.167,43.297 
			44.314,43.333 44.465,43.369 44.636,43.401 44.824,43.445 45.029,43.48 45.243,43.513 45.465,43.545 45.698,43.573 45.935,43.598 
			46.182,43.607 46.434,43.615 46.678,43.615 46.927,43.607 46.927,43.607 47.175,43.555 47.373,43.488 47.523,43.395 
			47.648,43.273 47.73,43.157 47.8,43.014 47.842,42.881 47.877,42.751 47.877,42.751 47.893,42.504 47.818,42.291 47.669,42.118 
			47.459,41.973 47.202,41.849 46.902,41.715 46.569,41.596 46.236,41.459 45.892,41.308 45.568,41.128 45.27,40.906 44.994,40.64 
			44.782,40.316 44.629,39.929 44.551,39.47 44.559,38.922 44.559,38.922 44.602,38.59 44.663,38.271 44.751,37.983 44.851,37.709 
			44.985,37.452 45.138,37.23 45.321,37.016 45.536,36.828 45.782,36.668 46.057,36.53 46.361,36.403 46.706,36.309 47.092,36.228 
			47.51,36.17 47.972,36.135 48.474,36.126 48.474,36.126 48.789,36.126 49.081,36.135 49.348,36.146 49.588,36.154 49.802,36.17 
			49.997,36.187 50.166,36.204 50.319,36.221 50.466,36.238 50.586,36.264 50.696,36.28 50.801,36.298 50.887,36.315 50.961,36.323 
			51.039,36.341 51.109,36.352 50.672,38.28 		"/>
		<polygon fill="#FFFFFF" points="52.697,34.239 55.067,34.239 54.716,36.309 56.141,36.309 55.835,38.237 54.33,38.197 
			53.51,42.965 53.501,43.137 53.543,43.282 53.629,43.395 53.743,43.488 53.895,43.545 54.065,43.598 54.254,43.632 54.46,43.651 
			54.646,43.64 54.818,43.625 54.972,43.598 55.106,43.564 55.221,43.531 55.296,43.502 55.348,43.488 55.366,43.48 55.067,45.07 
			55.006,45.112 54.945,45.143 54.885,45.181 54.827,45.212 54.768,45.239 54.698,45.266 54.622,45.289 54.545,45.317 54.46,45.34 
			54.373,45.359 54.271,45.373 54.169,45.395 54.057,45.411 53.928,45.43 53.792,45.444 53.646,45.46 52.996,45.46 52.653,45.435 
			52.354,45.403 52.082,45.35 51.85,45.289 51.655,45.212 51.492,45.128 51.347,45.027 51.236,44.912 51.149,44.795 51.089,44.651 
			51.049,44.502 51.021,44.342 51.012,44.159 51.012,43.973 51.039,43.78 51.065,43.564 		"/>
		<polyline fill="none" stroke="#FFFFFF" stroke-width="0.2432" stroke-miterlimit="2.6131" points="52.697,34.239 55.067,34.239 
			54.716,36.309 56.141,36.309 55.835,38.237 54.33,38.197 53.51,42.965 53.51,42.965 53.501,43.137 53.543,43.282 53.629,43.395 
			53.743,43.488 53.895,43.545 54.065,43.598 54.254,43.632 54.46,43.651 54.46,43.651 54.646,43.64 54.818,43.625 54.972,43.598 
			55.106,43.564 55.221,43.531 55.296,43.502 55.348,43.488 55.366,43.48 55.067,45.07 55.067,45.07 55.006,45.112 54.945,45.143 
			54.885,45.181 54.827,45.212 54.768,45.239 54.698,45.266 54.622,45.289 54.545,45.317 54.46,45.34 54.373,45.359 54.271,45.373 
			54.169,45.395 54.057,45.411 53.928,45.43 53.792,45.444 53.646,45.46 52.996,45.46 52.996,45.46 52.653,45.435 52.354,45.403 
			52.082,45.35 51.85,45.289 51.655,45.212 51.492,45.128 51.347,45.027 51.236,44.912 51.149,44.795 51.089,44.651 51.049,44.502 
			51.021,44.342 51.012,44.159 51.012,43.973 51.039,43.78 51.065,43.564 52.697,34.239 		"/>
		<polyline fill="none" stroke="#FFFFFF" stroke-width="0.2432" stroke-miterlimit="2.6131" points="58.032,41.459 58.032,41.459 
			58.007,41.604 57.996,41.76 58.016,41.92 58.048,42.086 58.111,42.246 58.178,42.404 58.271,42.564 58.374,42.707 58.493,42.856 
			58.62,42.983 58.76,43.112 58.913,43.213 59.067,43.309 59.237,43.384 59.408,43.445 59.578,43.48 59.578,43.48 59.802,43.513 
			60.014,43.538 60.237,43.564 60.461,43.581 60.682,43.589 60.914,43.589 61.136,43.581 61.366,43.564 61.595,43.531 
			61.828,43.488 62.066,43.435 62.298,43.359 62.54,43.266 62.784,43.162 63.023,43.028 63.271,42.881 62.93,44.985 62.93,44.985 
			62.794,45.051 62.658,45.12 62.519,45.171 62.393,45.224 62.264,45.266 62.126,45.31 61.99,45.34 61.844,45.367 61.689,45.395 
			61.518,45.411 61.342,45.43 61.142,45.444 60.922,45.453 60.691,45.453 60.424,45.46 60.145,45.46 60.145,45.46 59.724,45.453 
			59.299,45.411 58.871,45.35 58.441,45.248 58.024,45.12 57.623,44.955 57.235,44.746 56.877,44.496 56.543,44.205 56.255,43.854 
			56.008,43.46 55.801,43.008 55.653,42.504 55.561,41.929 55.537,41.297 55.581,40.598 55.581,40.598 55.614,40.324 55.663,40.008 
			55.733,39.674 55.825,39.314 55.956,38.948 56.109,38.579 56.302,38.206 56.543,37.847 56.816,37.504 57.151,37.18 57.527,36.888 
			57.955,36.632 58.449,36.417 59.008,36.264 59.619,36.161 60.315,36.126 60.315,36.126 60.648,36.135 60.997,36.17 61.35,36.228 
			61.7,36.315 62.042,36.446 62.376,36.595 62.684,36.804 62.964,37.041 63.22,37.332 63.435,37.676 63.607,38.068 63.724,38.522 
			63.794,39.031 63.802,39.615 63.741,40.264 63.615,40.985 63.572,41.505 57.341,41.505 57.732,39.82 61.474,39.82 61.474,39.82 
			61.497,39.607 61.484,39.401 61.466,39.212 61.436,39.043 61.372,38.88 61.315,38.734 61.23,38.605 61.142,38.487 61.043,38.384 
			60.928,38.298 60.802,38.22 60.673,38.154 60.536,38.103 60.402,38.068 60.255,38.042 60.101,38.025 60.101,38.025 59.938,38.033 
			59.784,38.058 59.639,38.095 59.494,38.144 59.347,38.214 59.219,38.288 59.092,38.384 58.98,38.487 58.871,38.605 58.767,38.734 
			58.673,38.871 58.597,39.017 58.517,39.17 58.459,39.342 58.406,39.513 58.374,39.693 58.032,41.459 		"/>
		<polygon fill="#FFFFFF" points="78.421,36.821 78.312,36.762 78.202,36.71 78.075,36.645 77.948,36.588 77.82,36.536 
			77.679,36.485 77.532,36.433 77.376,36.382 77.216,36.341 77.048,36.309 76.872,36.273 76.693,36.246 76.495,36.228 
			76.302,36.212 76.095,36.212 75.88,36.212 75.667,36.212 75.445,36.228 75.214,36.257 74.976,36.298 74.736,36.366 74.497,36.46 
			74.257,36.58 74.019,36.732 73.786,36.922 73.566,37.143 73.353,37.417 73.148,37.733 72.958,38.11 72.775,38.537 72.618,39.017 
			72.478,39.565 72.427,39.87 72.394,40.168 72.376,40.471 72.386,40.76 72.409,41.05 72.468,41.325 72.546,41.582 72.64,41.84 
			72.769,42.069 72.925,42.291 73.099,42.488 73.304,42.665 73.544,42.82 73.802,42.949 74.095,43.061 74.419,43.137 74.532,43.162 
			74.659,43.188 74.816,43.204 74.982,43.222 75.171,43.24 75.368,43.24 75.581,43.24 75.794,43.222 76.017,43.196 76.241,43.157 
			76.454,43.092 76.667,43.028 76.88,42.932 77.075,42.82 77.255,42.683 77.427,42.531 77.044,44.811 76.991,44.856 76.941,44.906 
			76.872,44.968 76.796,45.017 76.702,45.086 76.581,45.143 76.443,45.206 76.292,45.255 76.095,45.317 75.872,45.359 
			75.618,45.395 75.316,45.43 74.982,45.444 74.599,45.453 74.163,45.444 73.685,45.42 73.288,45.373 72.896,45.289 72.505,45.161 
			72.113,44.99 71.736,44.788 71.374,44.531 71.034,44.233 70.716,43.891 70.435,43.502 70.195,43.075 69.991,42.6 69.837,42.077 
			69.738,41.505 69.702,40.898 69.716,40.232 69.812,39.522 69.882,39.17 69.956,38.829 70.042,38.495 70.13,38.178 70.22,37.881 
			70.333,37.581 70.445,37.299 70.562,37.034 70.695,36.769 70.82,36.52 70.966,36.28 71.118,36.06 71.271,35.844 71.445,35.64 
			71.615,35.452 71.792,35.272 71.99,35.101 72.189,34.938 72.394,34.791 72.611,34.656 72.841,34.529 73.068,34.418 73.304,34.317 
			73.558,34.221 73.822,34.136 74.085,34.068 74.357,34.007 74.652,33.957 74.939,33.913 75.247,33.878 75.558,33.864 75.88,33.85 
			76.156,33.864 76.419,33.878 76.677,33.902 76.933,33.939 77.171,33.974 77.404,34.024 77.624,34.068 77.829,34.118 
			78.027,34.168 78.202,34.221 78.359,34.274 78.493,34.324 78.62,34.367 78.724,34.399 78.794,34.435 78.851,34.452 		"/>
		<polyline fill="none" stroke="#FFFFFF" stroke-width="0.2432" stroke-miterlimit="2.6131" points="78.421,36.821 78.421,36.821 
			78.312,36.762 78.202,36.71 78.075,36.645 77.948,36.588 77.82,36.536 77.679,36.485 77.532,36.433 77.376,36.382 77.216,36.341 
			77.048,36.309 76.872,36.273 76.693,36.246 76.495,36.228 76.302,36.212 76.095,36.212 75.88,36.212 75.88,36.212 75.667,36.212 
			75.445,36.228 75.214,36.257 74.976,36.298 74.736,36.366 74.497,36.46 74.257,36.58 74.019,36.732 73.786,36.922 73.566,37.143 
			73.353,37.417 73.148,37.733 72.958,38.11 72.775,38.537 72.618,39.017 72.478,39.565 72.478,39.565 72.427,39.87 72.394,40.168 
			72.376,40.471 72.386,40.76 72.409,41.05 72.468,41.325 72.546,41.582 72.64,41.84 72.769,42.069 72.925,42.291 73.099,42.488 
			73.304,42.665 73.544,42.82 73.802,42.949 74.095,43.061 74.419,43.137 74.419,43.137 74.532,43.162 74.659,43.188 74.816,43.204 
			74.982,43.222 75.171,43.24 75.368,43.24 75.581,43.24 75.794,43.222 76.017,43.196 76.241,43.157 76.454,43.092 76.667,43.028 
			76.88,42.932 77.075,42.82 77.255,42.683 77.427,42.531 77.044,44.811 77.044,44.811 76.991,44.856 76.941,44.906 76.872,44.968 
			76.796,45.017 76.702,45.086 76.581,45.143 76.443,45.206 76.292,45.255 76.095,45.317 75.872,45.359 75.618,45.395 75.316,45.43 
			74.982,45.444 74.599,45.453 74.163,45.444 73.685,45.42 73.685,45.42 73.288,45.373 72.896,45.289 72.505,45.161 72.113,44.99 
			71.736,44.788 71.374,44.531 71.034,44.233 70.716,43.891 70.435,43.502 70.195,43.075 69.991,42.6 69.837,42.077 69.738,41.505 
			69.702,40.898 69.716,40.232 69.812,39.522 69.812,39.522 69.882,39.17 69.956,38.829 70.042,38.495 70.13,38.178 70.22,37.881 
			70.333,37.581 70.445,37.299 70.562,37.034 70.695,36.769 70.82,36.52 70.966,36.28 71.118,36.06 71.271,35.844 71.445,35.64 
			71.615,35.452 71.792,35.272 71.99,35.101 72.189,34.938 72.394,34.791 72.611,34.656 72.841,34.529 73.068,34.418 73.304,34.317 
			73.558,34.221 73.822,34.136 74.085,34.068 74.357,34.007 74.652,33.957 74.939,33.913 75.247,33.878 75.558,33.864 75.88,33.85 
			75.88,33.85 76.156,33.864 76.419,33.878 76.677,33.902 76.933,33.939 77.171,33.974 77.404,34.024 77.624,34.068 77.829,34.118 
			78.027,34.168 78.202,34.221 78.359,34.274 78.493,34.324 78.62,34.367 78.724,34.399 78.794,34.435 78.851,34.452 78.421,36.821 
					"/>
		<polygon fill="#FFFFFF" points="99.466,45.46 97.099,45.46 97.271,44.512 97.271,44.43 97.132,44.6 96.986,44.753 96.843,44.889 
			96.691,45.008 96.534,45.12 96.378,45.212 96.226,45.289 96.064,45.367 95.902,45.43 95.74,45.469 95.577,45.514 95.404,45.539 
			95.238,45.566 95.072,45.58 94.904,45.59 94.732,45.59 94.288,45.555 93.876,45.46 93.501,45.317 93.157,45.12 92.853,44.872 
			92.575,44.581 92.335,44.265 92.13,43.906 91.962,43.519 91.823,43.119 91.73,42.701 91.661,42.266 91.636,41.824 91.644,41.385 
			91.687,40.947 91.765,40.514 91.892,40.008 92.048,39.529 92.226,39.094 92.441,38.684 92.661,38.298 92.917,37.955 
			93.183,37.649 93.466,37.366 93.767,37.119 94.081,36.906 94.406,36.717 94.732,36.573 95.072,36.453 95.413,36.373 
			95.757,36.323 96.105,36.309 96.355,36.315 96.595,36.341 96.816,36.382 97.023,36.446 97.22,36.512 97.39,36.588 97.558,36.683 
			97.714,36.777 97.853,36.877 97.976,36.99 98.087,37.1 98.191,37.212 98.277,37.324 98.355,37.435 98.425,37.537 98.474,37.639 
			98.474,37.639 99.073,34.281 101.396,34.281 		"/>
		<polyline fill="none" stroke="#FFFFFF" stroke-width="0.2432" stroke-miterlimit="2.6131" points="99.466,45.46 97.099,45.46 
			97.271,44.512 97.271,44.43 97.271,44.43 97.132,44.6 96.986,44.753 96.843,44.889 96.691,45.008 96.534,45.12 96.378,45.212 
			96.226,45.289 96.064,45.367 95.902,45.43 95.74,45.469 95.577,45.514 95.404,45.539 95.238,45.566 95.072,45.58 94.904,45.59 
			94.732,45.59 94.732,45.59 94.288,45.555 93.876,45.46 93.501,45.317 93.157,45.12 92.853,44.872 92.575,44.581 92.335,44.265 
			92.13,43.906 91.962,43.519 91.823,43.119 91.73,42.701 91.661,42.266 91.636,41.824 91.644,41.385 91.687,40.947 91.765,40.514 
			91.765,40.514 91.892,40.008 92.048,39.529 92.226,39.094 92.441,38.684 92.661,38.298 92.917,37.955 93.183,37.649 
			93.466,37.366 93.767,37.119 94.081,36.906 94.406,36.717 94.732,36.573 95.072,36.453 95.413,36.373 95.757,36.323 
			96.105,36.309 96.105,36.309 96.355,36.315 96.595,36.341 96.816,36.382 97.023,36.446 97.22,36.512 97.39,36.588 97.558,36.683 
			97.714,36.777 97.853,36.877 97.976,36.99 98.087,37.1 98.191,37.212 98.277,37.324 98.355,37.435 98.425,37.537 98.474,37.639 
			98.474,37.639 99.073,34.281 101.396,34.281 99.466,45.46 		"/>
		<polygon fill="#FBB230" points="95.593,43.395 95.833,43.378 96.052,43.325 96.259,43.266 96.456,43.17 96.638,43.069 
			96.808,42.94 96.97,42.796 97.115,42.64 97.243,42.466 97.361,42.281 97.474,42.086 97.568,41.88 97.654,41.664 97.724,41.444 
			97.779,41.213 97.827,40.985 97.866,40.743 97.892,40.495 97.892,40.264 97.882,40.025 97.861,39.805 97.827,39.588 
			97.765,39.386 97.697,39.184 97.613,39.017 97.507,38.853 97.398,38.715 97.271,38.597 97.124,38.495 96.97,38.428 96.808,38.384 
			96.63,38.365 96.396,38.384 96.185,38.417 95.988,38.487 95.79,38.571 95.618,38.684 95.448,38.819 95.302,38.965 95.156,39.126 
			95.031,39.314 94.911,39.513 94.8,39.718 94.704,39.939 94.618,40.168 94.548,40.401 94.484,40.651 94.431,40.898 94.39,41.273 
			94.406,41.687 94.466,42.102 94.581,42.504 94.747,42.856 94.968,43.137 95.251,43.325 		"/>
		<polygon fill="#FFFFFF" points="43.099,43.564 42.755,45.46 40.601,45.46 40.661,45.112 40.705,44.795 40.739,44.555 
			40.772,44.43 40.654,44.563 40.516,44.701 40.353,44.83 40.175,44.948 39.969,45.07 39.755,45.171 39.533,45.273 39.302,45.359 
			39.052,45.435 38.807,45.496 38.557,45.547 38.303,45.58 38.052,45.598 37.807,45.609 37.566,45.58 37.335,45.547 37.039,45.469 
			36.762,45.382 36.523,45.273 36.309,45.143 36.123,45.008 35.953,44.856 35.815,44.692 35.694,44.521 35.594,44.342 
			35.508,44.153 35.439,43.966 35.387,43.78 35.353,43.581 35.328,43.384 35.309,43.196 35.309,43.008 35.335,42.674 35.387,42.357 
			35.471,42.061 35.583,41.766 35.719,41.494 35.874,41.246 36.054,41.01 36.259,40.794 36.473,40.598 36.712,40.418 36.96,40.256 
			37.215,40.117 37.489,40.002 37.772,39.906 38.061,39.828 38.362,39.776 38.379,39.776 38.421,39.767 38.483,39.761 38.575,39.75 
			38.679,39.733 38.799,39.725 38.926,39.71 39.073,39.693 39.217,39.674 39.363,39.657 39.52,39.649 39.651,39.63 39.791,39.623 
			39.915,39.615 40.039,39.607 40.131,39.607 40.33,39.607 40.534,39.615 40.721,39.623 40.908,39.623 41.062,39.63 41.182,39.64 
			41.267,39.649 41.294,39.649 41.31,39.588 41.361,39.436 41.404,39.256 41.422,39.094 41.386,38.905 41.31,38.734 41.208,38.579 
			41.072,38.451 40.908,38.342 40.728,38.265 40.525,38.214 40.302,38.197 40.063,38.185 39.805,38.178 39.54,38.178 39.267,38.185 
			38.986,38.206 38.712,38.229 38.439,38.257 38.174,38.288 37.916,38.323 37.669,38.365 37.447,38.406 37.243,38.451 
			37.054,38.504 36.898,38.553 36.782,38.615 36.685,38.665 37.294,36.606 37.48,36.53 37.669,36.46 37.874,36.403 38.081,36.358 
			38.284,36.315 38.507,36.28 38.729,36.246 38.961,36.228 39.198,36.212 39.448,36.204 39.702,36.195 39.969,36.195 40.244,36.195 
			40.525,36.195 40.825,36.204 41.124,36.212 41.361,36.228 41.619,36.273 41.884,36.33 42.156,36.41 42.424,36.512 42.68,36.632 
			42.932,36.777 43.177,36.94 43.386,37.131 43.579,37.332 43.748,37.563 43.874,37.821 43.961,38.095 44.01,38.384 44.01,38.709 
			43.961,39.051 		"/>
		<polyline fill="none" stroke="#FFFFFF" stroke-width="0.2432" stroke-miterlimit="2.6131" points="43.099,43.564 42.755,45.46 
			40.601,45.46 40.601,45.46 40.661,45.112 40.705,44.795 40.739,44.555 40.772,44.43 40.772,44.43 40.654,44.563 40.516,44.701 
			40.353,44.83 40.175,44.948 39.969,45.07 39.755,45.171 39.533,45.273 39.302,45.359 39.052,45.435 38.807,45.496 38.557,45.547 
			38.303,45.58 38.052,45.598 37.807,45.609 37.566,45.58 37.335,45.547 37.335,45.547 37.039,45.469 36.762,45.382 36.523,45.273 
			36.309,45.143 36.123,45.008 35.953,44.856 35.815,44.692 35.694,44.521 35.594,44.342 35.508,44.153 35.439,43.966 35.387,43.78 
			35.353,43.581 35.328,43.384 35.309,43.196 35.309,43.008 35.309,43.008 35.335,42.674 35.387,42.357 35.471,42.061 
			35.583,41.766 35.719,41.494 35.874,41.246 36.054,41.01 36.259,40.794 36.473,40.598 36.712,40.418 36.96,40.256 37.215,40.117 
			37.489,40.002 37.772,39.906 38.061,39.828 38.362,39.776 38.362,39.776 38.379,39.776 38.421,39.767 38.483,39.761 38.575,39.75 
			38.679,39.733 38.799,39.725 38.926,39.71 39.073,39.693 39.217,39.674 39.363,39.657 39.52,39.649 39.651,39.63 39.791,39.623 
			39.915,39.615 40.039,39.607 40.131,39.607 40.131,39.607 40.33,39.607 40.534,39.615 40.721,39.623 40.908,39.623 41.062,39.63 
			41.182,39.64 41.267,39.649 41.294,39.649 41.294,39.649 41.31,39.588 41.361,39.436 41.404,39.256 41.422,39.094 41.422,39.094 
			41.386,38.905 41.31,38.734 41.208,38.579 41.072,38.451 40.908,38.342 40.728,38.265 40.525,38.214 40.302,38.197 40.302,38.197 
			40.063,38.185 39.805,38.178 39.54,38.178 39.267,38.185 38.986,38.206 38.712,38.229 38.439,38.257 38.174,38.288 37.916,38.323 
			37.669,38.365 37.447,38.406 37.243,38.451 37.054,38.504 36.898,38.553 36.782,38.615 36.685,38.665 37.294,36.606 
			37.294,36.606 37.48,36.53 37.669,36.46 37.874,36.403 38.081,36.358 38.284,36.315 38.507,36.28 38.729,36.246 38.961,36.228 
			39.198,36.212 39.448,36.204 39.702,36.195 39.969,36.195 40.244,36.195 40.525,36.195 40.825,36.204 41.124,36.212 
			41.124,36.212 41.361,36.228 41.619,36.273 41.884,36.33 42.156,36.41 42.424,36.512 42.68,36.632 42.932,36.777 43.177,36.94 
			43.386,37.131 43.579,37.332 43.748,37.563 43.874,37.821 43.961,38.095 44.01,38.384 44.01,38.709 43.961,39.051 43.099,43.564 
					"/>
		<polygon fill="#EB2230" points="41.039,41.334 41.028,41.289 40.994,41.246 40.943,41.222 40.857,41.204 40.763,41.19 
			40.654,41.18 40.525,41.18 40.394,41.18 40.26,41.19 40.115,41.204 39.978,41.222 39.842,41.24 39.713,41.257 39.592,41.281 
			39.49,41.308 39.397,41.334 39.339,41.348 39.267,41.376 39.176,41.411 39.081,41.451 38.968,41.505 38.858,41.563 38.737,41.622 
			38.628,41.692 38.507,41.776 38.397,41.862 38.292,41.967 38.199,42.069 38.112,42.179 38.052,42.3 38.004,42.435 37.977,42.572 
			37.969,42.864 38.009,43.092 38.097,43.266 38.209,43.395 38.335,43.48 38.483,43.531 38.619,43.555 38.756,43.564 39.012,43.555 
			39.243,43.531 39.465,43.496 39.664,43.445 39.834,43.384 39.996,43.309 40.139,43.23 40.269,43.137 40.382,43.053 40.481,42.949 
			40.568,42.856 40.635,42.751 40.695,42.649 40.749,42.545 40.792,42.452 40.812,42.357 40.885,42.112 40.943,41.824 
			40.994,41.555 		"/>
		<polygon fill="#FFFFFF" points="25.109,45.46 22.789,45.46 24.728,34.239 28.768,34.239 29.157,40.898 31.953,34.239 
			36.174,34.239 34.189,45.46 31.866,45.46 33.334,37.077 33.242,37.077 29.761,45.46 27.139,45.46 27.121,45.112 27.059,44.18 
			26.985,42.856 26.899,41.334 26.811,39.805 26.735,38.46 26.677,37.487 26.655,37.077 26.635,37.077 26.584,37.077 26.532,37.077 
			26.532,37.077 		"/>
		<polyline fill="none" stroke="#FFFFFF" stroke-width="0.2432" stroke-miterlimit="2.6131" points="25.109,45.46 22.789,45.46 
			24.728,34.239 28.768,34.239 29.157,40.898 31.953,34.239 36.174,34.239 34.189,45.46 31.866,45.46 33.334,37.077 33.242,37.077 
			29.761,45.46 27.139,45.46 27.139,45.46 27.121,45.112 27.059,44.18 26.985,42.856 26.899,41.334 26.811,39.805 26.735,38.46 
			26.677,37.487 26.655,37.077 26.655,37.077 26.635,37.077 26.584,37.077 26.532,37.077 26.532,37.077 25.109,45.46 		"/>
		<polygon fill="#FFFFFF" points="85.527,43.564 85.175,45.46 83.029,45.46 83.042,45.112 83.052,44.805 83.052,44.572 83.07,44.47 
			82.958,44.6 82.831,44.724 82.679,44.845 82.507,44.968 82.327,45.077 82.12,45.181 81.907,45.281 81.695,45.367 81.462,45.435 
			81.222,45.502 80.986,45.547 80.747,45.58 80.497,45.598 80.259,45.609 80.029,45.58 79.798,45.547 79.49,45.469 79.216,45.382 
			78.974,45.273 78.753,45.143 78.564,45.008 78.407,44.856 78.263,44.692 78.146,44.521 78.044,44.342 77.966,44.153 
			77.902,43.966 77.857,43.78 77.82,43.581 77.798,43.384 77.777,43.196 77.777,43.008 77.798,42.674 77.845,42.357 77.925,42.061 
			78.034,41.766 78.161,41.494 78.329,41.246 78.505,41.01 78.7,40.794 78.921,40.598 79.157,40.418 79.404,40.256 79.667,40.117 
			79.935,40.002 80.214,39.906 80.497,39.828 80.79,39.776 80.806,39.776 80.847,39.767 80.909,39.761 80.993,39.75 81.107,39.733 
			81.222,39.725 81.353,39.71 81.488,39.693 81.636,39.674 81.79,39.657 81.933,39.649 82.081,39.63 82.214,39.623 82.333,39.615 
			82.454,39.607 82.546,39.607 82.753,39.607 82.958,39.615 83.154,39.623 83.343,39.623 83.509,39.63 83.642,39.64 83.722,39.649 
			83.751,39.649 83.769,39.588 83.802,39.436 83.825,39.256 83.839,39.094 83.808,38.905 83.738,38.734 83.628,38.579 
			83.499,38.451 83.343,38.342 83.165,38.265 82.98,38.214 82.771,38.197 82.531,38.185 82.279,38.178 82.011,38.178 81.738,38.185 
			81.454,38.206 81.179,38.229 80.909,38.257 80.642,38.288 80.386,38.323 80.14,38.365 79.915,38.406 79.712,38.451 79.523,38.504 
			79.37,38.553 79.249,38.615 79.157,38.665 79.755,36.606 79.941,36.53 80.14,36.46 80.337,36.403 80.54,36.358 80.753,36.315 
			80.968,36.28 81.189,36.246 81.423,36.228 81.659,36.212 81.907,36.204 82.154,36.195 82.421,36.195 82.687,36.195 82.958,36.195 
			83.249,36.204 83.538,36.212 83.779,36.228 84.036,36.273 84.302,36.33 84.575,36.41 84.839,36.512 85.105,36.632 85.359,36.777 
			85.601,36.94 85.814,37.131 86.007,37.332 86.183,37.563 86.31,37.821 86.406,38.095 86.466,38.384 86.466,38.709 86.421,39.051 
					"/>
		<polygon fill="#FFFFFF" points="85.175,45.522 85.224,45.469 85.575,43.573 85.472,43.555 85.12,45.453 85.175,45.403 
			85.175,45.522 85.216,45.514 85.224,45.469 		"/>
		<polygon fill="#FFFFFF" points="82.98,45.46 83.029,45.522 85.175,45.522 85.175,45.403 83.029,45.403 83.083,45.46 82.98,45.46 
			82.968,45.522 83.029,45.522 		"/>
		<polygon fill="#FFFFFF" points="83.115,44.502 83.034,44.438 83.003,44.572 82.993,44.805 82.993,45.112 82.98,45.46 
			83.083,45.46 83.097,45.112 83.115,44.805 83.105,44.572 83.105,44.502 83.029,44.438 		"/>
		<polygon fill="#FFFFFF" points="79.788,45.598 79.788,45.598 80.029,45.633 80.259,45.656 80.497,45.651 80.747,45.633 
			80.993,45.598 81.232,45.555 81.474,45.489 81.71,45.42 81.923,45.333 82.146,45.232 82.353,45.128 82.531,45.008 82.712,44.889 
			82.863,44.771 83.003,44.629 83.115,44.502 83.029,44.438 82.915,44.563 82.798,44.685 82.642,44.805 82.482,44.923 82.3,45.027 
			82.097,45.128 81.892,45.232 81.675,45.317 81.454,45.382 81.216,45.453 80.974,45.496 80.747,45.53 80.497,45.547 80.259,45.555 
			80.029,45.53 79.808,45.496 79.808,45.496 		"/>
		<polygon fill="#FFFFFF" points="77.72,43.008 77.72,43.008 77.728,43.196 77.745,43.384 77.771,43.589 77.806,43.785 
			77.845,43.973 77.917,44.172 77.997,44.365 78.109,44.547 78.224,44.724 78.359,44.889 78.532,45.051 78.732,45.19 78.952,45.325 
			79.198,45.435 79.48,45.522 79.788,45.598 79.808,45.496 79.499,45.42 79.232,45.333 78.999,45.224 78.777,45.103 78.597,44.968 
			78.447,44.82 78.312,44.658 78.189,44.496 78.099,44.319 78.021,44.137 77.948,43.959 77.909,43.77 77.872,43.573 77.845,43.384 
			77.829,43.196 77.837,43.008 77.837,43.008 		"/>
		<polygon fill="#FFFFFF" points="80.79,39.725 80.79,39.725 80.491,39.776 80.2,39.856 79.915,39.948 79.642,40.067 79.378,40.202 
			79.12,40.375 78.888,40.558 78.667,40.76 78.46,40.976 78.279,41.213 78.115,41.468 77.982,41.754 77.872,42.042 77.798,42.348 
			77.745,42.674 77.72,43.008 77.837,43.008 77.845,42.674 77.902,42.365 77.974,42.077 78.085,41.787 78.218,41.522 78.365,41.281 
			78.548,41.042 78.738,40.828 78.958,40.64 79.187,40.463 79.427,40.307 79.698,40.168 79.948,40.05 80.234,39.957 80.505,39.879 
			80.79,39.828 80.79,39.828 		"/>
		<polygon fill="#FFFFFF" points="82.546,39.546 82.546,39.546 82.454,39.546 82.333,39.565 82.214,39.573 82.081,39.579 
			81.933,39.598 81.79,39.607 81.636,39.623 81.488,39.64 81.353,39.657 81.222,39.674 81.107,39.683 80.993,39.701 80.909,39.71 
			80.837,39.718 80.806,39.725 80.79,39.725 80.79,39.828 80.806,39.828 80.857,39.82 80.909,39.814 80.993,39.805 81.107,39.786 
			81.222,39.776 81.353,39.761 81.488,39.741 81.636,39.725 81.79,39.71 81.933,39.701 82.081,39.683 82.214,39.674 82.333,39.665 
			82.454,39.665 82.546,39.665 82.546,39.665 		"/>
		<polygon fill="#FFFFFF" points="83.706,39.64 83.751,39.598 83.722,39.598 83.642,39.588 83.509,39.579 83.343,39.565 
			83.154,39.565 82.958,39.565 82.753,39.546 82.546,39.546 82.546,39.665 82.753,39.665 82.958,39.665 83.154,39.683 
			83.343,39.683 83.509,39.683 83.642,39.693 83.722,39.701 83.751,39.701 83.808,39.657 83.751,39.701 83.802,39.71 83.808,39.657 
					"/>
		<polygon fill="#FFFFFF" points="83.79,39.094 83.779,39.094 83.769,39.256 83.743,39.427 83.722,39.579 83.706,39.64 
			83.808,39.657 83.825,39.598 83.847,39.441 83.868,39.256 83.902,39.094 83.892,39.094 		"/>
		<polygon fill="#FFFFFF" points="82.771,38.246 82.771,38.257 82.968,38.265 83.146,38.316 83.318,38.392 83.462,38.495 
			83.585,38.615 83.683,38.758 83.751,38.912 83.79,39.094 83.892,39.094 83.853,38.898 83.79,38.709 83.665,38.546 83.532,38.406 
			83.368,38.288 83.185,38.214 82.986,38.163 82.771,38.135 82.771,38.144 		"/>
		<polygon fill="#FFFFFF" points="79.103,38.657 79.187,38.709 79.275,38.665 79.386,38.605 79.532,38.553 79.718,38.504 
			79.927,38.46 80.146,38.417 80.394,38.376 80.642,38.342 80.909,38.307 81.179,38.28 81.454,38.257 81.738,38.237 82.011,38.237 
			82.279,38.237 82.531,38.237 82.771,38.246 82.771,38.144 82.531,38.135 82.279,38.118 82.011,38.118 81.738,38.135 
			81.454,38.154 81.179,38.178 80.909,38.206 80.642,38.237 80.378,38.271 80.13,38.316 79.907,38.359 79.702,38.402 79.513,38.451 
			79.351,38.504 79.224,38.563 79.12,38.622 79.206,38.673 		"/>
		<polygon fill="#FFFFFF" points="79.738,36.555 79.702,36.595 79.103,38.657 79.206,38.673 79.808,36.615 79.769,36.658 
			79.738,36.555 79.712,36.563 79.702,36.595 		"/>
		<polygon fill="#FFFFFF" points="83.538,36.161 83.538,36.161 83.249,36.146 82.958,36.135 82.687,36.135 82.421,36.135 
			82.154,36.135 81.907,36.154 81.659,36.161 81.423,36.179 81.189,36.195 80.958,36.228 80.747,36.264 80.532,36.309 
			80.323,36.352 80.122,36.41 79.927,36.477 79.738,36.555 79.769,36.658 79.956,36.58 80.156,36.512 80.345,36.453 80.55,36.41 
			80.765,36.366 80.974,36.33 81.189,36.298 81.423,36.28 81.659,36.264 81.907,36.257 82.154,36.257 82.421,36.257 82.687,36.257 
			82.958,36.257 83.249,36.264 83.538,36.264 83.538,36.264 		"/>
		<polygon fill="#FFFFFF" points="86.472,39.061 86.472,39.061 86.515,38.709 86.515,38.384 86.454,38.082 86.363,37.802 
			86.226,37.537 86.052,37.299 85.847,37.086 85.636,36.897 85.388,36.732 85.13,36.58 84.857,36.46 84.591,36.358 84.308,36.28 
			84.044,36.221 83.779,36.179 83.538,36.161 83.538,36.264 83.779,36.28 84.029,36.323 84.29,36.382 84.556,36.46 84.822,36.563 
			85.079,36.683 85.335,36.821 85.568,36.982 85.781,37.169 85.968,37.366 86.138,37.586 86.257,37.838 86.353,38.103 
			86.413,38.384 86.413,38.709 86.372,39.043 86.372,39.043 		"/>
		<polygon fill="#FFFFFF" points="85.575,43.573 85.575,43.573 86.472,39.061 86.372,39.043 85.472,43.555 85.472,43.555 		"/>
		<polygon fill="#FBB230" points="83.452,41.334 83.437,41.281 83.407,41.24 83.343,41.213 83.257,41.19 83.165,41.18 
			83.052,41.168 82.925,41.168 82.798,41.18 82.659,41.198 82.525,41.213 82.388,41.233 82.255,41.246 82.13,41.273 82.019,41.289 
			81.907,41.317 81.82,41.334 81.763,41.342 81.695,41.367 81.609,41.391 81.515,41.43 81.402,41.479 81.3,41.531 81.179,41.59 
			81.07,41.664 80.958,41.744 80.847,41.84 80.753,41.929 80.659,42.042 80.585,42.162 80.523,42.291 80.47,42.427 80.448,42.572 
			80.439,42.864 80.478,43.092 80.55,43.266 80.65,43.395 80.779,43.48 80.925,43.531 81.07,43.555 81.216,43.564 81.474,43.555 
			81.71,43.531 81.933,43.488 82.13,43.428 82.32,43.359 82.482,43.282 82.634,43.196 82.771,43.092 82.894,43 82.993,42.887 
			83.089,42.786 83.165,42.674 83.224,42.572 83.267,42.466 83.304,42.365 83.325,42.274 83.359,42.032 83.407,41.787 
			83.437,41.547 		"/>
		<polygon fill="#FFFFFF" points="101.064,44.291 101.083,44.092 101.15,43.863 101.271,43.656 101.415,43.48 101.595,43.333 
			101.804,43.23 102.025,43.162 102.261,43.137 102.501,43.162 102.724,43.23 102.929,43.333 103.111,43.48 103.253,43.656 
			103.37,43.863 103.441,44.092 103.46,44.291 103.204,44.291 103.198,44.137 103.142,43.948 103.056,43.78 102.945,43.632 
			102.81,43.513 102.646,43.428 102.458,43.369 102.261,43.35 102.064,43.369 101.878,43.428 101.716,43.513 101.577,43.632 
			101.468,43.78 101.382,43.948 101.329,44.137 101.314,44.291 		"/>
		<polygon fill="#FFFFFF" points="101.835,44.291 101.835,43.78 102.306,43.78 102.409,43.785 102.501,43.803 102.568,43.828 
			102.63,43.863 102.671,43.915 102.706,43.966 102.724,44.026 102.732,44.084 102.724,44.159 102.706,44.225 102.681,44.276 
			102.663,44.291 102.306,44.291 102.337,44.284 102.402,44.276 102.45,44.256 102.491,44.24 102.527,44.214 102.544,44.188 
			102.56,44.148 102.56,44.084 102.552,44.043 102.532,44.007 102.511,43.992 102.484,43.973 102.441,43.966 102.402,43.959 
			102.357,43.959 102.306,43.959 102.048,43.959 102.048,44.291 		"/>
		<polygon fill="#FFFFFF" points="101.064,44.291 101.056,44.342 101.083,44.592 101.15,44.82 101.271,45.027 101.415,45.199 
			101.595,45.34 101.804,45.453 102.025,45.522 102.261,45.547 102.501,45.522 102.724,45.453 102.929,45.34 103.111,45.199 
			103.253,45.027 103.37,44.82 103.441,44.592 103.464,44.342 103.46,44.291 103.204,44.291 103.212,44.342 103.198,44.547 
			103.142,44.736 103.056,44.898 102.945,45.041 102.81,45.161 102.646,45.255 102.458,45.317 102.261,45.333 102.064,45.317 
			101.878,45.255 101.716,45.161 101.577,45.041 101.468,44.898 101.382,44.736 101.329,44.547 101.314,44.342 101.314,44.291 		"/>
		<polygon fill="#FFFFFF" points="101.835,44.291 101.835,44.811 102.048,44.811 102.048,44.387 102.261,44.387 102.519,44.811 
			102.691,44.811 102.431,44.387 102.491,44.387 102.552,44.365 102.603,44.35 102.646,44.319 102.663,44.291 102.306,44.291 
			102.261,44.297 102.048,44.297 102.048,44.291 		"/>
		<path fill="none" stroke="#FFFFFF" stroke-width="0.2432" stroke-miterlimit="2.6131" d="M101.056,44.342L101.056,44.342
			l0.025-0.251l0.068-0.23l0.121-0.204l0.145-0.177l0.178-0.147l0.209-0.104l0.219-0.068l0.238-0.022l0,0l0.24,0.022l0.221,0.068
			l0.209,0.104l0.18,0.147l0.145,0.177l0.113,0.204l0.07,0.23l0.021,0.251l0,0l-0.021,0.249l-0.07,0.228l-0.113,0.207l-0.145,0.172
			l-0.18,0.144l-0.209,0.111l-0.221,0.07l-0.24,0.022l0,0l-0.238-0.022l-0.219-0.07l-0.209-0.111l-0.178-0.144l-0.145-0.172
			l-0.121-0.207l-0.068-0.228L101.056,44.342 M102.048,44.811h-0.211V43.78h0.473l0,0l0.104,0.006l0.094,0.021l0.066,0.022
			l0.061,0.031l0.041,0.056l0.035,0.049l0.018,0.064l0.008,0.06l0,0l-0.008,0.072l-0.018,0.066l-0.023,0.051l-0.037,0.045
			l-0.039,0.029l-0.053,0.021l-0.059,0.02h-0.064l0.258,0.427h-0.17l-0.256-0.427h-0.213v0.425 M102.261,44.297L102.261,44.297
			l0.074-0.017l0.066-0.008l0.049-0.022l0.043-0.017l0.033-0.025l0.02-0.024l0.016-0.041V44.08l0,0l-0.008-0.041l-0.02-0.034
			l-0.021-0.017l-0.025-0.021l-0.043-0.008l-0.041-0.007h-0.043h-0.053h-0.258v0.342L102.261,44.297 M102.261,45.333L102.261,45.333
			l0.197-0.02l0.188-0.063l0.166-0.093l0.135-0.12l0.111-0.142l0.088-0.165l0.059-0.188l0.014-0.206l0,0l-0.014-0.204l-0.059-0.191
			l-0.088-0.166l-0.111-0.148l-0.135-0.116l-0.166-0.086l-0.188-0.063l-0.197-0.018l0,0l-0.199,0.018l-0.188,0.063l-0.162,0.086
			l-0.139,0.116l-0.113,0.147l-0.082,0.166l-0.051,0.191l-0.018,0.204l0,0l0.018,0.206l0.051,0.188l0.082,0.165l0.113,0.142
			l0.141,0.119l0.16,0.094l0.189,0.062L102.261,45.333"/>
		<polygon fill="#FFFFFF" points="86.167,45.46 88.579,45.46 88.579,45.46 89.439,40.598 89.47,40.412 89.527,40.221 89.573,40.032 
			89.644,39.845 89.732,39.657 89.833,39.478 89.945,39.308 90.079,39.148 90.232,38.999 90.406,38.864 90.603,38.734 
			90.823,38.631 91.072,38.546 91.347,38.478 91.644,38.428 91.978,38.406 92.099,38.406 92.165,38.406 92.191,38.406 
			92.191,38.406 92.575,36.212 92.335,36.228 92.105,36.257 91.892,36.298 91.687,36.358 91.497,36.425 91.32,36.512 91.148,36.606 
			90.986,36.71 90.831,36.828 90.687,36.949 90.55,37.086 90.413,37.222 90.284,37.366 90.159,37.528 90.027,37.681 89.909,37.854 
			90.167,36.309 87.765,36.309 		"/>
		<polyline fill="none" stroke="#FFFFFF" stroke-width="0.2432" stroke-miterlimit="2.6131" points="86.167,45.46 88.579,45.46 
			88.579,45.46 89.439,40.598 89.439,40.598 89.47,40.412 89.527,40.221 89.573,40.032 89.644,39.845 89.732,39.657 89.833,39.478 
			89.945,39.308 90.079,39.148 90.232,38.999 90.406,38.864 90.603,38.734 90.823,38.631 91.072,38.546 91.347,38.478 
			91.644,38.428 91.978,38.406 91.978,38.406 92.099,38.406 92.165,38.406 92.191,38.406 92.191,38.406 92.575,36.212 
			92.575,36.212 92.335,36.228 92.105,36.257 91.892,36.298 91.687,36.358 91.497,36.425 91.32,36.512 91.148,36.606 90.986,36.71 
			90.831,36.828 90.687,36.949 90.55,37.086 90.413,37.222 90.284,37.366 90.159,37.528 90.027,37.681 89.909,37.854 90.167,36.309 
			87.765,36.309 86.167,45.46 86.167,45.46 		"/>
		<polygon fill="#FFFFFF" points="63.531,45.46 65.939,45.46 65.98,45.46 66.804,40.598 66.839,40.412 66.88,40.232 66.923,40.05 
			66.982,39.879 67.05,39.71 67.138,39.546 67.24,39.392 67.359,39.251 67.493,39.117 67.652,38.991 67.843,38.888 68.046,38.795 
			68.282,38.715 68.544,38.651 68.837,38.605 69.169,38.579 69.197,38.579 69.234,38.59 69.273,38.597 69.316,38.597 69.361,38.605 
			69.394,38.615 69.417,38.622 69.429,38.622 69.437,38.59 69.462,38.487 69.495,38.333 69.538,38.144 69.599,37.92 69.659,37.681 
			69.738,37.445 69.812,37.201 69.882,37.041 69.964,36.877 70.052,36.717 70.138,36.573 70.212,36.446 70.275,36.341 70.316,36.28 
			70.333,36.257 70.327,36.257 70.288,36.246 70.247,36.238 70.187,36.228 70.13,36.228 70.06,36.221 69.999,36.212 69.939,36.212 
			69.675,36.228 69.437,36.257 69.212,36.298 69.009,36.352 68.814,36.417 68.632,36.505 68.47,36.588 68.314,36.689 68.173,36.804 
			68.029,36.929 67.904,37.059 67.779,37.201 67.652,37.351 67.531,37.514 67.4,37.681 67.273,37.854 67.579,36.309 65.124,36.309 
					"/>
		<polyline fill="none" stroke="#FFFFFF" stroke-width="0.2432" stroke-miterlimit="2.6131" points="63.531,45.46 65.939,45.46 
			65.98,45.46 66.804,40.598 66.804,40.598 66.839,40.412 66.88,40.232 66.923,40.05 66.982,39.879 67.05,39.71 67.138,39.546 
			67.24,39.392 67.359,39.251 67.493,39.117 67.652,38.991 67.843,38.888 68.046,38.795 68.282,38.715 68.544,38.651 68.837,38.605 
			69.169,38.579 69.169,38.579 69.197,38.579 69.234,38.59 69.273,38.597 69.316,38.597 69.361,38.605 69.394,38.615 69.417,38.622 
			69.429,38.622 69.429,38.622 69.437,38.59 69.462,38.487 69.495,38.333 69.538,38.144 69.599,37.92 69.659,37.681 69.738,37.445 
			69.812,37.201 69.812,37.201 69.882,37.041 69.964,36.877 70.052,36.717 70.138,36.573 70.212,36.446 70.275,36.341 70.316,36.28 
			70.333,36.257 70.333,36.257 70.327,36.257 70.288,36.246 70.247,36.238 70.187,36.228 70.13,36.228 70.06,36.221 69.999,36.212 
			69.939,36.212 69.939,36.212 69.675,36.228 69.437,36.257 69.212,36.298 69.009,36.352 68.814,36.417 68.632,36.505 68.47,36.588 
			68.314,36.689 68.173,36.804 68.029,36.929 67.904,37.059 67.779,37.201 67.652,37.351 67.531,37.514 67.4,37.681 67.273,37.854 
			67.579,36.309 65.124,36.309 63.531,45.46 63.531,45.46 		"/>
		<polygon fill="#FBB230" points="101.083,54.455 101.083,54.419 101.15,54.196 101.271,54.001 101.415,53.83 101.595,53.695 
			101.804,53.592 102.025,53.532 102.261,53.506 102.501,53.532 102.724,53.592 102.929,53.695 103.111,53.83 103.253,54.001 
			103.37,54.196 103.441,54.419 103.441,54.455 103.198,54.455 103.142,54.28 103.056,54.114 102.945,53.965 102.81,53.849 
			102.646,53.755 102.458,53.695 102.261,53.676 102.064,53.695 101.878,53.755 101.716,53.849 101.577,53.965 101.468,54.114 
			101.382,54.28 101.329,54.455 		"/>
		<polygon fill="#FBB230" points="101.835,54.455 101.835,54.156 102.306,54.156 102.409,54.156 102.501,54.175 102.568,54.19 
			102.63,54.221 102.671,54.269 102.706,54.318 102.724,54.381 102.732,54.455 102.56,54.455 102.56,54.41 102.552,54.368 
			102.532,54.334 102.511,54.318 102.484,54.301 102.441,54.291 102.402,54.285 102.357,54.285 102.306,54.285 102.048,54.285 
			102.048,54.455 		"/>
		<polygon fill="#FBB230" points="101.056,54.643 101.083,54.455 101.329,54.455 101.329,54.461 101.314,54.643 		"/>
		<polygon fill="#FBB230" points="101.835,54.643 101.835,54.455 102.048,54.455 102.048,54.621 102.261,54.621 102.337,54.61 
			102.402,54.602 102.45,54.584 102.491,54.566 102.527,54.541 102.544,54.514 102.56,54.472 102.56,54.455 102.732,54.455 
			102.732,54.455 102.724,54.514 102.706,54.566 102.681,54.61 102.646,54.643 		"/>
		<polygon fill="#FBB230" points="103.212,54.643 103.198,54.461 103.198,54.455 103.441,54.455 103.464,54.643 		"/>
		<polygon fill="#FBB230" points="101.056,54.643 101.056,54.668 101.083,54.914 101.15,55.147 101.271,55.352 101.415,55.532 
			101.595,55.678 101.804,55.78 102.025,55.845 102.261,55.876 102.501,55.845 102.724,55.78 102.929,55.678 103.111,55.532 
			103.253,55.352 103.37,55.147 103.441,54.914 103.464,54.668 103.464,54.643 103.212,54.643 103.212,54.668 103.198,54.871 
			103.142,55.064 103.056,55.223 102.945,55.369 102.81,55.49 102.646,55.585 102.458,55.644 102.261,55.66 102.064,55.644 
			101.878,55.585 101.716,55.49 101.577,55.369 101.468,55.223 101.382,55.064 101.329,54.871 101.314,54.668 101.314,54.643 		"/>
		<polygon fill="#FBB230" points="101.835,54.643 101.835,55.138 102.048,55.138 102.048,54.711 102.261,54.711 102.519,55.138 
			102.691,55.138 102.431,54.711 102.491,54.711 102.552,54.696 102.603,54.678 102.646,54.643 102.646,54.643 		"/>
		<path fill="#FFFFFF" d="M63.794,39.031l-0.07-0.512l-0.115-0.453l-0.172-0.393l-0.213-0.343l-0.255-0.294l-0.281-0.238
			l-0.305-0.207l-0.336-0.155l-0.344-0.126l-0.35-0.087l-0.354-0.06l-0.35-0.034l-0.334-0.009l-0.697,0.035l-0.61,0.104
			l-0.562,0.155l-0.494,0.211l-0.427,0.257l-0.38,0.294l-0.333,0.325l-0.272,0.341l-0.241,0.356l-0.195,0.376l-0.154,0.369
			l-0.131,0.366l-0.091,0.358l-0.073,0.335l-0.05,0.314l-0.029,0.273l-0.044,0.699l0.021,0.633l0.094,0.578l0.146,0.502L56,43.456
			l0.246,0.395l0.292,0.35l0.333,0.295l0.359,0.249l0.387,0.207l0.4,0.166l0.419,0.127l0.429,0.103l0.429,0.064l0.425,0.039
			l0.422,0.01h0.28l0.267-0.01h0.23l0.221-0.01l0.2-0.019l0.176-0.019l0.17-0.021l0.156-0.022l0.146-0.023l0.137-0.029l0.137-0.045
			l0.13-0.039l0.124-0.055l0.141-0.051l0.132-0.073l0.139-0.065l0.342-2.103l-0.25,0.146l-0.242,0.136l-0.244,0.104l-0.244,0.094
			l-0.23,0.075l-0.239,0.053l-0.233,0.04l-0.229,0.035l-0.229,0.018l-0.223,0.01H60.67l-0.219-0.01l-0.223-0.018l-0.223-0.026
			l-0.212-0.022l-0.223-0.032l-0.17-0.033l-0.165-0.061l-0.169-0.075l-0.155-0.096l-0.155-0.102l-0.14-0.127l-0.127-0.126
			l-0.116-0.149l-0.103-0.146l-0.094-0.159l-0.067-0.158l-0.065-0.164l-0.028-0.164l-0.022-0.162l0.008-0.148l0.023-0.11h5.548
			l0.039-0.52l0.129-0.72l0.063-0.651L63.794,39.031z M61.474,39.82h-3.121l0.003-0.007l-0.005-0.003l0.024-0.117l0.031-0.18
			l0.053-0.169l0.061-0.17l0.079-0.155l0.073-0.146l0.095-0.139l0.104-0.131l0.111-0.117l0.113-0.104l0.126-0.095l0.128-0.073
			l0.148-0.07l0.146-0.049l0.147-0.035l0.152-0.023l0.163-0.011l0.158,0.021l0.146,0.024l0.138,0.033l0.134,0.051l0.129,0.068
			l0.124,0.073l0.113,0.086l0.104,0.104l0.086,0.117l0.084,0.127l0.059,0.147l0.067,0.164l0.026,0.168l0.024,0.188l0.009,0.204
			L61.474,39.82z"/>
	</g>
</g>
</svg>
