<?xml version="1.0" encoding="utf-8"?>
<!-- Generator: Adobe Illustrator 19.0.0, SVG Export Plug-In . SVG Version: 6.00 Build 0)  -->
<svg version="1.1" id="Layer_1" xmlns="http://www.w3.org/2000/svg" xmlns:xlink="http://www.w3.org/1999/xlink" x="0px" y="0px"
	 viewBox="0 0 200 200" style="enable-background:new 0 0 200 200;" xml:space="preserve">
<style type="text/css">
	.st0{fill:url(#SVGID_1_);}
	.st1{fill:url(#XMLID_5_);}
</style>
<g>
	<g>
		<linearGradient id="SVGID_1_" gradientUnits="userSpaceOnUse" x1="38.5789" y1="38.5777" x2="161.4224" y2="161.4212">
			<stop  offset="0" style="stop-color:#9EFBD3"/>
			<stop  offset="0.2663" style="stop-color:#7EF3E1"/>
			<stop  offset="0.5538" style="stop-color:#57E9F2"/>
			<stop  offset="1" style="stop-color:#45D4FB"/>
		</linearGradient>
		<path class="st0" d="M100,13.1c-47.9,0-86.9,39-86.9,86.9c0,47.9,39,86.9,86.9,86.9c47.9,0,86.9-39,86.9-86.9
			C186.9,52.1,147.9,13.1,100,13.1z M100,172.6c-40,0-72.6-32.6-72.6-72.6c0-40,32.6-72.6,72.6-72.6S172.6,60,172.6,100
			C172.6,140,140,172.6,100,172.6z"/>
		<linearGradient id="XMLID_5_" gradientUnits="userSpaceOnUse" x1="81.0141" y1="56.8003" x2="146.8501" y2="122.6363">
			<stop  offset="0" style="stop-color:#9EFBD3"/>
			<stop  offset="0.2663" style="stop-color:#7EF3E1"/>
			<stop  offset="0.5538" style="stop-color:#57E9F2"/>
			<stop  offset="1" style="stop-color:#45D4FB"/>
		</linearGradient>
		<path id="XMLID_1_" class="st1" d="M107.2,97.2V47.9c0-4-3.2-7.2-7.2-7.2c-4,0-7.2,3.2-7.2,7.2V100c0,2.2,1,4.2,2.6,5.5
			c0.1,0.1,0.1,0.2,0.2,0.3l26.8,30.5c1.4,1.6,3.4,2.4,5.4,2.4c1.7,0,3.4-0.6,4.7-1.8c3-2.6,3.3-7.1,0.6-10.1L107.2,97.2z"/>
	</g>
</g>
</svg>
